/* XPM */
static char *a4f70e26f9e4444be5570131b7d00963EY7gyjSHJtch5loQ[] = {
/* columns rows colors chars-per-pixel */
"50 50 9 1 ",
"  c None",
". c #65391B",
"X c gray31",
"o c #E8D82A",
"O c #848484",
"+ c #A0A0A0",
"@ c #A8A9A9",
"# c #C0C0C0",
"$ c gray84",
/* pixels */
"                                                  ",
"                                                  ",
"                                                  ",
"                                                  ",
"                                                  ",
"                                                  ",
"                                                  ",
"                                                  ",
"                                                  ",
"                                                  ",
"                                                  ",
"                                                  ",
"                                                  ",
"                                                  ",
"                                                  ",
"                                                  ",
"                                                  ",
"                                                  ",
"                                                  ",
"                                                  ",
"                                                  ",
"                                                  ",
"                                                  ",
"                               @                  ",
"                              @@@                 ",
"                             OX@@@                ",
"                            @OOXo@                ",
"                          @X@@OOX.                ",
"                     X@X@@@X+XXX$                 ",
"                    X+++++X++XOOO                 ",
"                   +XXX+++X+++X##                 ",
"                   ++X++X+X+++OXX                 ",
"                                                  ",
"                                                  ",
"                                                  ",
"                                                  ",
"                                                  ",
"                                                  ",
"                                                  ",
"                                                  ",
"                                                  ",
"                                                  ",
"                                                  ",
"                                                  ",
"                                                  ",
"                                                  ",
"                                                  ",
"                                                  ",
"                                                  ",
"                                                  "
};
