/* XPM */
static char *bc247b304598473899bd81edbaefd154my3cJ18fULborP23[] = {
/* columns rows colors chars-per-pixel */
"50 50 10 1 ",
"  c None",
". c #65391B",
"X c gray31",
"o c #646464",
"O c #E8D82A",
"+ c #848484",
"@ c #A0A0A0",
"# c #A8A9A9",
"$ c #C0C0C0",
"% c gray84",
/* pixels */
"                                                  ",
"                                                  ",
"                                                  ",
"                                                  ",
"                                                  ",
"                                                  ",
"                                                  ",
"                                                  ",
"                                                  ",
"                                                  ",
"                                                  ",
"                                                  ",
"                                                  ",
"                                                  ",
"                                                  ",
"                                                  ",
"                                                  ",
"                                                  ",
"                                #                 ",
"                               ###                ",
"                              +X###               ",
"                              ++XO#               ",
"                           X###++X.               ",
"                       #X##X#X$XX%                ",
"                     X#X##X@@X$$$                 ",
"                  ++X##X##X@@@X$+                 ",
"                 +  X##X@@X@@@$XX                 ",
"                 +  +X@@X@$$@@ ++                 ",
"                 ++ X@@@$$o @@ ++                 ",
"                  +@XXX@ooX XX XX                 ",
"                   @@X@ XXo @@ ++                 ",
"                    @@##oooo%% $$                 ",
"                                                  ",
"                                                  ",
"                                                  ",
"                                                  ",
"                                                  ",
"                                                  ",
"                                                  ",
"                                                  ",
"                                                  ",
"                                                  ",
"                                                  ",
"                                                  ",
"                                                  ",
"                                                  ",
"                                                  ",
"                                                  ",
"                                                  ",
"                                                  "
};
