/* XPM */
static char *_2d67e88b75f4c7795314186bc5a8bac2yCNE7Q0uB6McUy9[] = {
/* columns rows colors chars-per-pixel */
"200 50 7 1 ",
"  c None",
". c #101212",
"X c #131616",
"o c #171919",
"O c #1D2020",
"+ c #2D3131",
"@ c #B5AA30",
/* pixels */
"                                                                                                                                                                                                        ",
"                                                                                                                                                                                                        ",
"                                                                                                                                                                                                        ",
"                                                                                                                                                                                                        ",
"                                                                                                                                                                                                        ",
"                                                                                                                                                                                                        ",
"                                                                                                                                                                                                        ",
"                                                                                                                                                                                                        ",
"                                                                                                                                                                                                        ",
"                                                                                                                                                                                                        ",
"                                                                                                                                                                                                        ",
"                                                                                                                                                                                                        ",
"                                                                                                                                                                                                        ",
"                                                                                                                                                                                                        ",
"                                                                                                                                                                                                        ",
"                                                                                                                                                                                                        ",
"                                                                                                                                                                                                        ",
"                                                                                                                                                                                                        ",
"                                O                                                                                                                                                                       ",
"                               ++O                                               O                                                 O                                                  O                 ",
"                              +++++                                               OO+                                               OO+                                               OO+               ",
"                             O+++@+                                            OO+++++                                           OO+++++                                           OO+++++              ",
"                     +OOOOOOOO++++O                                    +OOOOOOOOO+++@+                                   +OOOOOOOOO+++++                                   +OOOOOOOOO+++@+              ",
"                    ++++OOOO++O++O                                    ++++OOOO++O+++O+                                  ++++OOOO++O+++O+                                  ++++OOOO++O+++O+              ",
"                    ++++++++++OOO                                     ++++++++++OOO                                     ++++++++++OOO                                     ++++++++++OOOOo               ",
"                    +++++O++++OOO                                     +++++O++++OOOOO                                   +++++O++++OOOOO                                   +++++O++++OOOOO               ",
"                    ++++OOOO++OOO                                     ++++OOOO++OOO                                     ++++OOOO++OOO                                     ++++OOOO++OOO                 ",
"                    O+++..OOO+OOO                                     O+++..OOO+OOO                                     O+++..OOO+OOO                                     O+++..OOO+OOO                 ",
"                   XOOO  ...OOOOO                                    XOOO  ...OOOOO                                    XOOO  ...OOOOO                                    XOOO  ...OOOOO                 ",
"                 XXX OO  .. OO OO                                  XXX OO  .. OO OO                                  XXX OO  .. OO OO                                  XXX OO  .. OO OO                 ",
"                +++  OO  .. OO OO                                 +++  OO  .. OO OO                                 +++  OO  .. OO OO                                 +++  OO  .. OO OO                 ",
"                      ++  ..OO OO                                       ++  ..OO OO                                       ++  ..OO OO                                       ++  ..OO OO                 ",
"                                                                                                                                                                                                        ",
"                                                                                                                                                                                                        ",
"                                                                                                                                                                                                        ",
"                                                                                                                                                                                                        ",
"                                                                                                                                                                                                        ",
"                                                                                                                                                                                                        ",
"                                                                                                                                                                                                        ",
"                                                                                                                                                                                                        ",
"                                                                                                                                                                                                        ",
"                                                                                                                                                                                                        ",
"                                                                                                                                                                                                        ",
"                                                                                                                                                                                                        ",
"                                                                                                                                                                                                        ",
"                                                                                                                                                                                                        ",
"                                                                                                                                                                                                        ",
"                                                                                                                                                                                                        ",
"                                                                                                                                                                                                        ",
"                                                                                                                                                                                                        "
};
