/* XPM */
static char *result[] = {
/* columns rows colors chars-per-pixel */
"64 64 48 1 ",
"  c #DEA68D",
". c #DEA78D",
"X c #DEA88D",
"o c #DFAA8D",
"O c #DFAB8D",
"+ c #DFAC8D",
"@ c #DFAD8D",
"# c #E0AD8D",
"$ c #E0AE8D",
"% c #E0AF8D",
"& c #E0B08D",
"* c #E0B18D",
"= c #E1B18D",
"- c #E1B28D",
"; c #E1B38D",
": c #E1B48D",
"> c #E1B58D",
", c #E2B58D",
"< c #E2B68D",
"1 c #E2B78D",
"2 c #E2B88D",
"3 c #E3B98D",
"4 c #E3BA8D",
"5 c #E3BB8D",
"6 c #E3BC8D",
"7 c #E4BC8D",
"8 c #E4BD8D",
"9 c #E4BE8D",
"0 c #E4BF8D",
"q c #E5C08D",
"w c #E5C18D",
"e c #E5C28D",
"r c #E5C38D",
"t c #E6C38D",
"y c #E6C48D",
"u c #E6C58D",
"i c #E6C68D",
"p c #E6C78D",
"a c #E7C78D",
"s c #E7C88D",
"d c #E7C98D",
"f c #E7CA8D",
"g c #E8CA8D",
"h c #E8CB8D",
"j c #E8CC8D",
"k c #E8CD8D",
"l c #E9CE8D",
"z c #E9CF8D",
/* pixels */
"hhhhhhhhhhhhhhhhhhhhhhhhhhhhhhhhhhhhhhhhhhhhhhhhhhhhhhhhhhhhhhhh",
"hhhhhhhhhhhhhhhhhhhhhhhhhhhhhhhhhhhhhhhhhhhhhhhhhhhhhhhhhhhhhhhh",
"hhhhhhhhhhhhhhhhhhhhhhhhhhhhhhhhhhhhhhhhhhhhhhhhhhhhhhhhhhhhhhhh",
"hhhhhhhhhhhhhhhhhhhhhhhhhhhhhhhhhhhhhhhhhhhhhhhhhhhhhhhhhhhhhhhh",
"hhhhhhhhhhhhhhhhhhhhhhhhhhhhhhhhhhhhhhhhhhhhhhhhhhhhhhhhhhhhhhhh",
"hhhhhhhhhhhhhhhhhhhhhhhhhhhhhhhhhhhhhhhhhhhhhhhhhhhhhhhhhhhhhhhh",
"hhhhhhhhhhhhhhhhhhhhhhhhhhhhhhhhhhhhhhhhhhhhhhhhhhhhhhhhhhhhhhhh",
"hhhhhhhhhhhhhhhhhhhhhhhhhhhhhhhhhhhhhhhhhhhhhhhhhhhhhhhhhhhhhhhh",
"hhhhhhhhhhhhhhhhhhhhhhhhhhhhhhhhhhhhhhhhhhhhhhhhhhhhhhhhhhhhhhhh",
"hhhhhhhhhhhhhhhhhhhgfghhhhhhhhhhhhhhhhhhhhhhhhhhhhhhhhhhhhhhhhhh",
"hhhhhhhhhhhhhhhhhhhjjjhhhhhhhhhhhhhhhhhhhhhhhhhhhhhhhhhhhhhhhhhh",
"hhhhhhhhhhhhhhhhhhhauphhhhhhhhhhhhhhhhhhhhhhhhhhhhhhhhhhhhhhhhhh",
"hhhhhhhhhhhhhhhhggj3O<jghhhhhhhhhhhhhhhhhhhhhhhhhhhhhhhhhhhhhhhh",
"hhhhhhhhhhhhhhhhhhhsashhhhhhhhhhhhhhhhhhhhhhhhhhhhhhhhhhhhhhhhhh",
"hhhhgfffghhhhhhhhhhhjhhhhhhhhhhhhhhhhhhhhhhhhhhhhhhhhgffhhhhhhhh",
"hhhfhkkkhfhhhhhhhhhggghhhhhhhhhhhhhhhhhhhhhhhhhhhhhhfhlkgfhhhhhh",
"hhfjswerdjghhhhhhhhhhhhhhhhhhhhhhhhhhhhhhhhhhhhhhhhgjswehhghhhhh",
"hhfh0&*@0hghhhhhhhhhhhhhhhhhhhhhhhhhhhhhhhhhhhhhhhhhg0$-yhghhhhh",
"ggl41fs&+9jfhhhhhhhhhhhhhhhhhhhhhhhhhhhhhhhhhhhhhhgj4<ha=ejghhhh",
"hh14djjs=2lfhhhhhhhhhhhhhhhhhhhhhhhhhhhhhhhhhhhhhhhhiikhushhhhhh",
"hhqikfgjryjghhhhhhhhhhhhhhhhhhhhhhhhhhhhhhhhhhhhhhhgjjfgjhhhhhhh",
"hhkjfhhgjjghhhhhhhhhhhhhhhhhhhhhhhhhhhhhhhhhhhhhhhhhgghhgffghhhh",
"hhfghhhhgghhhhhhhhhhhhhhhhhhhhhhhhhhhhhhhhhhhhhhhhhhhhhhhhjhhhhh",
"hhhhhhhhhhhhhhhhhhhhhhhhhhhhhhhhhhhhhhhhhhhhhhhhhhhhhhhhhfdfhhhh",
"hhhhhhhhhhhhhhhhhhhhhhhhhhhhhhhhhhhhhhhhhhhhhhhhhhhhhhhfj4$3jghh",
"hhhhhhhhhhhhhhhhhhhhhhhhhhhhhhhhhhhhhhhhhhhhhhhhhhhhhhhghy0thghh",
"hhhhhhhhhhhhhhhhhhhhhhhhhhhhhhhhhhhhhhhhhhhhhhhhhhhhhhhhgjkjghhh",
"hhhhhhhhhhhhhhhhhhhhhhhhhhhhhhhhhhhhhhhhhhhhhhhhhhhhhhhhhggghhhh",
"hhhhhhhhhhhhhhhhhhhhhhhhhhhhhhhhhhhhhhhhhhhhhhhhhhhhhhhhhhhhhhhh",
"hhhhhhhhhhhhhhhhhhhhhhhhhhhhhhhhhhhhhhhhhhhhhhhhhhhhhhhhhhhhhhhh",
"hhhhhhhhhhhhhhhhhhhhhhhhhhhhhhhhhhhhhhhhhhhhhhhhhhhhhhhhhhhhhhhh",
"hhhhhhhhhhhhhhhhhhhhhhhhhhhhhhhhhhhhhhhhhhhhhhhhhhhhhhhhhhhhhhhh",
"hhhhhhhhhhhhhhhhhhhhhhhhhhhhhhhhhhhhhhhhhhhhhhhhhhhhhhhhhhhhhhhh",
"hhhhhhhhhhhhhhhhhhhhhhhhhhhhhhhhhhhhhhhhhhhhhhhhhhhhhhhhhhhhhhhh",
"hhhhhhhhhhhhhhhhhhhhhhhhhhhhhhhhhhhhhhhhhhhhhhhhhhhhhhhhhhhhhhhh",
"hhhhhhhhhhhhjjjjhgghhhhhhhhhhhhhhhhhhhhhhhhhhhhhhhhhhhhhhhhhhhhh",
"hhhhhhhhhfhd22426jjfhhhhhhhhhhhhhhhhhhhhhhhhhhhhhhhhhhhhhhhhhhhh",
"hhhhhhhhhghd5+XXO6shghhhhhhhhhhhhhhhhhhhhhhhhhhhhhhhhhhhhhhhhhhh",
"hhhhhhhhhhghl8<2<,pjfhhhhhhhhhhhhhhhhhhhhhhhhhhhhhhhhhhhhhhhhhhh",
"hhhhhhhhhhhhfhhhhjhhhhhhhhhhhhhhhhhhhhhhhhhhhhhhhhhhhhhhhhhhhhhh",
"hhhhhhhhhhhhhhhhhhhhhhhhhgfgfgfghhhhhhhhhhhhhhhhhhhgghhhhhhhhhhh",
"hhhhhhhhhhhhhggggghhhhhhgjkkkkkjghhhhhhhhhhhhhhhhhhjhfghhhhhhhhh",
"hhhhhhhhhhhhhhhhhhhhhhggky34444ejghhhhhhhhhhhhhhhhh8uzjhhhhhhhhh",
"hhgffghhhhhhhhhhhhhhhhhgi>#<<<+1kfhhhhhhhhhhhhhhhhh=<wehhghhhhhh",
"hhhhhhhhhhhhhhhhhhhhhghh, 5zkl75kfhhhhhhhhhhhhhhhhh:$%<ghghhhhhh",
"hhfffffhhhhhhhhhhhhhhghh2o4hffdfhhhhhhhhhhhhhhhhhhh;8jdhhhhhhhhh",
"hh2-:2khghhhhhhhhhhhhhhhia9:fhhhhhhhhhhhhhhhhhhhhhhidjhhhhhhhhhh",
"hht-.O<shghhhhhhhhhhhhhhhkaqghfghhhhhhhhhhhhhhhhhhhjhfghhhhhhhhh",
"ghkt564shghhhhhhhhhhhhhhgfhkhhhhhhhhhhhhhhhhhhhhhhhfghhhhhhhhhhh",
"hhghjjkhghhhhhhhhhhhhhhhhhhghhhhhhhhhhhhhhhhhhhhhhhhhhhhhhhhhhhh",
"hhhgggghhhhhhhhhhhhhhhhhhhhhhhhhhhhhhhhhhhhhhhhhhhhhhhhhhhhhhhhh",
"hhhhhhhhhhhhhhhhhhhhhhhhhhhhhhhhhhhhhhhhhhhhhhhhhhhhhhhhhhhhhhhh",
"hhhhhhhhhhhhhhhhhhhhhhhhhhhhhhhhhhhhhhhhhhhhhhhhhhhhhhhhhhhhhhhh",
"hhhhhhhhhhhhhhhhhhhhhhhhhhhhhhhhhhhhhhhhhhhhhhhhhhhhhhhhhhhhhhhh",
"hhhhhhhhhhhhhhhhhhhhhhhhhhhhhhhhhhhhhhhhhhhhhhhhhhhhhhhhhhhhhhhh",
"hhhhhhhhhhhhhhhhhhhhhhhhhhhhhhhhhhhhhhhhhhhhhhhhhhhhhhhhhhhhhhhh",
"hhhhhhhhhhhhhhhhhhhhhhhhhhhhhhhhhhhhhhhhhhhhhhhhhhhhhhhhhhhhhhhh",
"hhhhhhhhhhhhhhhhhhhhhhhhhhhhhhhhhhhhhhhhhhhhhhhhhhhhhhhhhhhhhhhh",
"hhhhhhhhhhhhhhhhhhhhhhhhhhhhhhhhhhhhhhhhhhhhhhhhhhhhhhhhhhhhhhhh",
"hhhhhhhhhhhhhhhhhhhhhhhhhhhhhhhhhhhhhhhhhhhhhhhhhhhhhhhhhhhhhhhh",
"hhhhhhhhhhhhhhhhhhhhhhhhhhhhhhhhhhhhhhhhhhhhhhhhhhhhhhhhhhhhhhhh",
"hhhhhhhhhhhhhhhhhhhhhhhhhhhhhhhhhhhhhhhhhhhhhhhhhhhhhhhhhhhhhhhh",
"hhhhhhhhhhhhhhhhhhhhhhhhhhhhhhhhhhhhhhhhhhhhhhhhhhhhhhhhhhhhhhhh",
"hhhhhhhhhhhhhhhhhhhhhhhhhhhhhhhhhhhhhhhhhhhhhhhhhhhhhhhhhhhhhhhh"
};
