/* XPM */
static char *result[] = {
/* columns rows colors chars-per-pixel */
"64 64 187 2 ",
"   c #00004F",
".  c #000050",
"X  c #1F0050",
"o  c #360053",
"O  c #000066",
"+  c #090067",
"@  c #1A0967",
"#  c #001F66",
"$  c #08116E",
"%  c #230C6C",
"&  c #2A0967",
"*  c #2C1C6A",
"=  c #25166A",
"-  c #3A1F67",
";  c #341A68",
":  c #09256B",
">  c #1E356D",
",  c #2D246B",
"<  c #3D2367",
"1  c #342469",
"2  c #3C256A",
"3  c #37276B",
"4  c #393E7D",
"5  c #79006A",
"6  c #422667",
"7  c #422769",
"8  c #442A69",
"9  c #4A2D6C",
"0  c #492C62",
"q  c #522B6A",
"w  c #572667",
"e  c #44326E",
"r  c #4C336D",
"t  c #55336D",
"y  c #5A366C",
"u  c #5A3A6B",
"i  c #4A2D71",
"p  c #462770",
"a  c #4C3373",
"s  c #4D3B75",
"d  c #533472",
"f  c #533A75",
"g  c #5D3C72",
"h  c #5A3879",
"j  c #543D79",
"k  c #663C6D",
"l  c #603773",
"z  c #693D71",
"x  c #7C3C73",
"c  c #773573",
"v  c #374472",
"b  c #4B406C",
"n  c #5A437B",
"m  c #5E4474",
"M  c #554567",
"N  c #634473",
"B  c #6D4274",
"V  c #65467E",
"C  c #7A4476",
"Z  c #754C76",
"A  c #7A4775",
"S  c #65547E",
"D  c #775071",
"F  c #7C5474",
"G  c #7A5675",
"H  c #674668",
"J  c #AE0043",
"K  c #91196A",
"L  c #8B2E6C",
"P  c #863172",
"I  c #9D3E76",
"U  c #A7316F",
"Y  c #AB3370",
"T  c #B93973",
"R  c #C23D75",
"E  c #A45C50",
"W  c #BF7D5B",
"Q  c #895462",
"!  c #925B66",
"~  c #824A76",
"^  c #854C78",
"/  c #8A4074",
"(  c #865B77",
")  c #84547A",
"_  c #8A537A",
"`  c #8C5E7D",
"'  c #855578",
"]  c #945B7B",
"[  c #974577",
"{  c #AC477A",
"}  c #A24376",
"|  c #BB4176",
" . c #BB467A",
".. c #92647C",
"X. c #9A637B",
"o. c #9B697B",
"O. c #9C6C77",
"+. c #907679",
"@. c #897079",
"#. c #A26B7D",
"$. c #A56B7E",
"%. c #AC737E",
"&. c #B0747E",
"*. c #C37954",
"=. c #C94377",
"-. c #D04A7A",
";. c #DE507D",
":. c #A8837F",
">. c #CA8963",
",. c #D18D62",
"<. c #CE9B79",
"1. c #4C3680",
"2. c #38568E",
"3. c #574785",
"4. c #445185",
"5. c #435F93",
"6. c #5A598B",
"7. c #644D82",
"8. c #675185",
"9. c #6A5385",
"0. c #6B5488",
"q. c #7B5F8A",
"w. c #725A85",
"e. c #665590",
"r. c #506396",
"t. c #786B8F",
"y. c #6D6790",
"u. c #7F6493",
"i. c #BC4B80",
"p. c #9A6980",
"a. c #9D6F8E",
"s. c #856997",
"d. c #8C6D9C",
"f. c #836697",
"g. c #8C709F",
"h. c #906E8F",
"j. c #A26E83",
"k. c #AE7380",
"l. c #B67C81",
"z. c #B97D82",
"x. c #B17681",
"c. c #A27B9A",
"v. c #9273A1",
"b. c #E85B83",
"n. c #F45F86",
"m. c #A58981",
"M. c #AE8680",
"N. c #BD8282",
"B. c #BB9D91",
"V. c #B89A86",
"C. c #A182A7",
"Z. c #B79FB3",
"A. c #B1A5BE",
"S. c #C28684",
"D. c #C68A84",
"F. c #CB8D86",
"G. c #CE9086",
"H. c #D19287",
"J. c #D39388",
"K. c #D8978A",
"L. c #C6A794",
"P. c #EABA88",
"I. c #E0BD96",
"U. c #D5A1BB",
"Y. c #D9BCB6",
"T. c #E6C197",
"R. c #EBC496",
"E. c #EAC599",
"W. c #EEC89A",
"Q. c #F2CC9B",
"!. c #F4CD97",
"~. c #F6D09E",
"^. c #FBD39D",
"/. c #FDD6A2",
"(. c #AE9FCB",
"). c #B7AAC3",
"_. c #B8ABC4",
"`. c #BDB0C9",
"'. c #D2B2CD",
"]. c #D3C3DB",
"[. c #EFD4E8",
"{. c #E6D9F1",
"}. c #F5E9FC",
"|. c #FBEEFF",
" X c #F2E4F6",
".X c #FEF3FF",
"XX c None",
/* pixels */
"XXXXXXXXXXXXXXXXXXXXXXXXXXXXXXXXXXXXXXXXXXXXXXXXXXXXXXXXXXXXXXXXXXXXXXXXXXXXXXXXXXXXXXXXXXXXXXXXXXXXXXXXXXXXXXXXXXXXXXXXXXXXXXXX",
"XXXXXXXXXXXXXXXXXXXXXXXXXXXXXXXXXXXXXXXXXXXXXXXXXXXXXXXXXXXXXXXXXXXXXXXXXXXXXXXXXXXXXXXXXXXXXXXXXXXXXXXXXXXXXXXXXXXXXXXXXXXXXXXX",
"XXXXXXXXXXXXXXXXXXXXXXXXXXXXXXXXXXXXXXXXXXXXXXXXXXXXXXXXXXXXXXXXXXXXXXXXXXXXXXXXXXXXXXXXXXXXXXXXXXXXXXXXXXXXXXXXXXXXXXXXXXXXXXXX",
"XXXXXXXXXXXXXXXXXXXXXXXXXXXXXXXXXXXXXXXXXXXXXXXXXXXXXXXXXXXXXXXXXXXXXXXXXXXXXXXXXXXXXXXXXXXXXXXXXXXXXXXXXXXXXXXXXXXXXXXXXXXXXXXX",
"XXXXXXXXXXXXXXXXXXXXXXXXXXXXXXXXXXXXXXXXXXXXXXXXXXXXXXXXXXXXXXXXXXXXXXXXXXXXXXXXXXXXXXXXXXXXXXXXXXXXXXXXXXXXXXXXXXXXXXXXXXXXXXXX",
"XXXXXXXXXXXXXXXXXXXXXXXXXXXXXXXXXXXXXXXXXXXXXXXXXXXXXXXXXXXXXXXXXXXXXXXXXXXXXXXXXXXXXXXXXXXXXXXXXXXXXXXXXXXXXXXXXXXXXXXXXXXXXXXX",
"XXXXXXXXXXXXXXXXXXXXXXXXXXXXXXXXXXXXXXXXXXXXXXXXXXXXXXXXXXXXXXXXXXXXXXXXXXXXXXXXXXXXXXXXXXXXXXXXXXXXXXXXXXXXXXXXXXXXXXXXXXXXXXXX",
"XXXXXXXXXXXXXXXXXXXXXXXXXXXXXXXXXXXXXXXXXXXXXXXXXXXXXXXXXXXXXXXXXXXXXXXXXXXXXXXXXXXXXXXXXXXXXXXXXXXXXXXXXXXXXXXXXXXXXXXXXXXXXXXX",
"XXXXXXXXXXXXXXXXXXXXXXXXXXXXXXXXXXXXXXXXXXXXXXXXXXXXXXXX, 1 2 e e 3 , 1 XXXXXXXXXXXXXXXXXXXXXXXXXXXXXXXXXXXXXXXXXXXXXXXXXXXXXXXX",
"XXXXXXXXXXXXXXXXXXXXXXXXXXXXXXXXXXXXXXXXXXXXXXXXXXXXXXG p.( Z l l Z G p.Z XXXXXXXXXXXXXXXXXXXXXXXXXXXXXXXXXXXXXXXXXXXXXXXXXXXXXX",
"XXXXXXXXXXXXXXXXXXXXXXXXXXXXXXXXXXXXXXXXXXXXXXXXXXXX* j.J.J.x.^ ^ l.J.K.o.@ XXXXXXXXXXXXXXXXXXXXXXXXXXXXXXXXXXXXXXXXXXXXXXXXXXXX",
"XXXXXXXXXXXXXXXXXXXXXXXXXXXXXXXXXXXXXXXXXXXXXXXXXXXX+ X.G.G.j.C C k.G.G...O XXXXXXXXXXXXXXXXXXXXXXXXXXXXXXXXXXXXXXXXXXXXXXXXXXXX",
"XXXXXXXXXXXXXXXXXXXXXXXXXXXXXXXXXXXXXXXXXXXXXXXXXXXXq $.H.G.z.#.j.z.F.J.#.q XXXXXXXXXXXXXXXXXXXXXXXXXXXXXXXXXXXXXXXXXXXXXXXXXXXX",
"XXXXXXXXXXXXXXXXXXXXXXXXXXXXXXXXXXXXXXXXXXXXXXr i d ~ x.H.G.G.G.G.G.F.G.k.C d i r XXXXXXXXXXXXXXXXXXXXXXXXXXXXXXXXXXXXXXXXXXXXXX",
"XXXXXXXXXXXXXXXXXXXXXXXXXXXXXXXXXXXXXXXXXXXX* N.D.N.D.k._ D.F.F.F.F.D._ k.F.N.S.z.+ XXXXXXXXXXXXXXXXXXXXXXXXXXXXXXXXXXXXXXXXXXXX",
"XXXXXXXXXXXXXXXXXXXXXXXXXXXXXXXXXXXXXXXXXXG p.D.G.G.G.z.$.F.F.F.F.G.F.#.z.J.G.H.D.p.D XXXXXXXXXXXXXXXXXXXXXXXXXXXXXXXXXXXXXXXXXX",
"XXXXXXXXXXXXXXXXXXXXXXXXXXXXXXXXXXXXXXXX= ..K.F.D.G.F.G.H.F.F.G.F.F.F.G.F.F.F.F.G.K.p.= XXXXXXXXXXXXXXXXXXXXXXXXXXXXXXXXXXXXXXXX",
"XXXXXXXXXXXXXXXXXXXXXXXXXXXXXXXXXXXXXXXX% ..J.F.F.G.F.F.F.F.G.G.G.F.G.F.F.G.F.F.F.J.( = XXXXXXXXXXXXXXXXXXXXXXXXXXXXXXXXXXXXXXXX",
"XXXXXXXXXXXXXXXXXXXXXXXXXXXXXXXXXXXXXXXX; ' z.F.H.G.G.G.G.H.G.G.F.G.F.G.G.F.G.G.D.z.F 1 XXXXXXXXXXXXXXXXXXXXXXXXXXXXXXXXXXXXXXXX",
"XXXXXXXXXXXXXXXXXXXXXXXXXXXXXXXXXXXXXXXX8 y ~ S.D.D.D.D.D.D.D.D.D.F.F.F.F.D.D.F.S.~ y e XXXXXXXXXXXXXXXXXXXXXXXXXXXXXXXXXXXXXXXX",
"XXXXXXXXXXXXXXXXXXXXXXXXXXXXXXXXXXXXXXXXXXXXh g m u y y u u u u a 9 r N g u u g h h XXXXXXXXXXXXXXXXXXXXXXXXXXXXXXXXXXXXXXXXXXXX",
"XXXXXXXXXXXXXXXXXXXXXXXXXXXXXXXXXXXXXXXXXXXXXXXX2 7 s f s f e t Q ! Q XX& ; 7 e XXXXXXXXXXXXXXXXXXXXXXXXXXXXXXXXXXXXXXXXXXXXXXXX",
"XXXXXXXXXXXXXXXXXXXXXXXXXXXXXXXXXXXXXXXXXXXXXXXXXXa 8.8.8.7.0.f.>.,.>.XXG N 9 XXXXXXXXXXXXXXXXXXXXXXXXXXXXXXXXXXXXXXXXXXXXXXXXXX",
"XXXXXXXXXXXXXXXXXXXXXXXXXXXXXXXXXXXXXXXXXXXXXXXXXXa V 7.9.1.B.~.R.W.W.W.Q.I.9 XXXXXXXXXXXXXXXXXXXXXXXXXXXXXXXXXXXXXXXXXXXXXXXXXX",
"XXXXXXXXXXXXXXXXXXXXXXXXXXXXXXXXXXXXXXXXXXXXXXXXXXi 7.7.9.3.:.P.!.Q.Q./.P.<.i XXXXXXXXXXXXXXXXXXXXXXXXXXXXXXXXXXXXXXXXXXXXXXXXXX",
"XXXXXXXXXXXXXXXXXXXXXXXXXXXXXXXXXXXXXXXXXXXXXXXXXXd 7.7.9.3.! *.T.R.T.W.<.E e XXXXXXXXXXXXXXXXXXXXXXXXXXXXXXXXXXXXXXXXXXXXXXXXXX",
"XXXXXXXXXXXXXXXXXXXXXXXXXXXXXXXXXXXXXXXXXXXXXXXXXX: 7 n 9.7.9.w.w.w.q.C.q.0 XXXXXXXXXXXXXXXXXXXXXXXXXXXXXXXXXXXXXXXXXXXXXXXXXXXX",
"XXXXXXXXXXXXXXXXXXXXXXXXXXXXXXXXXXXXXXXXXXXXXXXX[  .9 8 d r s s s s s 0.n - XXXXXXXXXXXXXXXXXXXXXXXXXXXXXXXXXXXXXXXXXXXXXXXXXXXX",
"XXXXXXXXXXXXXXXXXXXXXXXXXXXXXXXXXXXXXXXXXXXXXX8 i.n.q f S S N q q q w w q 8 XXXXXXXXXXXXXXXXXXXXXXXXXXXXXXXXXXXXXXXXXXXXXXXXXXXX",
"XXXXXXXXXXXXXXXXXXXXXXXXXXXXXXXXXXXXXXXXXXXX9 b.;.| o A.|.|.U.J =.T T T P , XXXXXXXXXXXXXXXXXXXXXXXXXXXXXXXXXXXXXXXXXXXXXXXXXXXX",
"XXXXXXXXXXXXXXXXXXXXXXXXXXXXXXXXXXXXXXXXXXXXa -.| x X _..X|.[.'./ U T ;.I : XXXXXXXXXXXXXXXXXXXXXXXXXXXXXXXXXXXXXXXXXXXXXXXXXXXX",
"XXXXXXXXXXXXXXXXXXXXXXXXXXXXXXXXXXXXXXXXXXXX9 Y L > . )..X}..X Xv L R n.{ # XXXXXXXXXXXXXXXXXXXXXXXXXXXXXXXXXXXXXXXXXXXXXXXXXXXX",
"XXXXXXXXXXXXXXXXXXXXXXXXXXXXXXXXXXXXXXXXXXXXd 9 9 f   _..X}..X X$ K =.n.{ : XXXXXXXXXXXXXXXXXXXXXXXXXXXXXXXXXXXXXXXXXXXXXXXXXXXX",
"XXXXXXXXXXXXXXXXXXXXXXXXXXXXXXXXXXXXXXXXXXXXXXXXXXXX  `..X|.{.'.L.O.5 } c 3 XXXXXXXXXXXXXXXXXXXXXXXXXXXXXXXXXXXXXXXXXXXXXXXXXXXX",
"XXXXXXXXXXXXXXXXXXXXXXXXXXXXXXXXXXXXXXXXXXXXXXXXXXXX  A. X X].Z./.V.b M r 8 XXXXXXXXXXXXXXXXXXXXXXXXXXXXXXXXXXXXXXXXXXXXXXXXXXXX",
"XXXXXXXXXXXXXXXXXXXXXXXXXXXXXXXXXXXXXXXXXXXXXXXXXXXXXXXXn (.Y.Q.W.W.R.*.Q = XXXXXXXXXXXXXXXXXXXXXXXXXXXXXXXXXXXXXXXXXXXXXXXXXXXX",
"XXXXXXXXXXXXXXXXXXXXXXXXXXXXXXXXXXXXXXXXXXXXXXXXXXXXXXXXf e.L./.W.Q.W.P.m.O XXXXXXXXXXXXXXXXXXXXXXXXXXXXXXXXXXXXXXXXXXXXXXXXXXXX",
"XXXXXXXXXXXXXXXXXXXXXXXXXXXXXXXXXXXXXXXXXXXXXXXXXXXXXXXXf O m.I.W.Q.W.E.m.O XXXXXXXXXXXXXXXXXXXXXXXXXXXXXXXXXXXXXXXXXXXXXXXXXXXX",
"XXXXXXXXXXXXXXXXXXXXXXXXXXXXXXXXXXXXXXXXXXXXXXXXXXXXXXXXi r.v H Q.^.E.p XXXXXXXXXXXXXXXXXXXXXXXXXXXXXXXXXXXXXXXXXXXXXXXXXXXXXXXX",
"XXXXXXXXXXXXXXXXXXXXXXXXXXXXXXXXXXXXXXXXXXXXXXXXXXXXXXXXa 5.2.4.@.+.@.8 1 XXXXXXXXXXXXXXXXXXXXXXXXXXXXXXXXXXXXXXXXXXXXXXXXXXXXXX",
"XXXXXXXXXXXXXXXXXXXXXXXXXXXXXXXXXXXXXXXXXXXXXXXXXXXXXXXXa 6.y.t.z k k t Z D XXXXXXXXXXXXXXXXXXXXXXXXXXXXXXXXXXXXXXXXXXXXXXXXXXXX",
"XXXXXXXXXXXXXXXXXXXXXXXXXXXXXXXXXXXXXXXXXXXXXXXXXXXXXXXXd x %.J.H.J.G.~ z.D.% XXXXXXXXXXXXXXXXXXXXXXXXXXXXXXXXXXXXXXXXXXXXXXXXXX",
"XXXXXXXXXXXXXXXXXXXXXXXXXXXXXXXXXXXXXXXXXXXXXXXXXXXXXXXXd z.D.F.H.%.F ~ l.D.N.( XXXXXXXXXXXXXXXXXXXXXXXXXXXXXXXXXXXXXXXXXXXXXXXX",
"XXXXXXXXXXXXXXXXXXXXXXXXXXXXXXXXXXXXXXXXXXXXXXXXXXXXXXd B D.G.D.N.F & ~ %.D.D.k.N XXXXXXXXXXXXXXXXXXXXXXXXXXXXXXXXXXXXXXXXXXXXXX",
"XXXXXXXXXXXXXXXXXXXXXXXXXXXXXXXXXXXXXXXXXXXXXXXXXXp 1 z ] F.J.D.8 < t ^ ^ ^ x &.D.; 8 9 XXXXXXXXXXXXXXXXXXXXXXXXXXXXXXXXXXXXXXXX",
"XXXXXXXXXXXXXXXXXXXXXXXXXXXXXXXXXXXXXXXXXXXXXXXXl x A A ~ ] #.X.9 7 0 y A _ ~ a.c.s.V < XXXXXXXXXXXXXXXXXXXXXXXXXXXXXXXXXXXXXXXX",
"XXXXXXXXXXXXXXXXXXXXXXXXXXXXXXXXXXXXXXXXXXXXXX< B p.^ ] #.] ) z 9 8 8 1 B _ A f.d.v.7.< XXXXXXXXXXXXXXXXXXXXXXXXXXXXXXXXXXXXXXXX",
"XXXXXXXXXXXXXXXXXXXXXXXXXXXXXXXXXXXXXXXXXXXXXX8 f 9.C &.H.K.O.@ 9 8 8 < A ) 7.7.7.7.j 9 XXXXXXXXXXXXXXXXXXXXXXXXXXXXXXXXXXXXXXXX",
"XXXXXXXXXXXXXXXXXXXXXXXXXXXXXXXXXXXXXXXXXXXXe 6 j 0.d.c.c.G u 7 8 8 8 < q g 7.9.7.f XXXXXXXXXXXXXXXXXXXXXXXXXXXXXXXXXXXXXXXXXXXX",
"XXXXXXXXXXXXXXXXXXXXXXXXXXXXXXXXXXXXXXXXXXa i 6 d V u.d.d.2 < 8 8 8 8 8 2 9 n n n 8 XXXXXXXXXXXXXXXXXXXXXXXXXXXXXXXXXXXXXXXXXXXX",
"XXXXXXXXXXXXXXXXXXXXXXXXXXXXXXXXXXXXXXXXe i 8 8 2 9 n u.v.t 8 8 8 8 8 8 9 8 6 6 7 8 i r XXXXXXXXXXXXXXXXXXXXXXXXXXXXXXXXXXXXXXXX",
"XXXXXXXXXXXXXXXXXXXXXXXXXXXXXXXXXXXXXXXX9 9 8 8 8 8 r f j 8 8 7 8 8 8 8 8 8 8 8 8 8 i a XXXXXXXXXXXXXXXXXXXXXXXXXXXXXXXXXXXXXXXX",
"XXXXXXXXXXXXXXXXXXXXXXXXXXXXXXXXXXXXXXXXXX9 8 8 8 8 8 < < 8 8 8 6 8 8 8 8 8 8 8 8 8 8 XXXXXXXXXXXXXXXXXXXXXXXXXXXXXXXXXXXXXXXXXX",
"XXXXXXXXXXXXXXXXXXXXXXXXXXXXXXXXXXXXXXXXXXXX9 8 8 8 8 8 8 8 8 7 8 8 8 6 7 8 7 8 7 9 XXXXXXXXXXXXXXXXXXXXXXXXXXXXXXXXXXXXXXXXXXXX",
"XXXXXXXXXXXXXXXXXXXXXXXXXXXXXXXXXXXXXXXXXXXXXX9 i 9 i i i 9 i i i 9 9 i i i i i 9 XXXXXXXXXXXXXXXXXXXXXXXXXXXXXXXXXXXXXXXXXXXXXX",
"XXXXXXXXXXXXXXXXXXXXXXXXXXXXXXXXXXXXXXXXXXXXXXXX8 8 8 8 8 8 8 8 8 8 8 8 8 8 8 8 XXXXXXXXXXXXXXXXXXXXXXXXXXXXXXXXXXXXXXXXXXXXXXXX",
"XXXXXXXXXXXXXXXXXXXXXXXXXXXXXXXXXXXXXXXXXXXXXXXXXXXXXXXXXXXXXXXXXXXXXXXXXXXXXXXXXXXXXXXXXXXXXXXXXXXXXXXXXXXXXXXXXXXXXXXXXXXXXXXX",
"XXXXXXXXXXXXXXXXXXXXXXXXXXXXXXXXXXXXXXXXXXXXXXXXXXXXXXXXXXXXXXXXXXXXXXXXXXXXXXXXXXXXXXXXXXXXXXXXXXXXXXXXXXXXXXXXXXXXXXXXXXXXXXXX",
"XXXXXXXXXXXXXXXXXXXXXXXXXXXXXXXXXXXXXXXXXXXXXXXXXXXXXXXXXXXXXXXXXXXXXXXXXXXXXXXXXXXXXXXXXXXXXXXXXXXXXXXXXXXXXXXXXXXXXXXXXXXXXXXX",
"XXXXXXXXXXXXXXXXXXXXXXXXXXXXXXXXXXXXXXXXXXXXXXXXXXXXXXXXXXXXXXXXXXXXXXXXXXXXXXXXXXXXXXXXXXXXXXXXXXXXXXXXXXXXXXXXXXXXXXXXXXXXXXXX",
"XXXXXXXXXXXXXXXXXXXXXXXXXXXXXXXXXXXXXXXXXXXXXXXXXXXXXXXXXXXXXXXXXXXXXXXXXXXXXXXXXXXXXXXXXXXXXXXXXXXXXXXXXXXXXXXXXXXXXXXXXXXXXXXX",
"XXXXXXXXXXXXXXXXXXXXXXXXXXXXXXXXXXXXXXXXXXXXXXXXXXXXXXXXXXXXXXXXXXXXXXXXXXXXXXXXXXXXXXXXXXXXXXXXXXXXXXXXXXXXXXXXXXXXXXXXXXXXXXXX",
"XXXXXXXXXXXXXXXXXXXXXXXXXXXXXXXXXXXXXXXXXXXXXXXXXXXXXXXXXXXXXXXXXXXXXXXXXXXXXXXXXXXXXXXXXXXXXXXXXXXXXXXXXXXXXXXXXXXXXXXXXXXXXXXX",
"XXXXXXXXXXXXXXXXXXXXXXXXXXXXXXXXXXXXXXXXXXXXXXXXXXXXXXXXXXXXXXXXXXXXXXXXXXXXXXXXXXXXXXXXXXXXXXXXXXXXXXXXXXXXXXXXXXXXXXXXXXXXXXXX"
};
