/* XPM */
static char *result[] = {
/* columns rows colors chars-per-pixel */
"64 64 196 2 ",
"   c #000029",
".  c #0F0050",
"X  c #310056",
"o  c #000064",
"O  c #050069",
"+  c #170369",
"@  c #220766",
"#  c #291467",
"$  c #2A1D6D",
"%  c #25176B",
"&  c #341D68",
"*  c #371967",
"=  c #122468",
"-  c #142871",
";  c #2B246C",
":  c #3C2266",
">  c #3C246B",
",  c #3D296B",
"<  c #362269",
"1  c #3F2575",
"2  c #3B356E",
"3  c #430057",
"4  c #401D6A",
"5  c #651662",
"6  c #422566",
"7  c #41276A",
"8  c #442969",
"9  c #4A2D6C",
"0  c #4B2868",
"q  c #522A6A",
"w  c #502164",
"e  c #4C326D",
"r  c #4A3364",
"t  c #54346D",
"y  c #5D356C",
"u  c #5F3C6C",
"i  c #56396B",
"p  c #4A2D72",
"a  c #542E73",
"s  c #4C3474",
"d  c #4C3875",
"f  c #4F3B78",
"g  c #513474",
"h  c #523B74",
"j  c #573977",
"k  c #613C6D",
"l  c #67396F",
"z  c #633D74",
"x  c #6D3D73",
"c  c #733D75",
"v  c #3F437C",
"b  c #2F4576",
"n  c #5A427B",
"m  c #5E4B7A",
"M  c #50476F",
"N  c #62416D",
"B  c #68456F",
"V  c #744866",
"C  c #6B4274",
"Z  c #62457A",
"A  c #604A7F",
"S  c #6A4675",
"D  c #754374",
"F  c #7C4576",
"G  c #7E4976",
"H  c #7D4778",
"J  c #764B7C",
"K  c #76507F",
"L  c #7A6173",
"P  c #87306E",
"I  c #8A3873",
"U  c #8F306E",
"Y  c #AA316F",
"T  c #B93B74",
"R  c #B23872",
"E  c #A43E76",
"W  c #C43D75",
"Q  c #88535E",
"!  c #A65D4F",
"~  c #A45C51",
"^  c #885667",
"/  c #945E6C",
"(  c #814A77",
")  c #844D78",
"_  c #874478",
"`  c #84507B",
"'  c #8A5179",
"]  c #8A5876",
"[  c #965B7B",
"{  c #984376",
"}  c #A34274",
"|  c #BE4277",
" . c #B84A7B",
".. c #8B606D",
"X. c #9F6764",
"o. c #8D6176",
"O. c #926379",
"+. c #9B657B",
"@. c #9B6A7C",
"#. c #936477",
"$. c #95797B",
"%. c #A46B7D",
"&. c #A86E7E",
"*. c #AB727F",
"=. c #A3717B",
"-. c #B37C7F",
";. c #A06A68",
":. c #C37E5A",
">. c #C67E51",
",. c #D94E7C",
"<. c #A4867F",
"1. c #C6815B",
"2. c #CB8458",
"3. c #D19D77",
"4. c #D19470",
"5. c #D3A37E",
"6. c #4E3881",
"7. c #005594",
"8. c #434A82",
"9. c #5E4C83",
"0. c #514083",
"q. c #41548D",
"w. c #435F93",
"e. c #634D82",
"r. c #665085",
"t. c #695285",
"y. c #6F568B",
"u. c #745985",
"i. c #486395",
"p. c #536596",
"a. c #58749B",
"s. c #796187",
"d. c #7D6489",
"f. c #746C90",
"g. c #6E7D9F",
"h. c #696186",
"j. c #707DA6",
"k. c #815982",
"l. c #81628A",
"z. c #886C9A",
"x. c #9D7A8C",
"c. c #AE7380",
"v. c #A97F8B",
"b. c #B47981",
"n. c #B87E82",
"m. c #B07680",
"M. c #E75C83",
"N. c #F15F85",
"B. c #F16086",
"V. c #6A87A8",
"C. c #718FAD",
"Z. c #7291AF",
"A. c #6E94B1",
"S. c #BC8382",
"D. c #B18982",
"F. c #B99987",
"G. c #BA9A89",
"H. c #AE819B",
"J. c #B79A90",
"K. c #A88984",
"L. c #828DA8",
"P. c #9C90B9",
"I. c #A99CB7",
"U. c #A896BC",
"Y. c #A485A7",
"T. c #B5A5BE",
"R. c #B2AFBA",
"E. c #C28684",
"W. c #C68985",
"Q. c #CB8D86",
"!. c #C08988",
"~. c #CE9087",
"^. c #CB9089",
"/. c #D19285",
"(. c #D49489",
"). c #C2A18D",
"_. c #D9B692",
"`. c #E9BB89",
"'. c #D7B8A9",
"]. c #EAC396",
"[. c #EECA9D",
"{. c #ECC699",
"}. c #F3CD9B",
"|. c #F5CD90",
" X c #F7D09C",
".X c #FCD59E",
"XX c #F0CEA4",
"oX c #D6C0CA",
"OX c #D5C8E5",
"+X c #DED1E6",
"@X c #DFD0E9",
"#X c #FAECFE",
"$X c #F5E7FA",
"%X c #FFF3FF",
"&X c white",
"*X c None",
/* pixels */
"*X*X*X*X*X*X*X*X*X*X*X*X*X*X*X*X*X*X*X*X*X*X*X*X*X*X*X*X*X*X*X*X*X*X*X*X*X*X*X*X*X*X*X*X*X*X*X*X*X*X*X*X*X*X*X*X*X*X*X*X*X*X*X*X",
"*X*X*X*X*X*X*X*X*X*X*X*X*X*X*X*X*X*X*X*X*X*X*X*X*X*X*X*X*X*X*X*X*X*X*X*X*X*X*X*X*X*X*X*X*X*X*X*X*X*X*X*X*X*X*X*X*X*X*X*X*X*X*X*X",
"*X*X*X*X*X*X*X*X*X*X*X*X*X*X*X*X*X*X*X*X*X*X*X*X*X*X*X*X*X*X*X*X*X*X*X*X*X*X*X*X*X*X*X*X*X*X*X*X*X*X*X*X*X*X*X*X*X*X*X*X*X*X*X*X",
"*X*X*X*X*X*X*X*X*X*X*X*X*X*X*X*X*X*X*X*X*X*X*X*X*X*X*X*X*X*X*X*X*X*X*X*X*X*X*X*X*X*X*X*X*X*X*X*X*X*X*X*X*X*X*X*X*X*X*X*X*X*X*X*X",
"*X*X*X*X*X*X*X*X*X*X*X*X*X*X*X*X*X*X*X*X*X*X*X*X*X*X*X*X*X*X*X*X*X*X*X*X*X*X*X*X*X*X*X*X*X*X*X*X*X*X*X*X*X*X*X*X*X*X*X*X*X*X*X*X",
"*X*X*X*X*X*X*X*X*X*X*X*X*X*X*X*X*X*X*X*X*X*X*X*X*X*X*X*X*X*X*X*X*X*X*X*X*X*X*X*X*X*X*X*X*X*X*X*X*X*X*X*X*X*X*X*X*X*X*X*X*X*X*X*X",
"*X*X*X*X*X*X*X*X*X*X*X*X*X*X*X*X*X*X*X*X*X*X*X*X*X*X*X*X*X*X*X*X*X*X*X*X*X*X*X*X*X*X*X*X*X*X*X*X*X*X*X*X*X*X*X*X*X*X*X*X*X*X*X*X",
"*X*X*X*X*X*X*X*X*X*X*X*X*X*X*X*X*X*X*X*X*X*X*X*X*X*X*X*X*X*X*X*X*X*X*X*X*X*X*X*X*X*X*X*X*X*X*X*X*X*X*X*X*X*X*X*X*X*X*X*X*X*X*X*X",
"*X*X*X*X*X*X*X*X*X*X*X*X*X*X*X*X*X*X*X*X*X*X*X*X*X*X*X*X*X*X*X*X*X*X*X*X*X*X*X*X*X*X*X*X*X*X*X*X*X*X*X*X*X*X*X*X*X*X*X*X*X*X*X*X",
"*X*X*X*X*X*X*X*X*X*X*X*X*X*X*X*X*X*X*X*X*X*X*X*X*X*X*X*X*X*X*X*X*X*X*X*X*X*X*X*X*X*X*X*X*X*X*X*X*X*X*X*X*X*X*X*X*X*X*X*X*X*X*X*X",
"*X*X*X*X*X*X*X*X*X*X*X*X*X*X*X*X*X*X*X*X*X*X*X*X*X*X*X*Xp & 7 8 7 < > 7 *X*X*X*X*X*X*X*X*X*X*X*X*X*X*X*X*X*X*X*X*X*X*X*X*X*X*X*X",
"*X*X*X*X*X*X*X*X*X*X*X*X*X*X*X*X*X*X*X*X*X*X*X*X*X*X$ O.S.n.+.D D c.n.S.o.*X*X*X*X*X*X*X*X*X*X*X*X*X*X*X*X*X*X*X*X*X*X*X*X*X*X*X",
"*X*X*X*X*X*X*X*X*X*X*X*X*X*X*X*X*X*X*X*X*X*X*X*X*X*X% @.(.(.m.) ) b.(.(.+.@ *X*X*X*X*X*X*X*X*X*X*X*X*X*X*X*X*X*X*X*X*X*X*X*X*X*X",
"*X*X*X*X*X*X*X*X*X*X*X*X*X*X*X*X*X*X*X*X*X*Xg 7 p p # +.Q.Q.c.( ( m.Q.~.O.# p 7 7 e *X*X*X*X*X*X*X*X*X*X*X*X*X*X*X*X*X*X*X*X*X*X",
"*X*X*X*X*X*X*X*X*X*X*X*X*X*X*X*X*X*X*X*Xe < & -.S.S.c &.(.Q.Q.E.!.W.^.(.%.D S.E.*.+ , e *X*X*X*X*X*X*X*X*X*X*X*X*X*X*X*X*X*X*X*X",
"*X*X*X*X*X*X*X*X*X*X*X*X*X*X*X*X*X*X*X*X7 S #.Q./.Q.&.*.n.Q.Q.~.^.Q.Q.n.c.c.~./.W.o.C , *X*X*X*X*X*X*X*X*X*X*X*X*X*X*X*X*X*X*X*X",
"*X*X*X*X*X*X*X*X*X*X*X*X*X*X*X*X*X*X*X*X+ @.(.Q.Q.Q.(.*.H Q.Q.Q.Q.Q.Q.D -.(.Q.Q./.(.] % *X*X*X*X*X*X*X*X*X*X*X*X*X*X*X*X*X*X*X*X",
"*X*X*X*X*X*X*X*X*X*X*X*X*X*X*X*X*X*X*X*X, J +.Q./.Q.Q.W.E.Q.Q.Q.Q.^.Q.E.W.Q.Q./.Q.k.C , *X*X*X*X*X*X*X*X*X*X*X*X*X*X*X*X*X*X*X*X",
"*X*X*X*X*X*X*X*X*X*X*X*X*X*X*X*X*X*X*X*X*Xk H *.E.~.Q.Q.~.Q.Q.Q.Q.~.Q.~.Q.Q.~.S.&.c u *X*X*X*X*X*X*X*X*X*X*X*X*X*X*X*X*X*X*X*X*X",
"*X*X*X*X*X*X*X*X*X*X*X*X*X*X*X*X*X*X*X*X*X*X9 c *.Q.Q.Q.Q.Q.Q.Q.Q.Q.Q.^.Q.Q.~.%.c 7 *X*X*X*X*X*X*X*X*X*X*X*X*X*X*X*X*X*X*X*X*X*X",
"*X*X*X*X*X*X*X*X*X*X*X*X*X*X*X*X*X*X*X*X*X*X*Xt z N u u u u u N t t t 3 y N N j t *X*X*X*X*X*X*X*X*X*X*X*X*X*X*X*X*X*X*X*X*X*X*X",
"*X*X*X*X*X*X*X*X*X*X*X*X*X*X*X*X*X*X*X*X*X*X*X*X7 > d d d d d h ^ Q ..R.u.@ , 8 *X*X*X*X*X*X*X*X*X*X*X*X*X*X*X*X*X*X*X*X*X*X*X*X",
"*X*X*X*X*X*X*X*X*X*X*X*X*X*X*X*X*X*X*X*X*X*X*X*X*Xs r.t.A t.r.K 1.>.4.&XR.. h *X*X*X*X*X*X*X*X*X*X*X*X*X*X*X*X*X*X*X*X*X*X*X*X*X",
"*X*X*X*X*X*X*X*X*X*X*X*X*X*X*X*X*X*X*X*X*X*X*X*X*Xs e.r.t.f J.[.].].].XXXX_.9 *X*X*X*X*X*X*X*X*X*X*X*X*X*X*X*X*X*X*X*X*X*X*X*X*X",
"*X*X*X*X*X*X*X*X*X*X*X*X*X*X*X*X*X*X*X*X*X*X*X*X*Xs e.e.r.0.D.`.[.}.}.}.`.5.9 *X*X*X*X*X*X*X*X*X*X*X*X*X*X*X*X*X*X*X*X*X*X*X*X*X",
"*X*X*X*X*X*X*X*X*X*X*X*X*X*X*X*X*X*X*X*X*X*X*X*X*Xg e.e.e.9./ :.{.{.{.XX5.! e *X*X*X*X*X*X*X*X*X*X*X*X*X*X*X*X*X*X*X*X*X*X*X*X*X",
"*X*X*X*X*X*X*X*X*X*X*X*X*X*X*X*X*X*X*X*X*X*X*X*X*X- 8 n t.r.t.u.s.u.d.Y.l.r *X*X*X*X*X*X*X*X*X*X*X*X*X*X*X*X*X*X*X*X*X*X*X*X*X*X",
"*X*X*X*X*X*X*X*X*X*X*X*X*X*X*X*X*X*X*X*X*X*X*X*X{  .8 9 h g h h d d f y.j & *X*X*X*X*X*X*X*X*X*X*X*X*X*X*X*X*X*X*X*X*X*X*X*X*X*X",
"*X*X*X*X*X*X*X*X*X*X*X*X*X*X*X*X*X*X*X*X*X*Xa 1  .N.t f m m h r 0 w q w q 8 *X*X*X*X*X*X*X*X*X*X*X*X*X*X*X*X*X*X*X*X*X*X*X*X*X*X",
"*X*X*X*X*X*X*X*X*X*X*X*X*X*X*X*X*X*X*X*X*X*X9 M.,.T   I.$X#XI.  | T R T I ; *X*X*X*X*X*X*X*X*X*X*X*X*X*X*X*X*X*X*X*X*X*X*X*X*X*X",
"*X*X*X*X*X*X*X*X*X*X*X*X*X*X*X*X*X*X*X*X*X*Xa ,.T _ T.+X%X%X+XT.{ Y W ,.E = *X*X*X*X*X*X*X*X*X*X*X*X*X*X*X*X*X*X*X*X*X*X*X*X*X*X",
"*X*X*X*X*X*X*X*X*X*X*X*X*X*X*X*X*X*X*X*X*X*X9 R P M $X#X$X#X#X$Xb P | N.} = C *X*X*X*X*X*X*X*X*X*X*X*X*X*X*X*X*X*X*X*X*X*X*X*X*X",
"*X*X*X*X*X*X*X*X*X*X*X*X*X*X*X*X*X*X*X*X*X*X*Xt > d P.+X%X%X@XU.p.2 5 M.E r 1.V $ *X*X*X*X*X*X*X*X*X*X*X*X*X*X*X*X*X*X*X*X*X*X*X",
"*X*X*X*X*X*X*X*X*X*X*X*X*X*X*X*X*X*X*X*X*X*X*X< V X.'.oXOXT.P.V.j.a.f.N.E , 2./ $ *X*X*X*X*X*X*X*X*X*X*X*X*X*X*X*X*X*X*X*X*X*X*X",
"*X*X*X*X*X*X*X*X*X*X*X*X*X*X*X*X*X*X*X*X*X*X*X% X.4.|.'.U.X - i.A.A.C.M.} M 1.^ $ *X*X*X*X*X*X*X*X*X*X*X*X*X*X*X*X*X*X*X*X*X*X*X",
"*X*X*X*X*X*X*X*X*X*X*X*X*X*X*X*X*X*X*X*X*X*X*Xo G.}.[.}.[.B 8.p.C.A.V.7 ~ 1.2.^ ; *X*X*X*X*X*X*X*X*X*X*X*X*X*X*X*X*X*X*X*X*X*X*X",
"*X*X*X*X*X*X*X*X*X*X*X*X*X*X*X*X*X*X*X*X*X*X*Xo G..X}.`.3.i v p.a.V.V.$ V ^ ..V *X*X*X*X*X*X*X*X*X*X*X*X*X*X*X*X*X*X*X*X*X*X*X*X",
"*X*X*X*X*X*X*X*X*X*X*X*X*X*X*X*X*X*X*X*X*X*X*Xo G.}. X(.~ t 8.i.q.g.L.B e % ; *X*X*X*X*X*X*X*X*X*X*X*X*X*X*X*X*X*X*X*X*X*X*X*X*X",
"*X*X*X*X*X*X*X*X*X*X*X*X*X*X*X*X*X*X*X*X*X*X*Xo )..X.XF.O p.w.i.7.x.~./.#.o *X*X*X*X*X*X*X*X*X*X*X*X*X*X*X*X*X*X*X*X*X*X*X*X*X*X",
"*X*X*X*X*X*X*X*X*X*X*X*X*X*X*X*X*X*X*X*X*X*X*X*X$.K.<.L # M A k.v.E.~.Q.E.=.& * : 8 *X*X*X*X*X*X*X*X*X*X*X*X*X*X*X*X*X*X*X*X*X*X",
"*X*X*X*X*X*X*X*X*X*X*X*X*X*X*X*X*X*X*X*X*X*X*X*X+ + o * y 0 x ] E.Q.Q.Q.Q.S.S Z j p *X*X*X*X*X*X*X*X*X*X*X*X*X*X*X*X*X*X*X*X*X*X",
"*X*X*X*X*X*X*X*X*X*X*X*X*X*X*X*X*X*X*X*X*X*X*X9 9 9 , C ' ' k , ( b.(.~.c.' /.H.z.7 *X*X*X*X*X*X*X*X*X*X*X*X*X*X*X*X*X*X*X*X*X*X",
"*X*X*X*X*X*X*X*X*X*X*X*X*X*X*X*X*X*X*X*X*X*X*X6 h m D ( ' ' ( D y ' %.%.[ ] H.z.t.8 *X*X*X*X*X*X*X*X*X*X*X*X*X*X*X*X*X*X*X*X*X*X",
"*X*X*X*X*X*X*X*X*X*X*X*X*X*X*X*X*X*X*X*X*X*X*X6 n t.) ` ) ) ) G , l F ( ` ` z.y.n 8 *X*X*X*X*X*X*X*X*X*X*X*X*X*X*X*X*X*X*X*X*X*X",
"*X*X*X*X*X*X*X*X*X*X*X*X*X*X*X*X*X*X*X*X*X*X*X6 n t.9.K ' ' C < 8 7 e ' K A A t.e.p *X*X*X*X*X*X*X*X*X*X*X*X*X*X*X*X*X*X*X*X*X*X",
"*X*X*X*X*X*X*X*X*X*X*X*X*X*X*X*X*X*X*X*X*X*X*X7 j t.r.Z l k t 8 8 7 9 y Z r.t.n h *X*X*X*X*X*X*X*X*X*X*X*X*X*X*X*X*X*X*X*X*X*X*X",
"*X*X*X*X*X*X*X*X*X*X*X*X*X*X*X*X*X*X*X*X*X*X*X8 M A A d * : 6 8 8 8 8 : n A A d 7 *X*X*X*X*X*X*X*X*X*X*X*X*X*X*X*X*X*X*X*X*X*X*X",
"*X*X*X*X*X*X*X*X*X*X*X*X*X*X*X*X*X*X*X*X*X*Xp 8 6 8 8 8 0 8 8 8 7 8 8 8 6 6 8 8 8 p *X*X*X*X*X*X*X*X*X*X*X*X*X*X*X*X*X*X*X*X*X*X",
"*X*X*X*X*X*X*X*X*X*X*X*X*X*X*X*X*X*X*X*X*X8 8 8 8 8 8 8 8 8 8 6 8 8 8 6 8 8 8 8 8 7 9 *X*X*X*X*X*X*X*X*X*X*X*X*X*X*X*X*X*X*X*X*X",
"*X*X*X*X*X*X*X*X*X*X*X*X*X*X*X*X*X*X*X*X9 p 8 8 8 8 8 8 8 8 8 8 8 8 8 8 8 8 8 8 8 7 p e *X*X*X*X*X*X*X*X*X*X*X*X*X*X*X*X*X*X*X*X",
"*X*X*X*X*X*X*X*X*X*X*X*X*X*X*X*X*X*X*X*Xe 8 7 8 8 8 8 8 6 8 7 8 8 8 8 8 7 8 8 8 8 8 p e *X*X*X*X*X*X*X*X*X*X*X*X*X*X*X*X*X*X*X*X",
"*X*X*X*X*X*X*X*X*X*X*X*X*X*X*X*X*X*X*X*X*Xe p 8 8 7 8 8 8 8 8 8 8 6 8 8 8 8 7 8 8 p *X*X*X*X*X*X*X*X*X*X*X*X*X*X*X*X*X*X*X*X*X*X",
"*X*X*X*X*X*X*X*X*X*X*X*X*X*X*X*X*X*X*X*X*X*Xe 8 8 8 8 8 8 8 8 8 8 8 8 8 8 8 8 8 9 9 *X*X*X*X*X*X*X*X*X*X*X*X*X*X*X*X*X*X*X*X*X*X",
"*X*X*X*X*X*X*X*X*X*X*X*X*X*X*X*X*X*X*X*X*X*X*X8 8 8 8 8 8 8 9 8 8 8 8 8 8 8 9 8 e *X*X*X*X*X*X*X*X*X*X*X*X*X*X*X*X*X*X*X*X*X*X*X",
"*X*X*X*X*X*X*X*X*X*X*X*X*X*X*X*X*X*X*X*X*X*X*X*X*X*X*X*X*X*X*X*X*X*X*X*X*X*X*X*X*X*X*X*X*X*X*X*X*X*X*X*X*X*X*X*X*X*X*X*X*X*X*X*X",
"*X*X*X*X*X*X*X*X*X*X*X*X*X*X*X*X*X*X*X*X*X*X*X*X*X*X*X*X*X*X*X*X*X*X*X*X*X*X*X*X*X*X*X*X*X*X*X*X*X*X*X*X*X*X*X*X*X*X*X*X*X*X*X*X",
"*X*X*X*X*X*X*X*X*X*X*X*X*X*X*X*X*X*X*X*X*X*X*X*X*X*X*X*X*X*X*X*X*X*X*X*X*X*X*X*X*X*X*X*X*X*X*X*X*X*X*X*X*X*X*X*X*X*X*X*X*X*X*X*X",
"*X*X*X*X*X*X*X*X*X*X*X*X*X*X*X*X*X*X*X*X*X*X*X*X*X*X*X*X*X*X*X*X*X*X*X*X*X*X*X*X*X*X*X*X*X*X*X*X*X*X*X*X*X*X*X*X*X*X*X*X*X*X*X*X",
"*X*X*X*X*X*X*X*X*X*X*X*X*X*X*X*X*X*X*X*X*X*X*X*X*X*X*X*X*X*X*X*X*X*X*X*X*X*X*X*X*X*X*X*X*X*X*X*X*X*X*X*X*X*X*X*X*X*X*X*X*X*X*X*X",
"*X*X*X*X*X*X*X*X*X*X*X*X*X*X*X*X*X*X*X*X*X*X*X*X*X*X*X*X*X*X*X*X*X*X*X*X*X*X*X*X*X*X*X*X*X*X*X*X*X*X*X*X*X*X*X*X*X*X*X*X*X*X*X*X",
"*X*X*X*X*X*X*X*X*X*X*X*X*X*X*X*X*X*X*X*X*X*X*X*X*X*X*X*X*X*X*X*X*X*X*X*X*X*X*X*X*X*X*X*X*X*X*X*X*X*X*X*X*X*X*X*X*X*X*X*X*X*X*X*X",
"*X*X*X*X*X*X*X*X*X*X*X*X*X*X*X*X*X*X*X*X*X*X*X*X*X*X*X*X*X*X*X*X*X*X*X*X*X*X*X*X*X*X*X*X*X*X*X*X*X*X*X*X*X*X*X*X*X*X*X*X*X*X*X*X",
"*X*X*X*X*X*X*X*X*X*X*X*X*X*X*X*X*X*X*X*X*X*X*X*X*X*X*X*X*X*X*X*X*X*X*X*X*X*X*X*X*X*X*X*X*X*X*X*X*X*X*X*X*X*X*X*X*X*X*X*X*X*X*X*X",
"*X*X*X*X*X*X*X*X*X*X*X*X*X*X*X*X*X*X*X*X*X*X*X*X*X*X*X*X*X*X*X*X*X*X*X*X*X*X*X*X*X*X*X*X*X*X*X*X*X*X*X*X*X*X*X*X*X*X*X*X*X*X*X*X"
};
