/* XPM */
static char *result[] = {
/* columns rows colors chars-per-pixel */
"64 64 203 2 ",
"   c #000028",
".  c #150051",
"X  c #38005A",
"o  c #000066",
"O  c #030068",
"+  c #190B6B",
"@  c #1F116A",
"#  c #240C67",
"$  c #2B0063",
"%  c #281467",
"&  c #291B6D",
"*  c #271669",
"=  c #341367",
"-  c #09226B",
";  c #112770",
":  c #182468",
">  c #2C256A",
",  c #3C2166",
"<  c #3C246A",
"1  c #3B296B",
"2  c #342869",
"3  c #362970",
"4  c #3E3D78",
"5  c #363165",
"6  c #46005A",
"7  c #5D1161",
"8  c #412567",
"9  c #42266A",
"0  c #442A69",
"q  c #4B2D6B",
"w  c #4B276A",
"e  c #512B69",
"r  c #502165",
"t  c #4B326D",
"y  c #54356D",
"u  c #5D356C",
"i  c #53386E",
"p  c #5E3D6B",
"a  c #553965",
"s  c #4B2D73",
"d  c #402575",
"f  c #4D3474",
"g  c #4D3974",
"h  c #4A3876",
"j  c #513473",
"k  c #533A74",
"l  c #5C3B73",
"z  c #553D79",
"x  c #593474",
"c  c #613A6E",
"v  c #6A396D",
"b  c #6A3F71",
"n  c #603C76",
"m  c #723C75",
"M  c #3D4479",
"N  c #42457F",
"B  c #5A437B",
"V  c #5D4B7A",
"C  c #554172",
"Z  c #42517E",
"A  c #63416E",
"S  c #6C4364",
"D  c #754968",
"F  c #6B4275",
"G  c #694C71",
"H  c #62447A",
"J  c #604A7F",
"K  c #6F4379",
"L  c #764475",
"P  c #7D4577",
"I  c #784A78",
"U  c #78507F",
"Y  c #7F6574",
"T  c #86296B",
"R  c #873070",
"E  c #9E3D74",
"W  c #A92F6E",
"Q  c #BC3D75",
"!  c #B73873",
"~  c #AD3671",
"^  c #C33D75",
"/  c #89545F",
"(  c #AA5F4D",
")  c #A55C51",
"_  c #BE7856",
"`  c #8B5965",
"'  c #8A5967",
"]  c #935E6D",
"[  c #814A77",
"{  c #854D78",
"}  c #8B4477",
"|  c #8A5477",
" . c #83517C",
".. c #8A5179",
"X. c #8C5F77",
"o. c #985E7B",
"O. c #924677",
"+. c #AB4376",
"@. c #A54473",
"#. c #BB4177",
"$. c #B3497B",
"%. c #9A6365",
"&. c #8F6377",
"*. c #8F6178",
"=. c #946577",
"-. c #9E6A7C",
";. c #926479",
":. c #92777D",
">. c #A66D7E",
",. c #A96F7F",
"<. c #AC727F",
"1. c #AB767D",
"2. c #B17A7E",
"3. c #C47E5A",
"4. c #C77F53",
"5. c #D74D7C",
"6. c #DC517E",
"7. c #A3867E",
"8. c #CA8359",
"9. c #C68868",
"0. c #D3996F",
"q. c #D5A47D",
"w. c #4E3881",
"e. c #005594",
"r. c #5D4C84",
"t. c #514083",
"y. c #40548D",
"u. c #424981",
"i. c #644D82",
"p. c #665185",
"a. c #695285",
"s. c #6A5787",
"d. c #765986",
"f. c #436094",
"g. c #4C6395",
"h. c #506494",
"j. c #5B6699",
"k. c #59749B",
"l. c #796187",
"z. c #7C6388",
"x. c #6D6C91",
"c. c #6B7A9E",
"v. c #717DA6",
"b. c #876D9F",
"n. c #906E94",
"m. c #8E6E8C",
"M. c #AF7580",
"N. c #A77D8A",
"B. c #B27780",
"V. c #B77C82",
"C. c #DF5B83",
"Z. c #F05E85",
"A. c #EA5C83",
"S. c #EF6086",
"D. c #6D8CAB",
"F. c #6585A8",
"G. c #768CAA",
"H. c #7292AF",
"J. c #7094B1",
"K. c #AE8E85",
"L. c #A98783",
"P. c #BB8282",
"I. c #BF8988",
"U. c #B4958D",
"Y. c #B08299",
"T. c #9E8FBE",
"R. c #8F90AC",
"E. c #A697B7",
"W. c #A383A6",
"Q. c #B6A6BF",
"!. c #B0ADB9",
"~. c #C28583",
"^. c #C78A85",
"/. c #CB8D86",
"(. c #CE9087",
"). c #CC9089",
"_. c #D19185",
"`. c #D49488",
"'. c #D8968A",
"]. c #DEBC94",
"[. c #CDA585",
"{. c #E9BB8A",
"}. c #D8B8A7",
"|. c #EAC396",
" X c #EECA9C",
".X c #EAC497",
"XX c #F3CD9C",
"oX c #FCD49F",
"OX c #F5CB8F",
"+X c #EECCA1",
"@X c #F0CEA6",
"#X c #FFD6A0",
"$X c #AB99C0",
"%X c #B5A8C0",
"&X c #D7C0C8",
"*X c #D3C6E4",
"=X c #DCD0E4",
"-X c #E3D5EB",
";X c #FAECFE",
":X c #F5E8FA",
">X c #FFF3FF",
",X c white",
"<X c None",
/* pixels */
"<X<X<X<X<X<X<X<X<X<X<X<X<X<X<X<X<X<X<X<X<X<X<X<X<X<X<X<X<X<X<X<X<X<X<X<X<X<X<X<X<X<X<X<X<X<X<X<X<X<X<X<X<X<X<X<X<X<X<X<X<X<X<X<X",
"<X<X<X<X<X<X<X<X<X<X<X<X<X<X<X<X<X<X<X<X<X<X<X<X<X<X<X<X<X<X<X<X<X<X<X<X<X<X<X<X<X<X<X<X<X<X<X<X<X<X<X<X<X<X<X<X<X<X<X<X<X<X<X<X",
"<X<X<X<X<X<X<X<X<X<X<X<X<X<X<X<X<X<X<X<X<X<X<X<X<X<X<X<X<X<X<X<X<X<X<X<X<X<X<X<X<X<X<X<X<X<X<X<X<X<X<X<X<X<X<X<X<X<X<X<X<X<X<X<X",
"<X<X<X<X<X<X<X<X<X<X<X<X<X<X<X<X<X<X<X<X<X<X<X<X<X<X<X<X<X<X<X<X<X<X<X<X<X<X<X<X<X<X<X<X<X<X<X<X<X<X<X<X<X<X<X<X<X<X<X<X<X<X<X<X",
"<X<X<X<X<X<X<X<X<X<X<X<X<X<X<X<X<X<X<X<X<X<X<X<X<X<X<X<X<X<X<X<X<X<X<X<X<X<X<X<X<X<X<X<X<X<X<X<X<X<X<X<X<X<X<X<X<X<X<X<X<X<X<X<X",
"<X<X<X<X<X<X<X<X<X<X<X<X<X<X<X<X<X<X<X<X<X<X<X<X<X<X<X<X<X<X<X<X<X<X<X<X<X<X<X<X<X<X<X<X<X<X<X<X<X<X<X<X<X<X<X<X<X<X<X<X<X<X<X<X",
"<X<X<X<X<X<X<X<X<X<X<X<X<X<X<X<X<X<X<X<X<X<X<X<X<X<X<X<X<X<X<X<X<X<X<X<X<X<X<X<X<X<X<X<X<X<X<X<X<X<X<X<X<X<X<X<X<X<X<X<X<X<X<X<X",
"<X<X<X<X<X<X<X<X<X<X<X<X<X<X<X<X<X<X<X<X<X<X<X<X<X<X<X<X<X<X<X<X<X<X<X<X<X<X<X<X<X<X<X<X<X<X<X<X<X<X<X<X<X<X<X<X<X<X<X<X<X<X<X<X",
"<X<X<X<X<X<X<X<X<X<X<X<X<X<X<X<X<X<X<X<X<X<X<X<X<X<X<X<X<X<X<X<X<X<X<X<X<X<X<X<X<X<X<X<X<X<X<X<X<X<X<X<X<X<X<X<X<X<X<X<X<X<X<X<X",
"<X<X<X<X<X<X<X<X<X<X<X<X<X<X<X<X<X<X<X<X<X<X<X<X<X<X<X<X<X<X<X<X<X<X<X<X<X<X<X<X<X<X<X<X<X<X<X<X<X<X<X<X<X<X<X<X<X<X<X<X<X<X<X<X",
"<X<X<X<X<X<X<X<X<X<X<X<X<X<X<X<X<X<X<X<X<X<X<X<X<X<X<X<Xd < 9 0 s 9 < 3 <X<X<X<X<X<X<X<X<X<X<X<X<X<X<X<X<X<X<X<X<X<X<X<X<X<X<X<X",
"<X<X<X<X<X<X<X<X<X<X<X<X<X<X<X<X<X<X<X<X<X<X<X<X<X<X3 ;.P.V.-.L L >.P.V.&.& <X<X<X<X<X<X<X<X<X<X<X<X<X<X<X<X<X<X<X<X<X<X<X<X<X<X",
"<X<X<X<X<X<X<X<X<X<X<X<X<X<X<X<X<X<X<X<X<X<X<X<X<X<X* -.'.`.B.{ [ B.`.'.-.# <X<X<X<X<X<X<X<X<X<X<X<X<X<X<X<X<X<X<X<X<X<X<X<X<X<X",
"<X<X<X<X<X<X<X<X<X<X<X<X<X<X<X<X<X<X<X<X<X<Xj 0 0 f % =._.(.<.[ [ B./.(.;.% f 0 9 f <X<X<X<X<X<X<X<X<X<X<X<X<X<X<X<X<X<X<X<X<X<X",
"<X<X<X<X<X<X<X<X<X<X<X<X<X<X<X<X<X<X<X<Xk , # 2.~.V.L >.`./.^.~.~.^./.'.>.L V.P.2.% < k <X<X<X<X<X<X<X<X<X<X<X<X<X<X<X<X<X<X<X<X",
"<X<X<X<X<X<X<X<X<X<X<X<X<X<X<X<X<X<X<X<X1 F &.^.`.^.M.M.V././.(.)./.^.V.<.,.(._.^.=.F 0 <X<X<X<X<X<X<X<X<X<X<X<X<X<X<X<X<X<X<X<X",
"<X<X<X<X<X<X<X<X<X<X<X<X<X<X<X<X<X<X<X<X* X.'.^././.`.M.P ^.(./.)./.^.P B.`././.^.'.*.& <X<X<X<X<X<X<X<X<X<X<X<X<X<X<X<X<X<X<X<X",
"<X<X<X<X<X<X<X<X<X<X<X<X<X<X<X<X<X<X<X<X1 K o.^._././.^.^././././././.~.^././.(.^.m.K 0 <X<X<X<X<X<X<X<X<X<X<X<X<X<X<X<X<X<X<X<X",
"<X<X<X<X<X<X<X<X<X<X<X<X<X<X<X<X<X<X<X<X<Xl L M.P.(././.)././././.(././.(./.(.~.<.P l <X<X<X<X<X<X<X<X<X<X<X<X<X<X<X<X<X<X<X<X<X",
"<X<X<X<X<X<X<X<X<X<X<X<X<X<X<X<X<X<X<X<X<X<X0 m >.).^.).)./././././.).^././.(.>.m 0 <X<X<X<X<X<X<X<X<X<X<X<X<X<X<X<X<X<X<X<X<X<X",
"<X<X<X<X<X<X<X<X<X<X<X<X<X<X<X<X<X<X<X<X<X<X<Xy l A A p 6 y y y c c p c c p A n y <X<X<X<X<X<X<X<X<X<X<X<X<X<X<X<X<X<X<X<X<X<X<X",
"<X<X<X<X<X<X<X<X<X<X<X<X<X<X<X<X<X<X<X<X<X<X<X<X0 < $ s.!.' / / f h g g k h < 0 <X<X<X<X<X<X<X<X<X<X<X<X<X<X<X<X<X<X<X<X<X<X<X<X",
"<X<X<X<X<X<X<X<X<X<X<X<X<X<X<X<X<X<X<X<X<X<X<X<X<Xz . !.,X9.8.9.d.p.a.p.a.i.j <X<X<X<X<X<X<X<X<X<X<X<X<X<X<X<X<X<X<X<X<X<X<X<X<X",
"<X<X<X<X<X<X<X<X<X<X<X<X<X<X<X<X<X<X<X<X<X<X<X<X<XC ].+X@X.X|.|. XU.z J i.i.s <X<X<X<X<X<X<X<X<X<X<X<X<X<X<X<X<X<X<X<X<X<X<X<X<X",
"<X<X<X<X<X<X<X<X<X<X<X<X<X<X<X<X<X<X<X<X<X<X<X<X<Xl q.|.XXXXXX+X{.7.t.a.i.i.s <X<X<X<X<X<X<X<X<X<X<X<X<X<X<X<X<X<X<X<X<X<X<X<X<X",
"<X<X<X<X<X<X<X<X<X<X<X<X<X<X<X<X<X<X<X<X<X<X<X<X<Xi ( q.+X].|.{._ ] r.i.i.i.j <X<X<X<X<X<X<X<X<X<X<X<X<X<X<X<X<X<X<X<X<X<X<X<X<X",
"<X<X<X<X<X<X<X<X<X<X<X<X<X<X<X<X<X<X<X<X<X<X<X<X<X<Xa z.W.m.l.l.d.a.p.a.B 0 ; <X<X<X<X<X<X<X<X<X<X<X<X<X<X<X<X<X<X<X<X<X<X<X<X<X",
"<X<X<X<X<X<X<X<X<X<X<X<X<X<X<X<X<X<X<X<X<X<X<X<X<X<X< z s.g h h k k f k 0 w $.O.<X<X<X<X<X<X<X<X<X<X<X<X<X<X<X<X<X<X<X<X<X<X<X<X",
"<X<X<X<X<X<X<X<X<X<X<X<X<X<X<X<X<X<X<X<X<X<X<X<X<X<Xt w r e w e t C V H C u S.$.1 j <X<X<X<X<X<X<X<X<X<X<X<X<X<X<X<X<X<X<X<X<X<X",
"<X<X<X<X<X<X<X<X<X<X<X<X<X<X<X<X<X<X<X<X<X<X<X<X<X<X5 R ! ! Q #.  !.;X:XE.  #.6.C.q <X<X<X<X<X<X<X<X<X<X<X<X<X<X<X<X<X<X<X<X<X<X",
"<X<X<X<X<X<X<X<X<X<X<X<X<X<X<X<X<X<X<X<X<X<X<X<X<X<X: E 5.^ W ..Q.-X>X>X=XQ.} Q 5.f <X<X<X<X<X<X<X<X<X<X<X<X<X<X<X<X<X<X<X<X<X<X",
"<X<X<X<X<X<X<X<X<X<X<X<X<X<X<X<X<X<X<X<X<X<X<X<X<XF - +.Z.^ T u.:X;X:X:X;X:XM T ~ 0 <X<X<X<X<X<X<X<X<X<X<X<X<X<X<X<X<X<X<X<X<X<X",
"<X<X<X<X<X<X<X<X<X<X<X<X<X<X<X<X<X<X<X<X<X<X<X+ ' _ 5 +.A.7 4 j.E.-X>X>X*XT.h 8 e <X<X<X<X<X<X<X<X<X<X<X<X<X<X<X<X<X<X<X<X<X<X<X",
"<X<X<X<X<X<X<X<X<X<X<X<X<X<X<X<X<X<X<X<X<X<X<X@ ' 8.> +.Z.x.k.F.v.E.%X*X&X}.%.v 1 <X<X<X<X<X<X<X<X<X<X<X<X<X<X<X<X<X<X<X<X<X<X<X",
"<X<X<X<X<X<X<X<X<X<X<X<X<X<X<X<X<X<X<X<X<X<X<X@ ' 8.a @.C.G.J.D.f.- X E.}.OX0.%.& <X<X<X<X<X<X<X<X<X<X<X<X<X<X<X<X<X<X<X<X<X<X<X",
"<X<X<X<X<X<X<X<X<X<X<X<X<X<X<X<X<X<X<X<X<X<X<X@ &.8.8.%.1 G.J.D.h.u.G @XXXXXXXK.o <X<X<X<X<X<X<X<X<X<X<X<X<X<X<X<X<X<X<X<X<X<X<X",
"<X<X<X<X<X<X<X<X<X<X<X<X<X<X<X<X<X<X<X<X<X<X<X<XD ] ` S > F.F.k.g.M p 0.{.XXoXK.O <X<X<X<X<X<X<X<X<X<X<X<X<X<X<X<X<X<X<X<X<X<X<X",
"<X<X<X<X<X<X<X<X<X<X<X<X<X<X<X<X<X<X<X<X<X<X<X<X<X> & y A R.c.y.g.u.p ) [.oXXXK.O <X<X<X<X<X<X<X<X<X<X<X<X<X<X<X<X<X<X<X<X<X<X<X",
"<X<X<X<X<X<X<X<X<X<X<X<X<X<X<X<X<X<X<X<X<X<X<X<X<X<Xo =.(._.N.e.f.f.h.O [.oXoXU.O <X<X<X<X<X<X<X<X<X<X<X<X<X<X<X<X<X<X<X<X<X<X<X",
"<X<X<X<X<X<X<X<X<X<X<X<X<X<X<X<X<X<X<X<X<X<X0 , = 0 ,.~./.^.I.N.d.V 4 = Y 7.L.:.<X<X<X<X<X<X<X<X<X<X<X<X<X<X<X<X<X<X<X<X<X<X<X<X",
"<X<X<X<X<X<X<X<X<X<X<X<X<X<X<X<X<X<X<X<X<X<Xf z H I ~././././.~...v e y = O + <X<X<X<X<X<X<X<X<X<X<X<X<X<X<X<X<X<X<X<X<X<X<X<X<X",
"<X<X<X<X<X<X<X<X<X<X<X<X<X<X<X<X<X<X<X<X<X<Xq b.Y.(.{ <.`._.B.P < F ....A 1 e 0 t <X<X<X<X<X<X<X<X<X<X<X<X<X<X<X<X<X<X<X<X<X<X<X",
"<X<X<X<X<X<X<X<X<X<X<X<X<X<X<X<X<X<X<X<X<X<Xs s.n.Y.| o.>.>.| u D [ ....P L B k q <X<X<X<X<X<X<X<X<X<X<X<X<X<X<X<X<X<X<X<X<X<X<X",
"<X<X<X<X<X<X<X<X<X<X<X<X<X<X<X<X<X<X<X<X<X<Xq B d.b.U [ P I u 1 P { { { .. .a.z 0 <X<X<X<X<X<X<X<X<X<X<X<X<X<X<X<X<X<X<X<X<X<X<X",
"<X<X<X<X<X<X<X<X<X<X<X<X<X<X<X<X<X<X<X<X<X<Xf i.p.J p.U ..q 8 w 2 L | ..U r.p.z 9 <X<X<X<X<X<X<X<X<X<X<X<X<X<X<X<X<X<X<X<X<X<X<X",
"<X<X<X<X<X<X<X<X<X<X<X<X<X<X<X<X<X<X<X<X<X<X<Xf B p.p.H c 0 0 0 8 y c u H p.p.z 8 <X<X<X<X<X<X<X<X<X<X<X<X<X<X<X<X<X<X<X<X<X<X<X",
"<X<X<X<X<X<X<X<X<X<X<X<X<X<X<X<X<X<X<X<X<X<X<X9 f J J i , 0 0 0 0 8 < , k J J k 9 <X<X<X<X<X<X<X<X<X<X<X<X<X<X<X<X<X<X<X<X<X<X<X",
"<X<X<X<X<X<X<X<X<X<X<X<X<X<X<X<X<X<X<X<X<X<Xf 0 0 0 0 0 0 0 0 0 9 0 0 q 0 0 0 0 0 s <X<X<X<X<X<X<X<X<X<X<X<X<X<X<X<X<X<X<X<X<X<X",
"<X<X<X<X<X<X<X<X<X<X<X<X<X<X<X<X<X<X<X<X<X0 0 0 0 0 0 0 0 0 0 0 0 8 0 0 0 0 0 0 0 0 q <X<X<X<X<X<X<X<X<X<X<X<X<X<X<X<X<X<X<X<X<X",
"<X<X<X<X<X<X<X<X<X<X<X<X<X<X<X<X<X<X<X<Xq f 0 0 0 0 0 0 0 0 0 0 0 0 0 0 0 0 0 0 0 0 s t <X<X<X<X<X<X<X<X<X<X<X<X<X<X<X<X<X<X<X<X",
"<X<X<X<X<X<X<X<X<X<X<X<X<X<X<X<X<X<X<X<Xt 0 0 0 0 0 0 0 0 0 0 0 0 0 0 0 0 0 0 0 0 0 0 f <X<X<X<X<X<X<X<X<X<X<X<X<X<X<X<X<X<X<X<X",
"<X<X<X<X<X<X<X<X<X<X<X<X<X<X<X<X<X<X<X<X<X<Xs 0 0 0 0 0 0 0 0 0 8 0 0 0 0 0 0 0 0 s h <X<X<X<X<X<X<X<X<X<X<X<X<X<X<X<X<X<X<X<X<X",
"<X<X<X<X<X<X<X<X<X<X<X<X<X<X<X<X<X<X<X<X<X<Xt 0 0 0 0 0 0 0 0 0 0 0 0 0 0 0 0 0 0 t <X<X<X<X<X<X<X<X<X<X<X<X<X<X<X<X<X<X<X<X<X<X",
"<X<X<X<X<X<X<X<X<X<X<X<X<X<X<X<X<X<X<X<X<X<X<X0 w 0 0 0 0 0 0 0 w 0 0 0 0 0 0 0 t <X<X<X<X<X<X<X<X<X<X<X<X<X<X<X<X<X<X<X<X<X<X<X",
"<X<X<X<X<X<X<X<X<X<X<X<X<X<X<X<X<X<X<X<X<X<X<X<X<X<X<X<X<X<X<X<X<X<X<X<X<X<X<X<X<X<X<X<X<X<X<X<X<X<X<X<X<X<X<X<X<X<X<X<X<X<X<X<X",
"<X<X<X<X<X<X<X<X<X<X<X<X<X<X<X<X<X<X<X<X<X<X<X<X<X<X<X<X<X<X<X<X<X<X<X<X<X<X<X<X<X<X<X<X<X<X<X<X<X<X<X<X<X<X<X<X<X<X<X<X<X<X<X<X",
"<X<X<X<X<X<X<X<X<X<X<X<X<X<X<X<X<X<X<X<X<X<X<X<X<X<X<X<X<X<X<X<X<X<X<X<X<X<X<X<X<X<X<X<X<X<X<X<X<X<X<X<X<X<X<X<X<X<X<X<X<X<X<X<X",
"<X<X<X<X<X<X<X<X<X<X<X<X<X<X<X<X<X<X<X<X<X<X<X<X<X<X<X<X<X<X<X<X<X<X<X<X<X<X<X<X<X<X<X<X<X<X<X<X<X<X<X<X<X<X<X<X<X<X<X<X<X<X<X<X",
"<X<X<X<X<X<X<X<X<X<X<X<X<X<X<X<X<X<X<X<X<X<X<X<X<X<X<X<X<X<X<X<X<X<X<X<X<X<X<X<X<X<X<X<X<X<X<X<X<X<X<X<X<X<X<X<X<X<X<X<X<X<X<X<X",
"<X<X<X<X<X<X<X<X<X<X<X<X<X<X<X<X<X<X<X<X<X<X<X<X<X<X<X<X<X<X<X<X<X<X<X<X<X<X<X<X<X<X<X<X<X<X<X<X<X<X<X<X<X<X<X<X<X<X<X<X<X<X<X<X",
"<X<X<X<X<X<X<X<X<X<X<X<X<X<X<X<X<X<X<X<X<X<X<X<X<X<X<X<X<X<X<X<X<X<X<X<X<X<X<X<X<X<X<X<X<X<X<X<X<X<X<X<X<X<X<X<X<X<X<X<X<X<X<X<X",
"<X<X<X<X<X<X<X<X<X<X<X<X<X<X<X<X<X<X<X<X<X<X<X<X<X<X<X<X<X<X<X<X<X<X<X<X<X<X<X<X<X<X<X<X<X<X<X<X<X<X<X<X<X<X<X<X<X<X<X<X<X<X<X<X",
"<X<X<X<X<X<X<X<X<X<X<X<X<X<X<X<X<X<X<X<X<X<X<X<X<X<X<X<X<X<X<X<X<X<X<X<X<X<X<X<X<X<X<X<X<X<X<X<X<X<X<X<X<X<X<X<X<X<X<X<X<X<X<X<X",
"<X<X<X<X<X<X<X<X<X<X<X<X<X<X<X<X<X<X<X<X<X<X<X<X<X<X<X<X<X<X<X<X<X<X<X<X<X<X<X<X<X<X<X<X<X<X<X<X<X<X<X<X<X<X<X<X<X<X<X<X<X<X<X<X"
};
