/* XPM */
static char *result[] = {
/* columns rows colors chars-per-pixel */
"64 64 197 2 ",
"   c #000031",
".  c #00004F",
"X  c #050055",
"o  c #3B004F",
"O  c #330058",
"+  c #000064",
"@  c #000069",
"#  c #0C026A",
"$  c #140069",
"%  c #170768",
"&  c #24006C",
"*  c #280667",
"=  c #261366",
"-  c #291668",
";  c #14356F",
":  c #292968",
">  c #2F226C",
",  c #3F2467",
"<  c #32216A",
"1  c #3C2569",
"2  c #37266B",
"3  c #28366F",
"4  c #363A76",
"5  c #4D004F",
"6  c #471764",
"7  c #422667",
"8  c #4D2065",
"9  c #412768",
"0  c #442A6A",
"q  c #492C6D",
"w  c #512765",
"e  c #4B326D",
"r  c #47326D",
"t  c #53356C",
"y  c #5B336D",
"u  c #5E3967",
"i  c #4A2C71",
"p  c #452973",
"a  c #4C3373",
"s  c #473975",
"d  c #533B76",
"f  c #5A3972",
"g  c #593875",
"h  c #633E6A",
"j  c #753F6D",
"k  c #643C73",
"l  c #683C79",
"z  c #763974",
"x  c #71236A",
"c  c #47487D",
"v  c #53417B",
"b  c #5C457C",
"n  c #5E497F",
"m  c #5B4474",
"M  c #67436C",
"N  c #6B476F",
"B  c #7C446F",
"V  c #6D4475",
"C  c #604B7E",
"Z  c #684176",
"A  c #7B4476",
"S  c #784876",
"D  c #65507E",
"F  c #7F5577",
"G  c #7A587A",
"H  c #8D2F6C",
"J  c #8C316E",
"K  c #86306E",
"L  c #9A356F",
"P  c #853570",
"I  c #A4346F",
"U  c #B1336F",
"Y  c #A03A70",
"T  c #B53571",
"R  c #B93772",
"E  c #B93A73",
"W  c #B73F76",
"Q  c #C13B74",
"!  c #93595D",
"~  c #B36B48",
"^  c #AD6956",
"/  c #834B78",
"(  c #864877",
")  c #8B5E7B",
"_  c #88577A",
"`  c #965A79",
"'  c #AF4575",
"]  c #BE4277",
"[  c #896F7D",
"{  c #95657C",
"}  c #9E657C",
"|  c #9C6B7A",
" . c #977C7F",
".. c #8A727C",
"X. c #A36C7D",
"o. c #A96E7E",
"O. c #AC727E",
"+. c #A8777A",
"@. c #B47A7E",
"#. c #D94E7C",
"$. c #D44D7C",
"%. c #DE527E",
"&. c #B78A74",
"*. c #D9A77C",
"=. c #004283",
"-. c #2A4D89",
";. c #3F578E",
":. c #215D95",
">. c #2A6298",
",. c #4E598A",
"<. c #525D86",
"1. c #455C92",
"2. c #644D82",
"3. c #614781",
"4. c #665085",
"5. c #6A5386",
"6. c #6A5889",
"7. c #71578A",
"8. c #735A8B",
"9. c #795E8F",
"0. c #765E92",
"q. c #4C6395",
"w. c #596994",
"e. c #57749E",
"r. c #53618B",
"t. c #68648B",
"y. c #7F6A8E",
"u. c #7D6293",
"i. c #776497",
"p. c #69789E",
"a. c #5E7BA1",
"s. c #617EA4",
"d. c #9B7C89",
"f. c #826695",
"g. c #876A99",
"h. c #896C9A",
"j. c #846897",
"k. c #8E719E",
"l. c #90729F",
"z. c #AD7480",
"x. c #A57484",
"c. c #B07580",
"v. c #B57B81",
"b. c #BB7F82",
"n. c #8E71A0",
"m. c #9274A1",
"M. c #9778A4",
"N. c #9879A5",
"B. c #E55B83",
"V. c #F15E85",
"C. c #6E8DAC",
"Z. c #6783A6",
"A. c #708EAC",
"S. c #7291AE",
"D. c #7394B1",
"F. c #9F8084",
"G. c #A9808C",
"H. c #BD8283",
"J. c #BA8389",
"K. c #BD9C8B",
"L. c #B79789",
"P. c #B18698",
"I. c #928DAD",
"U. c #A595B3",
"Y. c #B09BBB",
"T. c #B7A7BF",
"R. c #C28683",
"E. c #C58984",
"W. c #CC8E86",
"Q. c #C48B8B",
"!. c #CE9087",
"~. c #D09287",
"^. c #D39488",
"/. c #D9978A",
"(. c #DDB488",
"). c #D3AF94",
"_. c #E2BB9A",
"`. c #D8BDB9",
"'. c #EBC694",
"]. c #F3CE9D",
"[. c #FDD59F",
"{. c #FCD6A0",
"}. c #E1C2B2",
"|. c #A89ECC",
" X c #ACA2CF",
".X c #BBACC5",
"XX c #B5A7C4",
"oX c #C7BAD4",
"OX c #CCC2DB",
"+X c #D8C7DF",
"@X c #DFCFE5",
"#X c #FDEFFF",
"$X c #F4E7F9",
"%X c #FEF2FF",
"&X c #FFFAFF",
"*X c #EDE1F5",
"=X c None",
/* pixels */
"=X=X=X=X=X=X=X=X=X=X=X=X=X=X=X=X=X=X=X=X=X=X=X=X=X=X=X=X=X=X=X=X=X=X=X=X=X=X=X=X=X=X=X=X=X=X=X=X=X=X=X=X=X=X=X=X=X=X=X=X=X=X=X=X",
"=X=X=X=X=X=X=X=X=X=X=X=X=X=X=X=X=X=X=X=X=X=X=X=X=X=X=X=X=X=X=X=X=X=X=X=X=X=X=X=X=X=X=X=X=X=X=X=X=X=X=X=X=X=X=X=X=X=X=X=X=X=X=X=X",
"=X=X=X=X=X=X=X=X=X=X=X=X=X=X=X=X=X=X=X=X=X=X=X=X=X=X=X=X=X=X=X=X=X=X=X=X=X=X=X=X=X=X=X=X=X=X=X=X=X=X=X=X=X=X=X=X=X=X=X=X=X=X=X=X",
"=X=X=X=X=X=X=X=X=X=X=X=X=X=X=X=X=X=X=X=X=X=X=X=X=X=X=X=X=X=X=X=X=X=X=X=X=X=X=X=X=X=X=X=X=X=X=X=X=X=X=X=X=X=X=X=X=X=X=X=X=X=X=X=X",
"=X=X=X=X=X=X=X=X=X=X=X=X=X=X=X=X=X=X=X=X=X=X=X=X=X=X=X=X=X=X=X=X=X=X=X=X=X=X=X=X=X=X=X=X=X=X=X=X=X=X=X=X=X=X=X=X=X=X=X=X=X=X=X=X",
"=X=X=X=X=X=X=X=X=X=X=X=X=X=X=X=X=X=X=X=X=X=X=X=X=X=X=X=X=X=X=X=X=X=X=X=X=X=X=X=X=X=X=X=X=X=X=X=X=X=X=X=X=X=X=X=X=X=X=X=X=X=X=X=X",
"=X=X=X=X=X=X=X=X=X=X=X=X=X=X=X=X=X=X=X=X=X=X=X=X=X=X=X=X=X=X=X=X=X=X=X=X=X=X=X=X=X=X=X=X=X=X=X=X=X=X=X=X=X=X=X=X=X=X=X=X=X=X=X=X",
"=X=X=X=X=X=X=X=X=X=X=X=X=X=X=X=X=X=X=X=X=X=X=X=X=X=X=X=X=X=X=X=X=X=X=X=X=X=X=X=X=X=X=X=X=X=X=X=X=X=X=X=X=X=X=X=X=X=X=X=X=X=X=X=X",
"=X=X=X=X=X=X=X=X=X=X=X=X=X=X=X=X=X=X=X=X=X=X=X=X=X=X=X=X- = < 7 1 - = = =X=X=X=X=X=X=X=X=X=X=X=X=X=X=X=X=X=X=X=X=X=X=X=X=X=X=X=X",
"=X=X=X=X=X=X=X=X=X=X=X=X=X=X=X=X=X=X=X=X=X=X=X=X=X=X=XG _ _ V g f S F _ G =X=X=X=X=X=X=X=X=X=X=X=X=X=X=X=X=X=X=X=X=X=X=X=X=X=X=X",
"=X=X=X=X=X=X=X=X=X=X=X=X=X=X=X=X=X=X=X=X=X=X=X=X=X=X- X.^.^.c./ / v.^./.{ = =X=X=X=X=X=X=X=X=X=X=X=X=X=X=X=X=X=X=X=X=X=X=X=X=X=X",
"=X=X=X=X=X=X=X=X=X=X=X=X=X=X=X=X=X=X=X=X=X=X=X=X=X=X@ | !.!.o.A A z.!.!.) @ =X=X=X=X=X=X=X=X=X=X=X=X=X=X=X=X=X=X=X=X=X=X=X=X=X=X",
"=X=X=X=X=X=X=X=X=X=X=X=X=X=X=X=X=X=X=X=X=X=X=X=X=X=Xq o.^.!.v.} X.b.W.^.{ q =X=X=X=X=X=X=X=X=X=X=X=X=X=X=X=X=X=X=X=X=X=X=X=X=X=X",
"=X=X=X=X=X=X=X=X=X=X=X=X=X=X=X=X=X=X=X=X=X=X=X0 p e / c.!.W.W.!.!.W.W.!.X.( q p 0 =X=X=X=X=X=X=X=X=X=X=X=X=X=X=X=X=X=X=X=X=X=X=X",
"=X=X=X=X=X=X=X=X=X=X=X=X=X=X=X=X=X=X=X=X=X=X2 v.R.b.A O.^.W.W.W.W.W.W.^.X.( H.R.@.# =X=X=X=X=X=X=X=X=X=X=X=X=X=X=X=X=X=X=X=X=X=X",
"=X=X=X=X=X=X=X=X=X=X=X=X=X=X=X=X=X=X=X=X=XG { W.^.W.X.O.b.W.W.W.W.W.W.b.o.X.W.^.H.{ G =X=X=X=X=X=X=X=X=X=X=X=X=X=X=X=X=X=X=X=X=X",
"=X=X=X=X=X=X=X=X=X=X=X=X=X=X=X=X=X=X=X=X% X./.W.W.W.^.z.( E.!.W.W.!.Q.z v.^.W.W.Q./.{ > =X=X=X=X=X=X=X=X=X=X=X=X=X=X=X=X=X=X=X=X",
"=X=X=X=X=X=X=X=X=X=X=X=X=X=X=X=X=X=X=X=X1 S } W.!.W.W.E.R.W.W.W.W.W.W.R.E.W.W.!.E.` Z 0 =X=X=X=X=X=X=X=X=X=X=X=X=X=X=X=X=X=X=X=X",
"=X=X=X=X=X=X=X=X=X=X=X=X=X=X=X=X=X=X=X=X=Xf S z.R.W.W.W.!.!.W.W.W.W.W.!.!.W.W.R.O.V m =X=X=X=X=X=X=X=X=X=X=X=X=X=X=X=X=X=X=X=X=X",
"=X=X=X=X=X=X=X=X=X=X=X=X=X=X=X=X=X=X=X=X=X=Xa z z.~.W.W.W.W.!.W.!.W.W.W.W.W.^.X.z r =X=X=X=X=X=X=X=X=X=X=X=X=X=X=X=X=X=X=X=X=X=X",
"=X=X=X=X=X=X=X=X=X=X=X=X=X=X=X=X=X=X=X=X=X=X=Xt Z N M M M M u M h h h M M M V k t =X=X=X=X=X=X=X=X=X=X=X=X=X=X=X=X=X=X=X=X=X=X=X",
"=X=X=X=X=X=X=X=X=X=X=X=X=X=X=X=X=X=X=X=X=X=X=X=X1 1 a s s 2.2.4.2.4.C a s r 1 1 =X=X=X=X=X=X=X=X=X=X=X=X=X=X=X=X=X=X=X=X=X=X=X=X",
"=X=X=X=X=X=X=X=X=X=X=X=X=X=X=X=X=X=X=X=X=X=X=X=X=Xa 4.4.5.M.M.M.N.N.m.5.4.2.a =X=X=X=X=X=X=X=X=X=X=X=X=X=X=X=X=X=X=X=X=X=X=X=X=X",
"=X=X=X=X=X=X=X=X=X=X=X=X=X=X=X=X=X=X=X=X=X=X=X=X=Xe n u.l.l.m.l.l.l.l.l.9.n i =X=X=X=X=X=X=X=X=X=X=X=X=X=X=X=X=X=X=X=X=X=X=X=X=X",
"=X=X=X=X=X=X=X=X=X=X=X=X=X=X=X=X=X=X=X=X=X=X=X=X=Xa 3.f.M.m.m.m.m.m.m.M.u.n a =X=X=X=X=X=X=X=X=X=X=X=X=X=X=X=X=X=X=X=X=X=X=X=X=X",
"=X=X=X=X=X=X=X=X=X=X=X=X=X=X=X=X=X=X=X=X=X=X=X=X=Xe C f.m.k.k.m.l.m.m.m.9.b e =X=X=X=X=X=X=X=X=X=X=X=X=X=X=X=X=X=X=X=X=X=X=X=X=X",
"=X=X=X=X=X=X=X=X=X=X=X=X=X=X=X=X=X=X=X=X=X=X=X=X=X=X: v 8.M.M.M.N.N.m.7.v : =X=X=X=X=X=X=X=X=X=X=X=X=X=X=X=X=X=X=X=X=X=X=X=X=X=X",
"=X=X=X=X=X=X=X=X=X=X=X=X=X=X=X=X=X=X=X=X=X=X=X=X=X=XH z v 7.7.7.7.7.7.s z H =X=X=X=X=X=X=X=X=X=X=X=X=X=X=X=X=X=X=X=X=X=X=X=X=X=X",
"=X=X=X=X=X=X=X=X=X=X=X=X=X=X=X=X=X=X=X=X=X=X=X=X=Xl Q L , 8 8 8 8 6 8 , I R d =X=X=X=X=X=X=X=X=X=X=X=X=X=X=X=X=X=X=X=X=X=X=X=X=X",
"=X=X=X=X=X=X=X=X=X=X=X=X=X=X=X=X=X=X=X=X=X=X=X=X=XO R $.B.B.B.B.B.B.B.B.$.U X =X=X=X=X=X=X=X=X=X=X=X=X=X=X=X=X=X=X=X=X=X=X=X=X=X",
"=X=X=X=X=X=X=X=X=X=X=X=X=X=X=X=X=X=X=X=X=X=X=X=XU..XJ W %.#.#.#.#.#.#.B.U ( .XI.=X=X=X=X=X=X=X=X=X=X=X=X=X=X=X=X=X=X=X=X=X=X=X=X",
"=X=X=X=X=X=X=X=X=X=X=X=X=X=X=X=X=X=X=X=X=X=X=X. oX&Xc K E T T R R R T R x t.&X.X. =X=X=X=X=X=X=X=X=X=X=X=X=X=X=X=X=X=X=X=X=X=X=X",
"=X=X=X=X=X=X=X=X=X=X=X=X=X=X=X=X=X=X=X=X=X=X=X  XX%X#XXX5 ] #.V.V.#.] o oX&X%XU.  =X=X=X=X=X=X=X=X=X=X=X=X=X=X=X=X=X=X=X=X=X=X=X",
"=X=X=X=X=X=X=X=X=X=X=X=X=X=X=X=X=X=X=X=X=X=X2.i.OX&X.XI.4 J Y ' ' Y P 4 I.OX&X.Xi.=X=X=X=X=X=X=X=X=X=X=X=X=X=X=X=X=X=X=X=X=X=X=X",
"=X=X=X=X=X=X=X=X=X=X=X=X=X=X=X=X=X=X=X=X=X=X3.XX@X*X-.-.q.4 3 ; ; 3 4 q.; w.$X@XU.d =X=X=X=X=X=X=X=X=X=X=X=X=X=X=X=X=X=X=X=X=X=X",
"=X=X=X=X=X=X=X=X=X=X=X=X=X=X=X=X=X=X=X=X=X=X% _.`. Xm c ,.C.A.A.A.A.Z.,.-.C  X`.(.@ =X=X=X=X=X=X=X=X=X=X=X=X=X=X=X=X=X=X=X=X=X=X",
"=X=X=X=X=X=X=X=X=X=X=X=X=X=X=X=X=X=X=X=X=X&.L.'.).P.w <.Z.A.S.S.S.S.S.a.c h P._.'.L.[ =X=X=X=X=X=X=X=X=X=X=X=X=X=X=X=X=X=X=X=X=X",
"=X=X=X=X=X=X=X=X=X=X=X=X=X=X=X=X=X=X=X=X+ K.{.].*.~ t w.S.C.A.A.C.S.C.D.<.h ~ (.].[.d.$ =X=X=X=X=X=X=X=X=X=X=X=X=X=X=X=X=X=X=X=X",
"=X=X=X=X=X=X=X=X=X=X=X=X=X=X=X=X=X=X=X=X+ K.[.[.K.& ,.a.S.S.S.A.C.S.C.S.w.,.* ).{.[.d.$ =X=X=X=X=X=X=X=X=X=X=X=X=X=X=X=X=X=X=X=X",
"=X=X=X=X=X=X=X=X=X=X=X=X=X=X=X=X=X=X=X=X=X .K.*.+.# ;.a.S.C.C.A.S.C.C.S.e.,.$ &.*.L...=X=X=X=X=X=X=X=X=X=X=X=X=X=X=X=X=X=X=X=X=X",
"=X=X=X=X=X=X=X=X=X=X=X=X=X=X=X=X=X=X=X=X=X=X# ^ ! > t.s.C.C.A.A.C.C.C.C.p.6.: ! ^ @ =X=X=X=X=X=X=X=X=X=X=X=X=X=X=X=X=X=X=X=X=X=X",
"=X=X=X=X=X=X=X=X=X=X=X=X=X=X=X=X=X=X=X=X=X=X=Xt q e W.d.:.A.S.S.D.D.C.:.G.R.1 a t =X=X=X=X=X=X=X=X=X=X=X=X=X=X=X=X=X=X=X=X=X=X=X",
"=X=X=X=X=X=X=X=X=X=X=X=X=X=X=X=X=X=X=X=X=X=X=X=X1 f W.x.4.f.t.<.<.t.y.3.v.E.q e =X=X=X=X=X=X=X=X=X=X=X=X=X=X=X=X=X=X=X=X=X=X=X=X",
"=X=X=X=X=X=X=X=X=X=X=X=X=X=X=X=X=X=X=X=X=X=X=X=X=Xf W.v.` ` j 6 6 B ` _ H.R.p =X=X=X=X=X=X=X=X=X=X=X=X=X=X=X=X=X=X=X=X=X=X=X=X=X",
"=X=X=X=X=X=X=X=X=X=X=X=X=X=X=X=X=X=X=X=X=X=X=X=X=Xf E.!.W.~.O./ / b.~.W.!.H.i =X=X=X=X=X=X=X=X=X=X=X=X=X=X=X=X=X=X=X=X=X=X=X=X=X",
"=X=X=X=X=X=X=X=X=X=X=X=X=X=X=X=X=X=X=X=X=X=X=X=X=Xf W.~.W.^.| t y O.^.W.~.R.a =X=X=X=X=X=X=X=X=X=X=X=X=X=X=X=X=X=X=X=X=X=X=X=X=X",
"=X=X=X=X=X=X=X=X=X=X=X=X=X=X=X=X=X=X=X=X=X=X=X=Xa f R.E.R.R.{ = - { R.R.R.b.q =X=X=X=X=X=X=X=X=X=X=X=X=X=X=X=X=X=X=X=X=X=X=X=X=X",
"=X=X=X=X=X=X=X=X=X=X=X=X=X=X=X=X=X=X=X=X=X=X=Xq 0 0 A A A 1 1 q 0 , 0 A / A 0 0 e =X=X=X=X=X=X=X=X=X=X=X=X=X=X=X=X=X=X=X=X=X=X=X",
"=X=X=X=X=X=X=X=X=X=X=X=X=X=X=X=X=X=X=X=X=X=Xa 0 7 t @.H.v.B h 9 7 k / J.@.O.0 0 0 a =X=X=X=X=X=X=X=X=X=X=X=X=X=X=X=X=X=X=X=X=X=X",
"=X=X=X=X=X=X=X=X=X=X=X=X=X=X=X=X=X=X=X=X=Xe i 0 7 t Q.Q.J._ k 7 7 V ) J.!.J.0 0 0 a =X=X=X=X=X=X=X=X=X=X=X=X=X=X=X=X=X=X=X=X=X=X",
"=X=X=X=X=X=X=X=X=X=X=X=X=X=X=X=X=X=X=X=X0 0 0 0 9 q n.0.v 4.d 7 7 v 2.d j.h.7 0 0 0 q a =X=X=X=X=X=X=X=X=X=X=X=X=X=X=X=X=X=X=X=X",
"=X=X=X=X=X=X=X=X=X=X=X=X=X=X=X=X=X=X=X=X0 i 0 0 7 e m.m.j.5.v 7 7 m 7.h.m.n.0 0 0 0 i a =X=X=X=X=X=X=X=X=X=X=X=X=X=X=X=X=X=X=X=X",
"=X=X=X=X=X=X=X=X=X=X=X=X=X=X=X=X=X=X=X=X0 0 0 0 9 e f.g.j.3.d 7 0 d 2.g.g.u.0 0 0 0 q e =X=X=X=X=X=X=X=X=X=X=X=X=X=X=X=X=X=X=X=X",
"=X=X=X=X=X=X=X=X=X=X=X=X=X=X=X=X=X=X=X=X=X=Xa 0 0 0 7 , , 0 0 9 0 0 7 , , 7 0 0 0 e =X=X=X=X=X=X=X=X=X=X=X=X=X=X=X=X=X=X=X=X=X=X",
"=X=X=X=X=X=X=X=X=X=X=X=X=X=X=X=X=X=X=X=X=X=X=X0 i q q i q p q q q q i q i i q i 0 =X=X=X=X=X=X=X=X=X=X=X=X=X=X=X=X=X=X=X=X=X=X=X",
"=X=X=X=X=X=X=X=X=X=X=X=X=X=X=X=X=X=X=X=X=X=X=Xq e e 0 e e e e e e e e q e e e e =X=X=X=X=X=X=X=X=X=X=X=X=X=X=X=X=X=X=X=X=X=X=X=X",
"=X=X=X=X=X=X=X=X=X=X=X=X=X=X=X=X=X=X=X=X=X=X=X=X=X=X=X=X=X=X=X=X=X=X=X=X=X=X=X=X=X=X=X=X=X=X=X=X=X=X=X=X=X=X=X=X=X=X=X=X=X=X=X=X",
"=X=X=X=X=X=X=X=X=X=X=X=X=X=X=X=X=X=X=X=X=X=X=X=X=X=X=X=X=X=X=X=X=X=X=X=X=X=X=X=X=X=X=X=X=X=X=X=X=X=X=X=X=X=X=X=X=X=X=X=X=X=X=X=X",
"=X=X=X=X=X=X=X=X=X=X=X=X=X=X=X=X=X=X=X=X=X=X=X=X=X=X=X=X=X=X=X=X=X=X=X=X=X=X=X=X=X=X=X=X=X=X=X=X=X=X=X=X=X=X=X=X=X=X=X=X=X=X=X=X",
"=X=X=X=X=X=X=X=X=X=X=X=X=X=X=X=X=X=X=X=X=X=X=X=X=X=X=X=X=X=X=X=X=X=X=X=X=X=X=X=X=X=X=X=X=X=X=X=X=X=X=X=X=X=X=X=X=X=X=X=X=X=X=X=X",
"=X=X=X=X=X=X=X=X=X=X=X=X=X=X=X=X=X=X=X=X=X=X=X=X=X=X=X=X=X=X=X=X=X=X=X=X=X=X=X=X=X=X=X=X=X=X=X=X=X=X=X=X=X=X=X=X=X=X=X=X=X=X=X=X",
"=X=X=X=X=X=X=X=X=X=X=X=X=X=X=X=X=X=X=X=X=X=X=X=X=X=X=X=X=X=X=X=X=X=X=X=X=X=X=X=X=X=X=X=X=X=X=X=X=X=X=X=X=X=X=X=X=X=X=X=X=X=X=X=X",
"=X=X=X=X=X=X=X=X=X=X=X=X=X=X=X=X=X=X=X=X=X=X=X=X=X=X=X=X=X=X=X=X=X=X=X=X=X=X=X=X=X=X=X=X=X=X=X=X=X=X=X=X=X=X=X=X=X=X=X=X=X=X=X=X",
"=X=X=X=X=X=X=X=X=X=X=X=X=X=X=X=X=X=X=X=X=X=X=X=X=X=X=X=X=X=X=X=X=X=X=X=X=X=X=X=X=X=X=X=X=X=X=X=X=X=X=X=X=X=X=X=X=X=X=X=X=X=X=X=X"
};
