/* XPM */
static char *result[] = {
/* columns rows colors chars-per-pixel */
"64 64 200 2 ",
"   c #2E005D",
".  c #060066",
"X  c #0B0065",
"o  c #1E0A69",
"O  c #001B64",
"+  c #230066",
"@  c #240E67",
"#  c #270468",
"$  c #251368",
"%  c #2C1A69",
"&  c #291468",
"*  c #3A1D64",
"=  c #321E69",
"-  c #340F69",
";  c #002D69",
":  c #00306D",
">  c #3B256A",
",  c #3F2A6A",
"<  c #37246A",
"1  c #352975",
"2  c #28316A",
"3  c #4B155F",
"4  c #66005B",
"5  c #441463",
"6  c #412567",
"7  c #412669",
"8  c #442A6A",
"9  c #492C6E",
"0  c #4E2861",
"q  c #502A60",
"w  c #4B326C",
"e  c #47336D",
"r  c #58376B",
"t  c #4B2E73",
"y  c #462B76",
"u  c #522D71",
"i  c #4D3474",
"p  c #4A3A7D",
"a  c #553574",
"s  c #543C75",
"d  c #543B7A",
"f  c #5A3E75",
"g  c #642E75",
"h  c #663B72",
"j  c #693D73",
"k  c #673D79",
"l  c #6E306C",
"z  c #7B4257",
"x  c #464177",
"c  c #4A4178",
"v  c #5F4C7F",
"b  c #584277",
"n  c #62416E",
"m  c #7E5164",
"M  c #644C7C",
"N  c #674478",
"B  c #7A4375",
"V  c #7D4778",
"C  c #774375",
"Z  c #7E5773",
"A  c #B36734",
"S  c #B36834",
"D  c #8E386E",
"F  c #8C316D",
"G  c #99346F",
"H  c #93386F",
"J  c #93336D",
"K  c #8A3471",
"L  c #852E6C",
"P  c #A33671",
"I  c #B43873",
"U  c #BC3A73",
"Y  c #C23B74",
"T  c #8A535D",
"R  c #96585B",
"E  c #945453",
"W  c #A25E4E",
"Q  c #9F655E",
"!  c #81516B",
"~  c #814A77",
"^  c #864E79",
"/  c #9F4274",
"(  c #835674",
")  c #855A75",
"_  c #8A5D75",
"`  c #86527B",
"'  c #8D537A",
"]  c #8C5D7D",
"[  c #845978",
"{  c #945B7B",
"}  c #905578",
"|  c #AF4676",
" . c #856F7F",
".. c #936376",
"X. c #9D6B7C",
"o. c #99647A",
"O. c #A16960",
"+. c #AC6E6A",
"@. c #A9786D",
"#. c #B97A60",
"$. c #A26E7D",
"%. c #A86F7E",
"&. c #AD737F",
"*. c #A77578",
"=. c #C37B57",
"-. c #C34076",
";. c #C54879",
":. c #DB507D",
">. c #D84D7C",
",. c #C7825D",
"<. c #CE946C",
"1. c #CD9367",
"2. c #C48B73",
"3. c #C89270",
"4. c #D99C6E",
"5. c #E2AC7D",
"6. c #432E80",
"7. c #443182",
"8. c #385890",
"9. c #224A88",
"0. c #5D4980",
"q. c #43578F",
"w. c #4C5182",
"e. c #644D82",
"r. c #684D80",
"t. c #675185",
"y. c #6C5385",
"u. c #6C5589",
"i. c #755D89",
"p. c #55658E",
"a. c #5C668D",
"s. c #4D749E",
"d. c #56779F",
"f. c #5A7097",
"g. c #546995",
"h. c #6D638D",
"j. c #766180",
"k. c #6E6F98",
"l. c #7D6593",
"z. c #6A7F9F",
"x. c #7D7A98",
"c. c #597DA3",
"v. c #607AA1",
"b. c #7979A2",
"n. c #877289",
"m. c #99728B",
"M. c #836897",
"N. c #87709B",
"B. c #A16E80",
"V. c #AF7580",
"C. c #A57788",
"Z. c #B47980",
"A. c #B47881",
"S. c #876CA3",
"D. c #9375A2",
"F. c #9879A5",
"G. c #9877A2",
"H. c #8875A2",
"J. c #EC5C84",
"K. c #F05F85",
"L. c #6D8CAB",
"P. c #6786A7",
"I. c #728DAB",
"U. c #7D8AA8",
"Y. c #7291AF",
"T. c #7494B1",
"R. c #7993B0",
"E. c #A5838D",
"W. c #BE8283",
"Q. c #B8998F",
"!. c #978FB2",
"~. c #AE90A1",
"^. c #AA98BE",
"/. c #C28684",
"(. c #C58985",
"). c #CB8D86",
"_. c #C88E88",
"`. c #D18F82",
"'. c #CE9087",
"]. c #C79386",
"[. c #D19287",
"{. c #D39388",
"}. c #D9988A",
"|. c #C1A28B",
" X c #DDBB95",
".X c #E8B787",
"XX c #D9B6B5",
"oX c #E1BDBE",
"OX c #F4CE9C",
"+X c #F5D09D",
"@X c #FBD397",
"#X c #ECC698",
"$X c #FAD4A1",
"%X c #AF9DC1",
"&X c #B6A6CB",
"*X c #E3C0C1",
"=X c #F7E6ED",
"-X c #F7ECFF",
";X c #F9EDFF",
":X c None",
/* pixels */
":X:X:X:X:X:X:X:X:X:X:X:X:X:X:X:X:X:X:X:X:X:X:X:X:X:X:X:X:X:X:X:X:X:X:X:X:X:X:X:X:X:X:X:X:X:X:X:X:X:X:X:X:X:X:X:X:X:X:X:X:X:X:X:X",
":X:X:X:X:X:X:X:X:X:X:X:X:X:X:X:X:X:X:X:X:X:X:X:X:X:X:X:X:X:X:X:X:X:X:X:X:X:X:X:X:X:X:X:X:X:X:X:X:X:X:X:X:X:X:X:X:X:X:X:X:X:X:X:X",
":X:X:X:X:X:X:X:X:X:X:X:X:X:X:X:X:X:X:X:X:X:X:X:X:X:X:X:X:X:X:X:X:X:X:X:X:X:X:X:X:X:X:X:X:X:X:X:X:X:X:X:X:X:X:X:X:X:X:X:X:X:X:X:X",
":X:X:X:X:X:X:X:X:X:X:X:X:X:X:X:X:X:X:X:X:X:X:X:X:X:X:X:X:X:X:X:X:X:X:X:X:X:X:X:X:X:X:X:X:X:X:X:X:X:X:X:X:X:X:X:X:X:X:X:X:X:X:X:X",
":X:X:X:X:X:X:X:X:X:X:X:X:X:X:X:X:X:X:X:X:X:X:X:X:X:X:X:X:X:X:X:X:X:X:X:X:X:X:X:X:X:X:X:X:X:X:X:X:X:X:X:X:X:X:X:X:X:X:X:X:X:X:X:X",
":X:X:X:X:X:X:X:X:X:X:X:X:X:X:X:X:X:X:X:X:X:X:X:X:X:X:X:X:X:X:X:X:X:X:X:X:X:X:X:X:X:X:X:X:X:X:X:X:X:X:X:X:X:X:X:X:X:X:X:X:X:X:X:X",
":X:X:X:X:X:X:X:X:X:X:X:X:X:X:X:X:X:X:X:X:X:X:X:X:X:X:X:X:X:X:X:X:X:X:X:X:X:X:X:X:X:X:X:X:X:X:X:X:X:X:X:X:X:X:X:X:X:X:X:X:X:X:X:X",
":X:X:X:X:X:X:X:X:X:X:X:X:X:X:X:X:X:X:X:X:X:X:X:X:X:X:X:X:X:X:X:X:X:X:X:X:X:X:X:X:X:X:X:X:X:X:X:X:X:X:X:X:X:X:X:X:X:X:X:X:X:X:X:X",
":X:X:X:X:X:X:X:X:X:X:X:X:X:X:X:X:X:X:X:X:X:X:X:X:X:X:X:X:X:X:X:X:X:X:X:X:X:X:X:X:X:X:X:X:X:X:X:X:X:X:X:X:X:X:X:X:X:X:X:X:X:X:X:X",
":X:X:X:X:X:X:X:X:X:X:X:X:X:X:X:X:X:X:X:X:X:X:X:X:X:X:X:X& @ < , , = o $ :X:X:X:X:X:X:X:X:X:X:X:X:X:X:X:X:X:X:X:X:X:X:X:X:X:X:X:X",
":X:X:X:X:X:X:X:X:X:X:X:X:X:X:X:X:X:X:X:X:X:X:X:X:X:X:X) B.X.) j j _ X.$.( :X:X:X:X:X:X:X:X:X:X:X:X:X:X:X:X:X:X:X:X:X:X:X:X:X:X:X",
":X:X:X:X:X:X:X:X:X:X:X:X:X:X:X:X:X:X:X:X:X:X:X:X:X:X@ B.}.{.V.^ ` Z.}.}.X.% :X:X:X:X:X:X:X:X:X:X:X:X:X:X:X:X:X:X:X:X:X:X:X:X:X:X",
":X:X:X:X:X:X:X:X:X:X:X:X:X:X:X:X:X:X:X:X:X:Xw % $ < X ..[.).&.B C V.).'...X = $ = w :X:X:X:X:X:X:X:X:X:X:X:X:X:X:X:X:X:X:X:X:X:X",
":X:X:X:X:X:X:X:X:X:X:X:X:X:X:X:X:X:X:X:X:X6 > ..$.$.h $.[.).W.&.V./.'.'.X.j $.$...= 8 :X:X:X:X:X:X:X:X:X:X:X:X:X:X:X:X:X:X:X:X:X",
":X:X:X:X:X:X:X:X:X:X:X:X:X:X:X:X:X:X:X:X9 a n _.{.[.{ &.).).'.{.'.'.).).V.{ {.}./.r d 7 :X:X:X:X:X:X:X:X:X:X:X:X:X:X:X:X:X:X:X:X",
":X:X:X:X:X:X:X:X:X:X:X:X:X:X:X:X:X:X:X:X% _ '.).).).).&.~ ).).).).'.(.V &.).).)._.'.[ @ :X:X:X:X:X:X:X:X:X:X:X:X:X:X:X:X:X:X:X:X",
":X:X:X:X:X:X:X:X:X:X:X:X:X:X:X:X:X:X:X:X& ..{._.).).[./.&.[.).).'.).).&./.[.).).).{.[ @ :X:X:X:X:X:X:X:X:X:X:X:X:X:X:X:X:X:X:X:X",
":X:X:X:X:X:X:X:X:X:X:X:X:X:X:X:X:X:X:X:X% ) _._.).).).).[.).).).).).'.[.).).).)._.(.Z & :X:X:X:X:X:X:X:X:X:X:X:X:X:X:X:X:X:X:X:X",
":X:X:X:X:X:X:X:X:X:X:X:X:X:X:X:X:X:X:X:X8 j ' (.{.{.{.{.{.[.[.[.{.{.[.[.{.{.{.{./.^ k , :X:X:X:X:X:X:X:X:X:X:X:X:X:X:X:X:X:X:X:X",
":X:X:X:X:X:X:X:X:X:X:X:X:X:X:X:X:X:X:X:X:Xa j ) _ _ ) ( ! _ _ ) ) _ _ ! ( ) _ _ [ j r :X:X:X:X:X:X:X:X:X:X:X:X:X:X:X:X:X:X:X:X:X",
":X:X:X:X:X:X:X:X:X:X:X:X:X:X:X:X:X:X:X:X:X:X7 % & % q M h.% 6 r r * % h.M 0 % $ % 8 :X:X:X:X:X:X:X:X:X:X:X:X:X:X:X:X:X:X:X:X:X:X",
":X:X:X:X:X:X:X:X:X:X:X:X:X:X:X:X:X:X:X:X:X:X:X:X:Xb A *X-Xb R ,.,.T v ;XXXA d :X:X:X:X:X:X:X:X:X:X:X:X:X:X:X:X:X:X:X:X:X:X:X:X:X",
":X:X:X:X:X:X:X:X:X:X:X:X:X:X:X:X:X:X:X:X:X:X:X:X:Xd A #X-X1 T =.=.z c ;XXXS i :X:X:X:X:X:X:X:X:X:X:X:X:X:X:X:X:X:X:X:X:X:X:X:X:X",
":X:X:X:X:X:X:X:X:X:X:X:X:X:X:X:X:X:X:X:X:X:X:X:X:Xd Q XX=X .@.<.<.@.n.=XXXW i :X:X:X:X:X:X:X:X:X:X:X:X:X:X:X:X:X:X:X:X:X:X:X:X:X",
":X:X:X:X:X:X:X:X:X:X:X:X:X:X:X:X:X:X:X:X:X:X:X:X:Xd 7.Q.@XOX+X+X+X+XOX@XQ.y d :X:X:X:X:X:X:X:X:X:X:X:X:X:X:X:X:X:X:X:X:X:X:X:X:X",
":X:X:X:X:X:X:X:X:X:X:X:X:X:X:X:X:X:X:X:X:X:X:X:X:X:X< j.E.1.].~.~.].1.E.i.< :X:X:X:X:X:X:X:X:X:X:X:X:X:X:X:X:X:X:X:X:X:X:X:X:X:X",
":X:X:X:X:X:X:X:X:X:X:X:X:X:X:X:X:X:X:X:X:X:X:X:X:X:Xl g d +.m.S.N.C.+.p g l :X:X:X:X:X:X:X:X:X:X:X:X:X:X:X:X:X:X:X:X:X:X:X:X:X:X",
":X:X:X:X:X:X:X:X:X:X:X:X:X:X:X:X:X:X:X:X:X:X:X:X:Xa U G 2 D.F.F.G.F.S.2 P I i :X:X:X:X:X:X:X:X:X:X:X:X:X:X:X:X:X:X:X:X:X:X:X:X:X",
":X:X:X:X:X:X:X:X:X:X:X:X:X:X:X:X:X:X:X:X:X:X:X:X:Xu U U P d x c x p f P U I t :X:X:X:X:X:X:X:X:X:X:X:X:X:X:X:X:X:X:X:X:X:X:X:X:X",
":X:X:X:X:X:X:X:X:X:X:X:X:X:X:X:X:X:X:X:X:X:X:X:X:Xu G I U H D H D D G U I G 9 :X:X:X:X:X:X:X:X:X:X:X:X:X:X:X:X:X:X:X:X:X:X:X:X:X",
":X:X:X:X:X:X:X:X:X:X:X:X:X:X:X:X:X:X:X:X:X:X:X:X:X9 O L Y J.K.J.J.K.J.Y K ; :X, w :X:X:X:X:X:X:X:X:X:X:X:X:X:X:X:X:X:X:X:X:X:X:X",
":X:X:X:X:X:X:X:X:X:X:X:X:X:X:X:X:X:X:X:X:X:X:X  l.%X%XN.4 -.:.J.J.>.Y g T #.OX<.R 8 :X:X:X:X:X:X:X:X:X:X:X:X:X:X:X:X:X:X:X:X:X:X",
":X:X:X:X:X:X:X:X:X:X:X:X:X:X:X:X:X:X:X:X:X:X:X  N.&X^.b.w.K ;.J.J.;.L o @.5.$X.X2.y :X:X:X:X:X:X:X:X:X:X:X:X:X:X:X:X:X:X:X:X:X:X",
":X:X:X:X:X:X:X:X:X:X:X:X:X:X:X:X:X:X:X:X:X:X:X  N.&X8.d.R.: | J.J./ ; o |.+X#X+X X- :X:X:X:X:X:X:X:X:X:X:X:X:X:X:X:X:X:X:X:X:X:X",
":X:X:X:X:X:X:X:X:X:X:X:X:X:X:X:X:X:X:X:X:X:X:X% ..2.r g.T.L.k.i.!.U.P.  O.4.$X5.#.y :X:X:X:X:X:X:X:X:X:X:X:X:X:X:X:X:X:X:X:X:X:X",
":X:X:X:X:X:X:X:X:X:X:X:X:X:X:X:X:X:X:X:X:X:X:X:Xm Q 3 a.T.Y.P.s.d.P.I.p...O.|.@.T e :X:X:X:X:X:X:X:X:X:X:X:X:X:X:X:X:X:X:X:X:X:X",
":X:X:X:X:X:X:X:X:X:X:X:X:X:X:X:X:X:X:X:X:X:X:X:X:X1 5 a.Y.L.Y.L.q.v.Y.T.p.+ . @ < :X:X:X:X:X:X:X:X:X:X:X:X:X:X:X:X:X:X:X:X:X:X:X",
":X:X:X:X:X:X:X:X:X:X:X:X:X:X:X:X:X:X:X:X:X:X:X:X:Xi 9.c.Y.Y.z.g.L.L.I.T.p.  :X:X:X:X:X:X:X:X:X:X:X:X:X:X:X:X:X:X:X:X:X:X:X:X:X:X",
":X:X:X:X:X:X:X:X:X:X:X:X:X:X:X:X:X:X:X:X:X:X:X:X:Xi m.x.P.Y.d.c Y.Y.I.c.n...:X:X:X:X:X:X:X:X:X:X:X:X:X:X:X:X:X:X:X:X:X:X:X:X:X:X",
":X:X:X:X:X:X:X:X:X:X:X:X:X:X:X:X:X:X:X:X:X:X:X:X:Xw ).C.8.Y.a.9 L.I.I.8.E.).y :X:X:X:X:X:X:X:X:X:X:X:X:X:X:X:X:X:X:X:X:X:X:X:X:X",
":X:X:X:X:X:X:X:X:X:X:X:X:X:X:X:X:X:X:X:X:X:X:X:X:Xa (.)./.] ` ^ M.} { ).{./.9 :X:X:X:X:X:X:X:X:X:X:X:X:X:X:X:X:X:X:X:X:X:X:X:X:X",
":X:X:X:X:X:X:X:X:X:X:X:X:X:X:X:X:X:X:X:X:X:X:X:X:Xa ).[.).' B n l j } &.V.$.t :X:X:X:X:X:X:X:X:X:X:X:X:X:X:X:X:X:X:X:X:X:X:X:X:X",
":X:X:X:X:X:X:X:X:X:X:X:X:X:X:X:X:X:X:X:X:X:X:X:X:Xa (.).(.{ h < < N ` B V C 8 :X:X:X:X:X:X:X:X:X:X:X:X:X:X:X:X:X:X:X:X:X:X:X:X:X",
":X:X:X:X:X:X:X:X:X:X:X:X:X:X:X:X:X:X:X:X:X:X:X:X:Xt ~ ^ ^ ^ j 6 M r.r.y.N w :X:X:X:X:X:X:X:X:X:X:X:X:X:X:X:X:X:X:X:X:X:X:X:X:X:X",
":X:X:X:X:X:X:X:X:X:X:X:X:X:X:X:X:X:X:X:X:X:X:X:X:Xa V.A.&.' j , t.e.e.t.d 7 :X:X:X:X:X:X:X:X:X:X:X:X:X:X:X:X:X:X:X:X:X:X:X:X:X:X",
":X:X:X:X:X:X:X:X:X:X:X:X:X:X:X:X:X:X:X:X:X:X:X:X:Xa /._._.] h 8 e.e.0.r.s 8 :X:X:X:X:X:X:X:X:X:X:X:X:X:X:X:X:X:X:X:X:X:X:X:X:X:X",
":X:X:X:X:X:X:X:X:X:X:X:X:X:X:X:X:X:X:X:X:X:X:X9 7 * 0.e.e.t.s 6 8 8 8 8 8 7 8 8 8 :X:X:X:X:X:X:X:X:X:X:X:X:X:X:X:X:X:X:X:X:X:X:X",
":X:X:X:X:X:X:X:X:X:X:X:X:X:X:X:X:X:X:X:X:X:Xw > b l.M.i.v t.b 6 8 8 8 8 8 8 8 8 8 w :X:X:X:X:X:X:X:X:X:X:X:X:X:X:X:X:X:X:X:X:X:X",
":X:X:X:X:X:X:X:X:X:X:X:X:X:X:X:X:X:X:X:X:X:Xi * y.F.G.M.t.t.s 6 8 8 8 8 8 8 7 8 8 t :X:X:X:X:X:X:X:X:X:X:X:X:X:X:X:X:X:X:X:X:X:X",
":X:X:X:X:X:X:X:X:X:X:X:X:X:X:X:X:X:X:X:X9 9 8 * y.F.D.F.G.u.s 6 8 8 6 8 8 8 8 8 8 8 9 8 :X:X:X:X:X:X:X:X:X:X:X:X:X:X:X:X:X:X:X:X",
":X:X:X:X:X:X:X:X:X:X:X:X:X:X:X:X:X:X:X:Xw t 8 6 s r.M r.M a w 7 8 8 8 8 8 8 8 8 8 8 t 8 :X:X:X:X:X:X:X:X:X:X:X:X:X:X:X:X:X:X:X:X",
":X:X:X:X:X:X:X:X:X:X:X:X:X:X:X:X:X:X:X:X8 8 8 8 6 * * * * 8 7 8 8 8 8 8 8 8 7 8 8 8 8 7 :X:X:X:X:X:X:X:X:X:X:X:X:X:X:X:X:X:X:X:X",
":X:X:X:X:X:X:X:X:X:X:X:X:X:X:X:X:X:X:X:X:X:Xt 8 8 8 8 8 8 8 7 8 6 8 8 8 8 8 7 8 8 i :X:X:X:X:X:X:X:X:X:X:X:X:X:X:X:X:X:X:X:X:X:X",
":X:X:X:X:X:X:X:X:X:X:X:X:X:X:X:X:X:X:X:X:X:X:X9 t 9 9 9 9 t 9 9 9 9 9 9 9 9 9 t 8 :X:X:X:X:X:X:X:X:X:X:X:X:X:X:X:X:X:X:X:X:X:X:X",
":X:X:X:X:X:X:X:X:X:X:X:X:X:X:X:X:X:X:X:X:X:X:X9 6 8 8 8 8 8 8 8 8 7 6 9 8 7 8 8 8 :X:X:X:X:X:X:X:X:X:X:X:X:X:X:X:X:X:X:X:X:X:X:X",
":X:X:X:X:X:X:X:X:X:X:X:X:X:X:X:X:X:X:X:X:X:X:X:X:X:X:X:X:X:X:X:X:X:X:X:X:X:X:X:X:X:X:X:X:X:X:X:X:X:X:X:X:X:X:X:X:X:X:X:X:X:X:X:X",
":X:X:X:X:X:X:X:X:X:X:X:X:X:X:X:X:X:X:X:X:X:X:X:X:X:X:X:X:X:X:X:X:X:X:X:X:X:X:X:X:X:X:X:X:X:X:X:X:X:X:X:X:X:X:X:X:X:X:X:X:X:X:X:X",
":X:X:X:X:X:X:X:X:X:X:X:X:X:X:X:X:X:X:X:X:X:X:X:X:X:X:X:X:X:X:X:X:X:X:X:X:X:X:X:X:X:X:X:X:X:X:X:X:X:X:X:X:X:X:X:X:X:X:X:X:X:X:X:X",
":X:X:X:X:X:X:X:X:X:X:X:X:X:X:X:X:X:X:X:X:X:X:X:X:X:X:X:X:X:X:X:X:X:X:X:X:X:X:X:X:X:X:X:X:X:X:X:X:X:X:X:X:X:X:X:X:X:X:X:X:X:X:X:X",
":X:X:X:X:X:X:X:X:X:X:X:X:X:X:X:X:X:X:X:X:X:X:X:X:X:X:X:X:X:X:X:X:X:X:X:X:X:X:X:X:X:X:X:X:X:X:X:X:X:X:X:X:X:X:X:X:X:X:X:X:X:X:X:X",
":X:X:X:X:X:X:X:X:X:X:X:X:X:X:X:X:X:X:X:X:X:X:X:X:X:X:X:X:X:X:X:X:X:X:X:X:X:X:X:X:X:X:X:X:X:X:X:X:X:X:X:X:X:X:X:X:X:X:X:X:X:X:X:X",
":X:X:X:X:X:X:X:X:X:X:X:X:X:X:X:X:X:X:X:X:X:X:X:X:X:X:X:X:X:X:X:X:X:X:X:X:X:X:X:X:X:X:X:X:X:X:X:X:X:X:X:X:X:X:X:X:X:X:X:X:X:X:X:X",
":X:X:X:X:X:X:X:X:X:X:X:X:X:X:X:X:X:X:X:X:X:X:X:X:X:X:X:X:X:X:X:X:X:X:X:X:X:X:X:X:X:X:X:X:X:X:X:X:X:X:X:X:X:X:X:X:X:X:X:X:X:X:X:X",
":X:X:X:X:X:X:X:X:X:X:X:X:X:X:X:X:X:X:X:X:X:X:X:X:X:X:X:X:X:X:X:X:X:X:X:X:X:X:X:X:X:X:X:X:X:X:X:X:X:X:X:X:X:X:X:X:X:X:X:X:X:X:X:X"
};
