/* XPM */
static char *result[] = {
/* columns rows colors chars-per-pixel */
"64 64 189 2 ",
"   c #1D005A",
".  c #240058",
"X  c #37005E",
"o  c #0B0467",
"O  c #000066",
"+  c #1A0466",
"@  c #210966",
"#  c #2A0465",
"$  c #2A1364",
"%  c #26126C",
"&  c #291569",
"*  c #2B1B6A",
"=  c #261667",
"-  c #331F6B",
";  c #371B65",
":  c #0C2066",
">  c #002768",
",  c #1F2369",
"<  c #212267",
"1  c #35246C",
"2  c #3C246C",
"3  c #3E296A",
"4  c #372166",
"5  c #30366F",
"6  c #3C2B73",
"7  c #332971",
"8  c #47035D",
"9  c #760058",
"0  c #7A1D65",
"q  c #412567",
"w  c #43266B",
"e  c #452A6A",
"r  c #492E6C",
"t  c #4B336D",
"y  c #46306F",
"u  c #523C6E",
"i  c #55356E",
"p  c #452972",
"a  c #4B2D72",
"s  c #4E2F78",
"d  c #453571",
"f  c #4D3374",
"g  c #483577",
"h  c #533575",
"j  c #5D3670",
"k  c #543F77",
"l  c #563879",
"z  c #642968",
"x  c #7F2367",
"c  c #61386F",
"v  c #633772",
"b  c #623873",
"n  c #603C7A",
"m  c #753E76",
"M  c #55417B",
"N  c #5A447B",
"B  c #5F497F",
"V  c #554F7F",
"C  c #474C7A",
"Z  c #774B67",
"A  c #624A7E",
"S  c #694475",
"D  c #744273",
"F  c #7A4375",
"G  c #7B4E73",
"H  c #7D4E79",
"J  c #744E75",
"K  c #64507F",
"L  c #7B5376",
"P  c #6B446D",
"I  c #80005D",
"U  c #90336F",
"Y  c #9E3570",
"T  c #9D3B74",
"R  c #A23B73",
"E  c #B43571",
"W  c #B93772",
"Q  c #B43973",
"!  c #BA3B74",
"~  c #C33D75",
"^  c #A7695D",
"/  c #B76D50",
"(  c #AE6A49",
")  c #854E77",
"_  c #864D78",
"`  c #884B73",
"'  c #825576",
"]  c #875B75",
"[  c #8A5D77",
"{  c #8B547A",
"}  c #875A7C",
"|  c #985E7B",
" . c #BF4578",
".. c #A74578",
"X. c #8E6078",
"o. c #946673",
"O. c #91627B",
"+. c #9B6B79",
"@. c #B07260",
"#. c #A46B7E",
"$. c #A96E7E",
"%. c #AB727F",
"&. c #A8757B",
"*. c #B4787E",
"=. c #C57E51",
"-. c #C44C7A",
";. c #C64278",
":. c #D2487A",
">. c #C9517C",
",. c #C88159",
"<. c #D89B6E",
"1. c #C18574",
"2. c #DBA97C",
"3. c #015291",
"4. c #3B568C",
"5. c #3B5F94",
"6. c #2D4684",
"7. c #414782",
"8. c #564683",
"9. c #45588F",
"0. c #595889",
"q. c #634D82",
"w. c #665184",
"e. c #6A5284",
"r. c #6E578C",
"t. c #71598C",
"y. c #546C97",
"u. c #51729F",
"i. c #6B6085",
"p. c #656D99",
"a. c #7C6292",
"s. c #7E6F91",
"d. c #687E9F",
"f. c #6B749A",
"g. c #7B7091",
"h. c #5B78A1",
"j. c #687FA0",
"k. c #855D82",
"l. c #966A83",
"z. c #826696",
"x. c #8B6C9A",
"c. c #886997",
"v. c #88729A",
"b. c #92739F",
"n. c #816585",
"m. c #AC7A86",
"M. c #B17680",
"N. c #B97C82",
"B. c #B57882",
"V. c #9374A1",
"C. c #9778A4",
"Z. c #D65780",
"A. c #E45580",
"S. c #E95882",
"D. c #6484A7",
"F. c #6D8DAC",
"G. c #708FAD",
"H. c #7291AF",
"J. c #7393B0",
"K. c #BC8282",
"L. c #B0828A",
"P. c #BC939E",
"I. c #A48783",
"U. c #969ABD",
"Y. c #A894B6",
"T. c #B59CBC",
"R. c #B399B3",
"E. c #BFA4B2",
"W. c #C38682",
"Q. c #C68985",
"!. c #CB8D86",
"~. c #C68D89",
"^. c #CE9087",
"/. c #C5918E",
"(. c #D09187",
"). c #D39388",
"_. c #D8978A",
"`. c #CFAF91",
"'. c #D0AD8E",
"]. c #E6BB8F",
"[. c #F3CC9A",
"{. c #F9D49F",
"}. c #B4A5CB",
"|. c #B8B0CA",
" X c #C9BAD9",
".X c #DACEE3",
"XX c #F6E7FA",
"oX c #FFF7FF",
"OX c None",
/* pixels */
"OXOXOXOXOXOXOXOXOXOXOXOXOXOXOXOXOXOXOXOXOXOXOXOXOXOXOXOXOXOXOXOXOXOXOXOXOXOXOXOXOXOXOXOXOXOXOXOXOXOXOXOXOXOXOXOXOXOXOXOXOXOXOXOX",
"OXOXOXOXOXOXOXOXOXOXOXOXOXOXOXOXOXOXOXOXOXOXOXOXOXOXOXOXOXOXOXOXOXOXOXOXOXOXOXOXOXOXOXOXOXOXOXOXOXOXOXOXOXOXOXOXOXOXOXOXOXOXOXOX",
"OXOXOXOXOXOXOXOXOXOXOXOXOXOXOXOXOXOXOXOXOXOXOXOXOXOXOXOXOXOXOXOXOXOXOXOXOXOXOXOXOXOXOXOXOXOXOXOXOXOXOXOXOXOXOXOXOXOXOXOXOXOXOXOX",
"OXOXOXOXOXOXOXOXOXOXOXOXOXOXOXOXOXOXOXOXOXOXOXOXOXOXOXOXOXOXOXOXOXOXOXOXOXOXOXOXOXOXOXOXOXOXOXOXOXOXOXOXOXOXOXOXOXOXOXOXOXOXOXOX",
"OXOXOXOXOXOXOXOXOXOXOXOXOXOXOXOXOXOXOXOXOXOXOXOXOXOXOXOXOXOXOXOXOXOXOXOXOXOXOXOXOXOXOXOXOXOXOXOXOXOXOXOXOXOXOXOXOXOXOXOXOXOXOXOX",
"OXOXOXOXOXOXOXOXOXOXOXOXOXOXOXOXOXOXOXOXOXOXOXOXOXOXOXOXOXOXOXOXOXOXOXOXOXOXOXOXOXOXOXOXOXOXOXOXOXOXOXOXOXOXOXOXOXOXOXOXOXOXOXOX",
"OXOXOXOXOXOXOXOXOXOXOXOXOXOXOXOXOXOXOXOXOXOXOXOXOXOXOXOXOXOXOXOXOXOXOXOXOXOXOXOXOXOXOXOXOXOXOXOXOXOXOXOXOXOXOXOXOXOXOXOXOXOXOXOX",
"OXOXOXOXOXOXOXOXOXOXOXOXOXOXOXOXOXOXOXOXOXOXOXOXOXOXOXOXOXOXOXOXOXOXOXOXOXOXOXOXOXOXOXOXOXOXOXOXOXOXOXOXOXOXOXOXOXOXOXOXOXOXOXOX",
"OXOXOXOXOXOXOXOXOXOXOXOXOXOXOXOXOXOXOXOXOXOXOXOXOXOXOXOXOXOXOXOXOXOXOXOXOXOXOXOXOXOXOXOXOXOXOXOXOXOXOXOXOXOXOXOXOXOXOXOXOXOXOXOX",
"OXOXOXOXOXOXOXOXOXOXOXOXOXOXOXOXOXOXOXOXOXOXOXOXOXOXOXOX1 * 1 3 e 1 + @ OXOXOXOXOXOXOXOXOXOXOXOXOXOXOXOXOXOXOXOXOXOXOXOXOXOXOXOX",
"OXOXOXOXOXOXOXOXOXOXOXOXOXOXOXOXOXOXOXOXOXOXOXOXOXOXOXL O.[ G b b L X.l.J OXOXOXOXOXOXOXOXOXOXOXOXOXOXOXOXOXOXOXOXOXOXOXOXOXOXOX",
"OXOXOXOXOXOXOXOXOXOXOXOXOXOXOXOXOXOXOXOXOXOXOXOXOXOX& +._.).M._ { N.)._.l.& OXOXOXOXOXOXOXOXOXOXOXOXOXOXOXOXOXOXOXOXOXOXOXOXOXOX",
"OXOXOXOXOXOXOXOXOXOXOXOXOXOXOXOXOXOXOXOXOXOXt 4 1 1 o O.(.^.%.F F %.^.^.] o 4 * 1 t OXOXOXOXOXOXOXOXOXOXOXOXOXOXOXOXOXOXOXOXOXOX",
"OXOXOXOXOXOXOXOXOXOXOXOXOXOXOXOXOXOXOXOXOXt a ' X.X.j +.(.!.N.#.#.K.^.(.o.c X.X.' w t OXOXOXOXOXOXOXOXOXOXOXOXOXOXOXOXOXOXOXOXOX",
"OXOXOXOXOXOXOXOXOXOXOXOXOXOXOXOXOXOXOXOXy p r Q._.!.{ %.(.!.!.(.(.^.!.(.#.| )._.K.- a e OXOXOXOXOXOXOXOXOXOXOXOXOXOXOXOXOXOXOXOX",
"OXOXOXOXOXOXOXOXOXOXOXOXOXOXOXOXOXOXOXOX* [ !.!.!.!.!.%.{ !.!.!.!.!.Q._ M.!.!.!.!.~.L $ OXOXOXOXOXOXOXOXOXOXOXOXOXOXOXOXOXOXOXOX",
"OXOXOXOXOXOXOXOXOXOXOXOXOXOXOXOXOXOXOXOX1 L N.!.^.!.(.K.$.!.!.!.!.!.!.$.W.(.!.(.~.B.J ; OXOXOXOXOXOXOXOXOXOXOXOXOXOXOXOXOXOXOXOX",
"OXOXOXOXOXOXOXOXOXOXOXOXOXOXOXOXOXOXOXOXe j _ W.!.!.!.!.^.!.!.!.!.!.!.^.!.!.!.!.N.F j 3 OXOXOXOXOXOXOXOXOXOXOXOXOXOXOXOXOXOXOXOX",
"OXOXOXOXOXOXOXOXOXOXOXOXOXOXOXOXOXOXOXOXOXOXn _ B._.).).).(.).(.).(.^.^.).).).$.) l OXOXOXOXOXOXOXOXOXOXOXOXOXOXOXOXOXOXOXOXOXOX",
"OXOXOXOXOXOXOXOXOXOXOXOXOXOXOXOXOXOXOXOXOXOXt v ' +.+.+.+.+.+.+.+.+.+.+.+.+.+.L v OXOXOXOXOXOXOXOXOXOXOXOXOXOXOXOXOXOXOXOXOXOXOX",
"OXOXOXOXOXOXOXOXOXOXOXOXOXOXOXOXOXOXOXOXOXOXOXe 4 @ & & * - - - - - - & & & @ 2 e OXOXOXOXOXOXOXOXOXOXOXOXOXOXOXOXOXOXOXOXOXOXOX",
"OXOXOXOXOXOXOXOXOXOXOXOXOXOXOXOXOXOXOXOXOXOXOXOXt h q.q.q.x.V.V.b.b.x.q.q.A r OXOXOXOXOXOXOXOXOXOXOXOXOXOXOXOXOXOXOXOXOXOXOXOXOX",
"OXOXOXOXOXOXOXOXOXOXOXOXOXOXOXOXOXOXOXOXOXOXOXOXOXa q.t.z.V.V.V.V.V.V.z.r.B r OXOXOXOXOXOXOXOXOXOXOXOXOXOXOXOXOXOXOXOXOXOXOXOXOX",
"OXOXOXOXOXOXOXOXOXOXOXOXOXOXOXOXOXOXOXOXOXOXOXOXOXa B a.C.V.V.V.V.V.V.C.a.M r OXOXOXOXOXOXOXOXOXOXOXOXOXOXOXOXOXOXOXOXOXOXOXOXOX",
"OXOXOXOXOXOXOXOXOXOXOXOXOXOXOXOXOXOXOXOXOXOXOXOXOXl 8.z.C.V.V.V.V.b.b.C.a.N s OXOXOXOXOXOXOXOXOXOXOXOXOXOXOXOXOXOXOXOXOXOXOXOXOX",
"OXOXOXOXOXOXOXOXOXOXOXOXOXOXOXOXOXOXOXOXOXOXOXOXOXOXd q.a.V.V.V.V.V.b.z.q.d OXOXOXOXOXOXOXOXOXOXOXOXOXOXOXOXOXOXOXOXOXOXOXOXOXOX",
"OXOXOXOXOXOXOXOXOXOXOXOXOXOXOXOXOXOXOXOXOXOXOXOXOXOXz v q.c.x.x.x.x.c.8.b z OXOXOXOXOXOXOXOXOXOXOXOXOXOXOXOXOXOXOXOXOXOXOXOXOXOX",
"OXOXOXOXOXOXOXOXOXOXOXOXOXOXOXOXOXOXOXOXOXOXOXOXOXl ! U > < : : : : < > Y Q d OXOXOXOXOXOXOXOXOXOXOXOXOXOXOXOXOXOXOXOXOXOXOXOXOX",
"OXOXOXOXOXOXOXOXOXOXOXOXOXOXOXOXOXOXOXOXOXOXOX. . X ! Q R -.>.>.>.>.-.Y W E $ ; OXOXOXOXOXOXOXOXOXOXOXOXOXOXOXOXOXOXOXOXOXOXOXOX",
"OXOXOXOXOXOXOXOXOXOXOXOXOXOXOXOXOXOXOXOXOXOXOXg.v.v...! ~ A.S.S.S.S.:.~ Q T w.r.w.OXOXOXOXOXOXOXOXOXOXOXOXOXOXOXOXOXOXOXOXOXOXOX",
"OXOXOXOXOXOXOXOXOXOXOXOXOXOXOXOXOXOXOXOXOXOXg XXoXXX5 9 ;.W W E W W E W 0 V }.}.Y.p OXOXOXOXOXOXOXOXOXOXOXOXOXOXOXOXOXOXOXOXOXOX",
"OXOXOXOXOXOXOXOXOXOXOXOXOXOXOXOXOXOXOXOX7 Z ^  X X X.XR.9 ! :.A.:.:.E U l p.}.P.&.2 OXOXOXOXOXOXOXOXOXOXOXOXOXOXOXOXOXOXOXOXOXOX",
"OXOXOXOXOXOXOXOXOXOXOXOXOXOXOXOXOXOXOXOX% o.<.E.R.R.XX|.< R -.>.S.-.T C 4.f.R.1.( 6 OXOXOXOXOXOXOXOXOXOXOXOXOXOXOXOXOXOXOXOXOXOX",
"OXOXOXOXOXOXOXOXOXOXOXOXOXOXOXOXOXOXOXOXO I.{.[.2./ T.U.F.r $ & = X d H.y.i.,.,.@.p OXOXOXOXOXOXOXOXOXOXOXOXOXOXOXOXOXOXOXOXOXOX",
"OXOXOXOXOXOXOXOXOXOXOXOXOXOXOXOXOXOXOXOX% o.<.[.[.].n.f.H.d.d.d.D.D.d.H.h.0.Z G Z OXOXOXOXOXOXOXOXOXOXOXOXOXOXOXOXOXOXOXOXOXOXOX",
"OXOXOXOXOXOXOXOXOXOXOXOXOXOXOXOXOXOXOXOX6 Z ^ '.`.'.u y.H.H.J.J.H.H.H.H.u.7.1 1 7 OXOXOXOXOXOXOXOXOXOXOXOXOXOXOXOXOXOXOXOXOXOXOX",
"OXOXOXOXOXOXOXOXOXOXOXOXOXOXOXOXOXOXOXOXOXOX6 # @ @ 9.h.J.F.G.G.G.G.G.H.0.8 OXOXOXOXOXOXOXOXOXOXOXOXOXOXOXOXOXOXOXOXOXOXOXOXOXOX",
"OXOXOXOXOXOXOXOXOXOXOXOXOXOXOXOXOXOXOXOXOXOXOXOXi u 4.h.J.G.H.F.G.G.H.H.u.6.u OXOXOXOXOXOXOXOXOXOXOXOXOXOXOXOXOXOXOXOXOXOXOXOXOX",
"OXOXOXOXOXOXOXOXOXOXOXOXOXOXOXOXOXOXOXOXOXOXOXOXOXf w.p.D.F.G.G.G.H.G.D.g.a.p OXOXOXOXOXOXOXOXOXOXOXOXOXOXOXOXOXOXOXOXOXOXOXOXOX",
"OXOXOXOXOXOXOXOXOXOXOXOXOXOXOXOXOXOXOXOXOXOXOXOXOXa ` e.5.F.H.F.F.F.F.3.L.W.1 OXOXOXOXOXOXOXOXOXOXOXOXOXOXOXOXOXOXOXOXOXOXOXOXOX",
"OXOXOXOXOXOXOXOXOXOXOXOXOXOXOXOXOXOXOXOXOXOXOXOXOXa _ { L k.k.l./././.~.^.K.2 OXOXOXOXOXOXOXOXOXOXOXOXOXOXOXOXOXOXOXOXOXOXOXOXOX",
"OXOXOXOXOXOXOXOXOXOXOXOXOXOXOXOXOXOXOXOXOXOXOXOXOXa D D D H D F &.&.*.*.Q.K.2 OXOXOXOXOXOXOXOXOXOXOXOXOXOXOXOXOXOXOXOXOXOXOXOXOX",
"OXOXOXOXOXOXOXOXOXOXOXOXOXOXOXOXOXOXOXOXOXOXOXOXOXa 2 2 3 0.l ; o v ) m N.W.2 OXOXOXOXOXOXOXOXOXOXOXOXOXOXOXOXOXOXOXOXOXOXOXOXOX",
"OXOXOXOXOXOXOXOXOXOXOXOXOXOXOXOXOXOXOXOXOXOXOXOXOXa A q.q.e.k e t q P ~.).K.2 OXOXOXOXOXOXOXOXOXOXOXOXOXOXOXOXOXOXOXOXOXOXOXOXOX",
"OXOXOXOXOXOXOXOXOXOXOXOXOXOXOXOXOXOXOXOXOXOXOXOXOXa N N N N u q e y S m.m.l.w OXOXOXOXOXOXOXOXOXOXOXOXOXOXOXOXOXOXOXOXOXOXOXOXOX",
"OXOXOXOXOXOXOXOXOXOXOXOXOXOXOXOXOXOXOXOXOXOXOXOXOXr q q q q q e q N e.8.8.M r OXOXOXOXOXOXOXOXOXOXOXOXOXOXOXOXOXOXOXOXOXOXOXOXOX",
"OXOXOXOXOXOXOXOXOXOXOXOXOXOXOXOXOXOXOXOXOXOXOXr e e q e e e e e q k e.A e.A r e r OXOXOXOXOXOXOXOXOXOXOXOXOXOXOXOXOXOXOXOXOXOXOX",
"OXOXOXOXOXOXOXOXOXOXOXOXOXOXOXOXOXOXOXOXOXOXk e e e e e e e e e q N w.q.w.8.e r e OXOXOXOXOXOXOXOXOXOXOXOXOXOXOXOXOXOXOXOXOXOXOX",
"OXOXOXOXOXOXOXOXOXOXOXOXOXOXOXOXOXOXOXOXOXOXs e e e e e e e e e q k q.q.q.N q e e f OXOXOXOXOXOXOXOXOXOXOXOXOXOXOXOXOXOXOXOXOXOX",
"OXOXOXOXOXOXOXOXOXOXOXOXOXOXOXOXOXOXOXOXr e e e e q e e e e q e r e e r r e e e e e e e OXOXOXOXOXOXOXOXOXOXOXOXOXOXOXOXOXOXOXOX",
"OXOXOXOXOXOXOXOXOXOXOXOXOXOXOXOXOXOXOXOXr p r q q e q e e q e e e q e q e e e e e e p e OXOXOXOXOXOXOXOXOXOXOXOXOXOXOXOXOXOXOXOX",
"OXOXOXOXOXOXOXOXOXOXOXOXOXOXOXOXOXOXOXOXt e e e e e e e e e q e e e e e q e e e e e r r OXOXOXOXOXOXOXOXOXOXOXOXOXOXOXOXOXOXOXOX",
"OXOXOXOXOXOXOXOXOXOXOXOXOXOXOXOXOXOXOXOXOXOXf e e e e e e e e e e e e e e e e e e f OXOXOXOXOXOXOXOXOXOXOXOXOXOXOXOXOXOXOXOXOXOX",
"OXOXOXOXOXOXOXOXOXOXOXOXOXOXOXOXOXOXOXOXOXOXOXr e r r e r w p e e e e e e r r p e OXOXOXOXOXOXOXOXOXOXOXOXOXOXOXOXOXOXOXOXOXOXOX",
"OXOXOXOXOXOXOXOXOXOXOXOXOXOXOXOXOXOXOXOXOXOXOXy q r e e e e e r e e e r e e e e e OXOXOXOXOXOXOXOXOXOXOXOXOXOXOXOXOXOXOXOXOXOXOX",
"OXOXOXOXOXOXOXOXOXOXOXOXOXOXOXOXOXOXOXOXOXOXOXOXOXOXOXOXOXOXOXOXOXOXOXOXOXOXOXOXOXOXOXOXOXOXOXOXOXOXOXOXOXOXOXOXOXOXOXOXOXOXOXOX",
"OXOXOXOXOXOXOXOXOXOXOXOXOXOXOXOXOXOXOXOXOXOXOXOXOXOXOXOXOXOXOXOXOXOXOXOXOXOXOXOXOXOXOXOXOXOXOXOXOXOXOXOXOXOXOXOXOXOXOXOXOXOXOXOX",
"OXOXOXOXOXOXOXOXOXOXOXOXOXOXOXOXOXOXOXOXOXOXOXOXOXOXOXOXOXOXOXOXOXOXOXOXOXOXOXOXOXOXOXOXOXOXOXOXOXOXOXOXOXOXOXOXOXOXOXOXOXOXOXOX",
"OXOXOXOXOXOXOXOXOXOXOXOXOXOXOXOXOXOXOXOXOXOXOXOXOXOXOXOXOXOXOXOXOXOXOXOXOXOXOXOXOXOXOXOXOXOXOXOXOXOXOXOXOXOXOXOXOXOXOXOXOXOXOXOX",
"OXOXOXOXOXOXOXOXOXOXOXOXOXOXOXOXOXOXOXOXOXOXOXOXOXOXOXOXOXOXOXOXOXOXOXOXOXOXOXOXOXOXOXOXOXOXOXOXOXOXOXOXOXOXOXOXOXOXOXOXOXOXOXOX",
"OXOXOXOXOXOXOXOXOXOXOXOXOXOXOXOXOXOXOXOXOXOXOXOXOXOXOXOXOXOXOXOXOXOXOXOXOXOXOXOXOXOXOXOXOXOXOXOXOXOXOXOXOXOXOXOXOXOXOXOXOXOXOXOX",
"OXOXOXOXOXOXOXOXOXOXOXOXOXOXOXOXOXOXOXOXOXOXOXOXOXOXOXOXOXOXOXOXOXOXOXOXOXOXOXOXOXOXOXOXOXOXOXOXOXOXOXOXOXOXOXOXOXOXOXOXOXOXOXOX",
"OXOXOXOXOXOXOXOXOXOXOXOXOXOXOXOXOXOXOXOXOXOXOXOXOXOXOXOXOXOXOXOXOXOXOXOXOXOXOXOXOXOXOXOXOXOXOXOXOXOXOXOXOXOXOXOXOXOXOXOXOXOXOXOX",
"OXOXOXOXOXOXOXOXOXOXOXOXOXOXOXOXOXOXOXOXOXOXOXOXOXOXOXOXOXOXOXOXOXOXOXOXOXOXOXOXOXOXOXOXOXOXOXOXOXOXOXOXOXOXOXOXOXOXOXOXOXOXOXOX"
};
