/* XPM */
static char *result[] = {
/* columns rows colors chars-per-pixel */
"64 64 180 2 ",
"   c #030053",
".  c #180057",
"X  c #33025E",
"o  c #050065",
"O  c #090065",
"+  c #1C0366",
"@  c #100766",
"#  c #1A1B64",
"$  c #121E66",
"%  c #250E68",
"&  c #330C60",
"*  c #2A1366",
"=  c #2A1B65",
"-  c #2D1768",
";  c #2D1C6A",
":  c #221566",
">  c #311E6B",
",  c #381B65",
"<  c #3D1E74",
"1  c #002567",
"2  c #3C246B",
"3  c #3D296A",
"4  c #372369",
"5  c #3F356F",
"6  c #3F2B70",
"7  c #352870",
"8  c #2C3E74",
"9  c #3D3871",
"0  c #5F0051",
"q  c #77005D",
"w  c #4B1760",
"e  c #721964",
"r  c #412567",
"t  c #432768",
"y  c #442A6A",
"u  c #482C6F",
"i  c #47326D",
"p  c #4A316C",
"a  c #4F396E",
"s  c #58356D",
"d  c #442B70",
"f  c #4A2D72",
"g  c #4D3273",
"h  c #523475",
"j  c #553D76",
"k  c #533D79",
"l  c #5C3673",
"z  c #722E6B",
"x  c #683F6D",
"c  c #653B71",
"v  c #6C3E70",
"b  c #6A3774",
"n  c #44477D",
"m  c #554078",
"M  c #5B457C",
"N  c #5E487F",
"B  c #594873",
"V  c #4F537F",
"C  c #754865",
"Z  c #654878",
"A  c #714675",
"S  c #7B4476",
"D  c #7B4E77",
"F  c #774D7A",
"G  c #754A77",
"H  c #7D5674",
"J  c #684469",
"K  c #802568",
"L  c #9B336F",
"P  c #983B74",
"I  c #A73771",
"U  c #B43571",
"Y  c #B93A73",
"T  c #C33D75",
"R  c #B66E48",
"E  c #A86658",
"W  c #B2745F",
"Q  c #824875",
"!  c #854D79",
"~  c #835677",
"^  c #855A77",
"/  c #89567D",
"(  c #995F7C",
")  c #9E487A",
"_  c #B64376",
"`  c #8E6175",
"'  c #88627B",
"]  c #926576",
"[  c #9C6A7D",
"{  c #956679",
"}  c #AA6F7F",
"|  c #A76F7B",
" . c #AC727F",
".. c #AF7770",
"X. c #B1747F",
"o. c #C17B4D",
"O. c #D64A7B",
"+. c #CC527D",
"@. c #D3557F",
"#. c #DF527F",
"$. c #C44378",
"%. c #C68057",
"&. c #CB8D6F",
"*. c #DAA272",
"=. c #E0B07F",
"-. c #31518C",
";. c #554582",
":. c #5D4A81",
">. c #44588D",
",. c #405B91",
"<. c #535882",
"1. c #644D82",
"2. c #665085",
"3. c #695285",
"4. c #615C87",
"5. c #725D8C",
"6. c #745281",
"7. c #795F90",
"8. c #5E648D",
"9. c #586693",
"0. c #57739C",
"q. c #636A95",
"w. c #7C6293",
"e. c #5D7BA2",
"r. c #5879A2",
"t. c #8E6F88",
"y. c #986C81",
"u. c #846594",
"i. c #866A99",
"p. c #8F719E",
"a. c #837A98",
"s. c #AF7480",
"d. c #A67787",
"f. c #B17680",
"g. c #B57A81",
"h. c #BA7E82",
"j. c #9374A1",
"k. c #9778A4",
"l. c #E45580",
"z. c #E95982",
"x. c #6C83A3",
"c. c #6E8DAC",
"v. c #718EAC",
"b. c #7291AE",
"n. c #7494B0",
"m. c #9C8080",
"M. c #BD8283",
"N. c #BF9B83",
"B. c #BC929B",
"V. c #8F81A0",
"C. c #9A8BAA",
"Z. c #9699BD",
"A. c #B08EA5",
"S. c #B497AF",
"D. c #AD97BC",
"F. c #BCA4B9",
"G. c #C28684",
"H. c #C68985",
"J. c #CB8D86",
"K. c #C98F8A",
"L. c #CE9087",
"P. c #CC918A",
"I. c #D19287",
"U. c #D39388",
"Y. c #D9988A",
"T. c #C9A88D",
"R. c #C8ABAD",
"E. c #EDC394",
"W. c #F4CC9A",
"Q. c #F5D09C",
"!. c #F9D3A0",
"~. c #AEA2CC",
"^. c #B8A6C9",
"/. c #BCB4CE",
"(. c #C1B4D7",
"). c #ECDDF1",
"_. c #E5D8ED",
"`. c #FDEFFF",
"'. c #FFF9FF",
"]. c None",
/* pixels */
"].].].].].].].].].].].].].].].].].].].].].].].].].].].].].].].].].].].].].].].].].].].].].].].].].].].].].].].].].].].].].].].].",
"].].].].].].].].].].].].].].].].].].].].].].].].].].].].].].].].].].].].].].].].].].].].].].].].].].].].].].].].].].].].].].].].",
"].].].].].].].].].].].].].].].].].].].].].].].].].].].].].].].].].].].].].].].].].].].].].].].].].].].].].].].].].].].].].].].].",
"].].].].].].].].].].].].].].].].].].].].].].].].].].].].].].].].].].].].].].].].].].].].].].].].].].].].].].].].].].].].].].].].",
"].].].].].].].].].].].].].].].].].].].].].].].].].].].].].].].].].].].].].].].].].].].].].].].].].].].].].].].].].].].].].].].].",
"].].].].].].].].].].].].].].].].].].].].].].].].].].].].].].].].].].].].].].].].].].].].].].].].].].].].].].].].].].].].].].].].",
"].].].].].].].].].].].].].].].].].].].].].].].].].].].].].].].].].].].].].].].].].].].].].].].].].].].].].].].].].].].].].].].].",
"].].].].].].].].].].].].].].].].].].].].].].].].].].].].].].].].].].].].].].].].].].].].].].].].].].].].].].].].].].].].].].].].",
"].].].].].].].].].].].].].].].].].].].].].].].].].].].].].].].].].].].].].].].].].].].].].].].].].].].].].].].].].].].].].].].].",
"].].].].].].].].].].].].].].].].].].].].].].].].].].].].% + - 4 2 - + + ].].].].].].].].].].].].].].].].].].].].].].].].].].].].",
"].].].].].].].].].].].].].].].].].].].].].].].].].].].~ { { / c c ~ { [ H ].].].].].].].].].].].].].].].].].].].].].].].].].].].",
"].].].].].].].].].].].].].].].].].].].].].].].].].].> y.Y.U.h.! ! g.Y.Y.y.; ].].].].].].].].].].].].].].].].].].].].].].].].].].",
"].].].].].].].].].].].].].].].].].].].].].].y * + - O ] L.L.s.v S s.L.L.] o * + * y ].].].].].].].].].].].].].].].].].].].].].].",
"].].].].].].].].].].].].].].].].].].].].].p 2 ` [ [ c [ U.J.M.s.s.M.J.U.[ c [ | ` r u ].].].].].].].].].].].].].].].].].].].].].",
"].].].].].].].].].].].].].].].].].].].].p h s G.Y.I.( | J.J.L.U.J.L.J.J.s.( J.U.H.s h u ].].].].].].].].].].].].].].].].].].].].",
"].].].].].].].].].].].].].].].].].].].].; ^ I.H.J.J.L. .Q H.L.J.J.J.H.Q s.J.J.J.K.L.^ % ].].].].].].].].].].].].].].].].].].].].",
"].].].].].].].].].].].].].].].].].].].].3 G s.H.L.J.L.G.f.J.J.J.J.J.J.f.G.J.J.J.H.f.F 3 ].].].].].].].].].].].].].].].].].].].].",
"].].].].].].].].].].].].].].].].].].].].i s S h.J.J.J.J.L.J.J.J.J.J.J.I.J.J.J.H.h.S s y ].].].].].].].].].].].].].].].].].].].].",
"].].].].].].].].].].].].].].].].].].].].].].k Q  .U.L.U.L.U.U.L.U.U.U.U.U.U.Y.s.S k ].].].].].].].].].].].].].].].].].].].].].].",
"].].].].].].].].].].].].].].].].].].].].].].].c G ` ( ] ` ` ` ` ] ^ ^ ] ` ` ] D c ].].].].].].].].].].].].].].].].].].].].].].].",
"].].].].].].].].].].].].].].].].].].].].].].].y 4 % > > 4 6 d 3 y d 6 4 4 ; % 4 y ].].].].].].].].].].].].].].].].].].].].].].].",
"].].].].].].].].].].].].].].].].].].].].].].].].].p Z 1.1.p.j.j.j.j.p.1.2.Z f ].].].].].].].].].].].].].].].].].].].].].].].].].",
"].].].].].].].].].].].].].].].].].].].].].].].].].f ;.5.i.j.j.j.j.j.j.i.5.N f ].].].].].].].].].].].].].].].].].].].].].].].].].",
"].].].].].].].].].].].].].].].].].].].].].].].].].f M w.k.j.j.j.j.j.j.j.w.N f ].].].].].].].].].].].].].].].].].].].].].].].].].",
"].].].].].].].].].].].].].].].].].].].].].].].].].g :.w.j.j.p.j.j.j.j.k.w.N f ].].].].].].].].].].].].].].].].].].].].].].].].].",
"].].].].].].].].].].].].].].].].].].].].].].].].].].i :.7.j.k.j.j.j.j.7.:.5 ].].].].].].].].].].].].].].].].].].].].].].].].].].",
"].].].].].].].].].].].].].].].].].].].].].].].].].].z b N u.u.u.i.i.w.M b z ].].].].].].].].].].].].].].].].].].].].].].].].].].",
"].].].].].].].].].].].].].].].].].].].].].].].].].g Y L 1 = # # # # = 1 L Y k ].].].].].].].].].].].].].].].].].].].].].].].].].",
"].].].].].].].].].].].].].].].].].].].].].].]., & & U Y I +.@.@.@.@.@.I Y U .     ].].].].].].].].].].].].].].].].].].].].].].].",
"].].].].].].].].].].].].].].].].].].].].].].].5.w.5.P U T #.l.l.#.#.#.T U ) C.C.V.].].].].].].].].].].].].].].].].].].].].].].].",
"].].].].].].].].].].].].].].].].].].].].].].f D.^.^.n K T U U U U U U $.q <.`.'.).d ].].].].].].].].].].].].].].].].].].].].].].",
"].].].].].].].].].].].].].].].].].].].].].].d ..A.~.q.k e U O.z.z.O.Y 0 ^._.(./.^.E C 7 ].].].].].].].].].].].].].].].].].].].].",
"].].].].].].].].].].].].].].].].].].].].].].d R &.S.q.>.V P _ +.+._ ) 8 /._.A.F.R.*.{ % ].].].].].].].].].].].].].].].].].].].].",
"].].].].].].].].].].].].].].].].].].].].].].d W o.o.4.e.b.9 : $ $ : i b.Z.D.R =.Q.!.m.o ].].].].].].].].].].].].].].].].].].].].",
"].].].].].].].].].].].].].].].].].].].].].].].J A Z >.0.b.x.x.x.x.x.x.b.q.' E.Q.E.&.` ; ].].].].].].].].].].].].].].].].].].].].",
"].].].].].].].].].].].].].].].].].].].].].].].].> 7 n 0.b.b.b.b.b.b.b.b.9.B T.T.N.E C ].].].].].].].].].].].].].].].].].].].].].",
"].].].].].].].].].].].].].].].].].].].].].].].].].].w 8.b.b.v.v.c.v.b.b.0.>.@ O + 7 ].].].].].].].].].].].].].].].].].].].].].].",
"].].].].].].].].].].].].].].].].].].].].].].].].].g -.r.b.b.b.v.b.v.b.b.0.-.j ].].].].].].].].].].].].].].].].].].].].].].].].].",
"].].].].].].].].].].].].].].].].].].].].].].].].].f t.w.e.v.c.v.b.c.c.e.q.2.i ].].].].].].].].].].].].].].].].].].].].].].].].].",
"].].].].].].].].].].].].].].].].].].].].].].].].].f L.m.-.v.b.v.v.v.c.,.F Q f ].].].].].].].].].].].].].].].].].].].].].].].].].",
"].].].].].].].].].].].].].].].].].].].].].].].].].f M.L.K.P.I.P./ / / ~ / Q f ].].].].].].].].].].].].].].].].].].].].].].].].].",
"].].].].].].].].].].].].].].].].].].].].].].].].].f G.G. . .| { A A F v v x u ].].].].].].].].].].].].].].].].].].].].].].].].].",
"].].].].].].].].].].].].].].].].].].].].].].].].].y G.g.S ! l @ , k 1.3 3 3 f ].].].].].].].].].].].].].].].].].].].].].].].].].",
"].].].].].].].].].].].].].].].].].].].].].].].].].f G.U.J.s t p t M 3.1.2.1.f ].].].].].].].].].].].].].].].].].].].].].].].].].",
"].].].].].].].].].].].].].].].].].].].].].].].].].f y.d.y.Z g r t a m m m j f ].].].].].].].].].].].].].].].].].].].].].].].].].",
"].].].].].].].].].].].].].].].].].].].].].].].].].f ;.;.;.3.m r u t r t r r u ].].].].].].].].].].].].].].].].].].].].].].].].].",
"].].].].].].].].].].].].].].].].].].].].].].].g y y 1.3.3.2.j r t y y y y y y y p ].].].].].].].].].].].].].].].].].].].].].].].",
"].].].].].].].].].].].].].].].].].].].].].].a y y y Z 2.1.2.M r y t y y y y y y y a ].].].].].].].].].].].].].].].].].].].].].].",
"].].].].].].].].].].].].].].].].].].].].].].f y y y N Z Z :.j t y y y y y t t y t g ].].].].].].].].].].].].].].].].].].].].].].",
"].].].].].].].].].].].].].].].].].].].].p u t y y y t y y y t t y t y y y y y y t t u p ].].].].].].].].].].].].].].].].].].].].",
"].].].].].].].].].].].].].].].].].].].].p f y y y y y y y y y y y y y t t y y t y y f p ].].].].].].].].].].].].].].].].].].].].",
"].].].].].].].].].].].].].].].].].].].].y y y y t y y t y y y y t y y y t y y t y y y p ].].].].].].].].].].].].].].].].].].].].",
"].].].].].].].].].].].].].].].].].].].].].].g y y y y y y y y y y t y y y y y y y g ].].].].].].].].].].].].].].].].].].].].].].",
"].].].].].].].].].].].].].].].].].].].].].].].p f f u u u u u f u u u u u u u f u ].].].].].].].].].].].].].].].].].].].].].].].",
"].].].].].].].].].].].].].].].].].].].].].].].a t y y y y y y y y y y y y y y y p ].].].].].].].].].].].].].].].].].].].].].].].",
"].].].].].].].].].].].].].].].].].].].].].].].].].].].].].].].].].].].].].].].].].].].].].].].].].].].].].].].].].].].].].].].].",
"].].].].].].].].].].].].].].].].].].].].].].].].].].].].].].].].].].].].].].].].].].].].].].].].].].].].].].].].].].].].].].].].",
"].].].].].].].].].].].].].].].].].].].].].].].].].].].].].].].].].].].].].].].].].].].].].].].].].].].].].].].].].].].].].].].].",
"].].].].].].].].].].].].].].].].].].].].].].].].].].].].].].].].].].].].].].].].].].].].].].].].].].].].].].].].].].].].].].].].",
"].].].].].].].].].].].].].].].].].].].].].].].].].].].].].].].].].].].].].].].].].].].].].].].].].].].].].].].].].].].].].].].].",
"].].].].].].].].].].].].].].].].].].].].].].].].].].].].].].].].].].].].].].].].].].].].].].].].].].].].].].].].].].].].].].].].",
"].].].].].].].].].].].].].].].].].].].].].].].].].].].].].].].].].].].].].].].].].].].].].].].].].].].].].].].].].].].].].].].].",
"].].].].].].].].].].].].].].].].].].].].].].].].].].].].].].].].].].].].].].].].].].].].].].].].].].].].].].].].].].].].].].].].",
"].].].].].].].].].].].].].].].].].].].].].].].].].].].].].].].].].].].].].].].].].].].].].].].].].].].].].].].].].].].].].].].]."
};
