/* XPM */
static char *result[] = {
/* columns rows colors chars-per-pixel */
"64 64 192 2 ",
"   c #00003A",
".  c #000046",
"X  c #000053",
"o  c #31005F",
"O  c #020066",
"+  c #000068",
"@  c #1F0065",
"#  c #171369",
"$  c #220766",
"%  c #320062",
"&  c #2A1669",
"*  c #2E1E6B",
"=  c #271166",
"-  c #341967",
";  c #381D6C",
":  c #042D6B",
">  c #02336E",
",  c #1A2D6B",
"<  c #2F216C",
"1  c #3D2267",
"2  c #3C246A",
"3  c #39296C",
"4  c #352368",
"5  c #37306C",
"6  c #2B3576",
"7  c #262870",
"8  c #511E5E",
"9  c #461E64",
"0  c #412566",
"q  c #422569",
"w  c #452A6A",
"e  c #492E6D",
"r  c #562B69",
"t  c #46316D",
"y  c #4B326D",
"u  c #563166",
"i  c #56326D",
"p  c #4B2E73",
"a  c #4E2F78",
"s  c #4C3272",
"d  c #463971",
"f  c #4C3673",
"g  c #513373",
"h  c #533B73",
"j  c #593E73",
"k  c #533B7A",
"l  c #6E2C6A",
"z  c #752368",
"x  c #623D73",
"c  c #6B3B74",
"v  c #643771",
"b  c #743C72",
"n  c #7A3270",
"m  c #653A6E",
"M  c #5B457C",
"N  c #5D487B",
"B  c #574077",
"V  c #454877",
"C  c #6D4172",
"Z  c #6A4674",
"A  c #744575",
"S  c #7A4276",
"D  c #72457A",
"F  c #714A79",
"G  c #724B75",
"H  c #63517D",
"J  c #71516B",
"K  c #9E2B6C",
"L  c #8F3170",
"P  c #A83771",
"I  c #B83B74",
"U  c #C33C75",
"Y  c #9B5A59",
"T  c #A05B52",
"R  c #9E625E",
"E  c #A16056",
"W  c #824B76",
"Q  c #844C79",
"!  c #804776",
"~  c #855A73",
"^  c #8A5A75",
"/  c #8C537A",
"(  c #81537F",
")  c #90557A",
"_  c #9F4978",
"`  c #A84477",
"'  c #B4477B",
"]  c #BF4479",
"[  c #88607A",
"{  c #8B6E7C",
"}  c #94647A",
"|  c #9C657B",
" . c #9F6D7A",
".. c #936375",
"X. c #A36C7D",
"o. c #A4717D",
"O. c #AB717E",
"+. c #A47979",
"@. c #B0787E",
"#. c #AC7164",
"$. c #C6477B",
"%. c #CF527F",
"&. c #DE507D",
"*. c #BE9178",
"=. c #CB926E",
"-. c #D09266",
";. c #C99273",
":. c #DBA373",
">. c #4A3480",
",. c #2F4B85",
"<. c #5B4883",
"1. c #445382",
"2. c #634D83",
"3. c #6B4E80",
"4. c #665085",
"5. c #695286",
"6. c #6B5A86",
"7. c #71568C",
"8. c #5C6D93",
"9. c #5D6C9C",
"0. c #416799",
"q. c #766387",
"w. c #7B6293",
"e. c #786699",
"r. c #6E7E9F",
"t. c #767C9D",
"y. c #826888",
"u. c #9D6E87",
"i. c #8C6F9C",
"p. c #866998",
"a. c #8F729F",
"s. c #90729F",
"d. c #9A7C87",
"f. c #A16E80",
"g. c #AE7280",
"h. c #B27780",
"j. c #B47A81",
"k. c #BA7E82",
"l. c #8F74A5",
"z. c #9374A2",
"x. c #CE5782",
"c. c #E75A83",
"v. c #E75982",
"b. c #F05E85",
"n. c #F26289",
"m. c #6686A6",
"M. c #718EAE",
"N. c #7290AE",
"B. c #7A90AE",
"V. c #8F819F",
"C. c #90819F",
"Z. c #BC8382",
"A. c #B39385",
"S. c #BE8993",
"D. c #BC9E90",
"F. c #A98D8D",
"G. c #9795AB",
"H. c #B7A6BA",
"J. c #C08583",
"K. c #C68A84",
"L. c #CB8D86",
"P. c #CF9087",
"I. c #D19187",
"U. c #D29388",
"Y. c #D9978B",
"T. c #DAB794",
"R. c #CAAA8E",
"E. c #E7B887",
"W. c #C3ABB9",
"Q. c #C8BCBB",
"!. c #E5C29C",
"~. c #EAC598",
"^. c #EEC99A",
"/. c #ECC594",
"(. c #F3CD9B",
"). c #F7D19B",
"_. c #FBD49D",
"`. c #EDCAA9",
"'. c #B7A9C7",
"]. c #BDB2D4",
"[. c #C6B7D9",
"{. c #D2C4D9",
"}. c #D7D5DB",
"|. c #E5D7EC",
" X c #EBDEF1",
".X c #FFF8ED",
"XX c #EDE1F3",
"oX c #F6E9FC",
"OX c #F9ECFE",
"+X c #F1E5F7",
"@X c #FEF2FF",
"#X c None",
/* pixels */
"#X#X#X#X#X#X#X#X#X#X#X#X#X#X#X#X#X#X#X#X#X#X#X#X#X#X#X#X#X#X#X#X#X#X#X#X#X#X#X#X#X#X#X#X#X#X#X#X#X#X#X#X#X#X#X#X#X#X#X#X#X#X#X#X",
"#X#X#X#X#X#X#X#X#X#X#X#X#X#X#X#X#X#X#X#X#X#X#X#X#X#X#X#X#X#X#X#X#X#X#X#X#X#X#X#X#X#X#X#X#X#X#X#X#X#X#X#X#X#X#X#X#X#X#X#X#X#X#X#X",
"#X#X#X#X#X#X#X#X#X#X#X#X#X#X#X#X#X#X#X#X#X#X#X#X#X#X#X#X#X#X#X#X#X#X#X#X#X#X#X#X#X#X#X#X#X#X#X#X#X#X#X#X#X#X#X#X#X#X#X#X#X#X#X#X",
"#X#X#X#X#X#X#X#X#X#X#X#X#X#X#X#X#X#X#X#X#X#X#X#X#X#X#X#X#X#X#X#X#X#X#X#X#X#X#X#X#X#X#X#X#X#X#X#X#X#X#X#X#X#X#X#X#X#X#X#X#X#X#X#X",
"#X#X#X#X#X#X#X#X#X#X#X#X#X#X#X#X#X#X#X#X#X#X#X#X#X#X#X#X#X#X#X#X#X#X#X#X#X#X#X#X#X#X#X#X#X#X#X#X#X#X#X#X#X#X#X#X#X#X#X#X#X#X#X#X",
"#X#X#X#X#X#X#X#X#X#X#X#X#X#X#X#X#X#X#X#X#X#X#X#X#X#X#X#X#X#X#X#X#X#X#X#X#X#X#X#X#X#X#X#X#X#X#X#X#X#X#X#X#X#X#X#X#X#X#X#X#X#X#X#X",
"#X#X#X#X#X#X#X#X#X#X#X#X#X#X#X#X#X#X#X#X#X#X#X#X#X#X#X#X#X#X#X#X#X#X#X#X#X#X#X#X#X#X#X#X#X#X#X#X#X#X#X#X#X#X#X#X#X#X#X#X#X#X#X#X",
"#X#X#X#X#X#X#X#X#X#X#X#X#X#X#X#X#X#X#X#X#X#X#X#X#X#X#X#X#X#X#X#X#X#X#X#X#X#X#X#X#X#X#X#X#X#X#X#X#X#X#X#X#X#X#X#X#X#X#X#X#X#X#X#X",
"#X#X#X#X#X#X#X#X#X#X#X#X#X#X#X#X#X#X#X#X#X#X#X#X#X#X#X#X#X#X#X#X#X#X#X#X#X#X#X#X#X#X#X#X#X#X#X#X#X#X#X#X#X#X#X#X#X#X#X#X#X#X#X#X",
"#X#X#X#X#X#X#X#X#X#X#X#X#X#X#X#X#X#X#X#X#X#X#X#X#X#X#X#X< * 3 t t 3 * * #X#X#X#X#X#X#X#X#X#X#X#X#X#X#X#X#X#X#X#X#X#X#X#X#X#X#X#X",
"#X#X#X#X#X#X#X#X#X#X#X#X#X#X#X#X#X#X#X#X#X#X#X#X#X#X#X~ f.o./ c c ^  .f.~ #X#X#X#X#X#X#X#X#X#X#X#X#X#X#X#X#X#X#X#X#X#X#X#X#X#X#X",
"#X#X#X#X#X#X#X#X#X#X#X#X#X#X#X#X#X#X#X#X#X#X#X#X#X#X& f.Y.U.j./ Q k.U.Y.f.* #X#X#X#X#X#X#X#X#X#X#X#X#X#X#X#X#X#X#X#X#X#X#X#X#X#X",
"#X#X#X#X#X#X#X#X#X#X#X#X#X#X#X#X#X#X#X#X#X#X#X#X#X#XO } I.P.g.b S g.P.P.} # #X#X#X#X#X#X#X#X#X#X#X#X#X#X#X#X#X#X#X#X#X#X#X#X#X#X",
"#X#X#X#X#X#X#X#X#X#X#X#X#X#X#X#X#X#X#X#X#X#X#X#X= t v X.P.P.Z.h.j.J.P.U.X.x e $ #X#X#X#X#X#X#X#X#X#X#X#X#X#X#X#X#X#X#X#X#X#X#X#X",
"#X#X#X#X#X#X#X#X#X#X#X#X#X#X#X#X#X#X#X#X#X#X#XZ F G Q h.I.L.P.P.P.P.L.P.O.Q G F G #X#X#X#X#X#X#X#X#X#X#X#X#X#X#X#X#X#X#X#X#X#X#X",
"#X#X#X#X#X#X#X#X#X#X#X#X#X#X#X#X#X#X#X#X#X#X2 K.I.L.S O.U.L.L.L.L.L.L.U.O.W L.I.J.< #X#X#X#X#X#X#X#X#X#X#X#X#X#X#X#X#X#X#X#X#X#X",
"#X#X#X#X#X#X#X#X#X#X#X#X#X#X#X#X#X#X#X#X#X^ j.L.P.K.k.g.X.K.L.L.L.L.K.X.O.k.L.L.L.j.[ #X#X#X#X#X#X#X#X#X#X#X#X#X#X#X#X#X#X#X#X#X",
"#X#X#X#X#X#X#X#X#X#X#X#X#X#X#X#X#X#X#X#X* } P.K.L.L.I.j./ K.P.L.L.I.L./ @.U.L.L.L.U.} & #X#X#X#X#X#X#X#X#X#X#X#X#X#X#X#X#X#X#X#X",
"#X#X#X#X#X#X#X#X#X#X#X#X#X#X#X#X#X#X#X#Xt x / L.P.L.L.L.P.L.L.L.L.L.K.L.L.L.L.I.K./ c 3 #X#X#X#X#X#X#X#X#X#X#X#X#X#X#X#X#X#X#X#X",
"#X#X#X#X#X#X#X#X#X#X#X#X#X#X#X#X#X#X#X#X#XZ D | Z.I.P.P.P.P.P.P.P.P.I.I.I.I.I.k.| D Z #X#X#X#X#X#X#X#X#X#X#X#X#X#X#X#X#X#X#X#X#X",
"#X#X#X#X#X#X#X#X#X#X#X#X#X#X#X#X#X#X#X#X#X#Xd c | J.Z.Z.Z.Z.Z.Z.J.Z.Z.J.*.k.J.| c t #X#X#X#X#X#X#X#X#X#X#X#X#X#X#X#X#X#X#X#X#X#X",
"#X#X#X#X#X#X#X#X#X#X#X#X#X#X#X#X#X#X#X#X#X#X#Xg e 2 1 1 1 2 q w * * * X o e ; p g #X#X#X#X#X#X#X#X#X#X#X#X#X#X#X#X#X#X#X#X#X#X#X",
"#X#X#X#X#X#X#X#X#X#X#X#X#X#X#X#X#X#X#X#X#X#X#X#Xh e M N M M k k R T #.}.G.X d s #X#X#X#X#X#X#X#X#X#X#X#X#X#X#X#X#X#X#X#X#X#X#X#X",
"#X#X#X#X#X#X#X#X#X#X#X#X#X#X#X#X#X#X#X#X#X#X#X#X#Xs 2.4.4.2.q.d.;.-.;..XQ.J h #X#X#X#X#X#X#X#X#X#X#X#X#X#X#X#X#X#X#X#X#X#X#X#X#X",
"#X#X#X#X#X#X#X#X#X#X#X#X#X#X#X#X#X#X#X#X#X#X#X#X#Xp 2.2.5.a D._.(.(.^.~.(.^.j #X#X#X#X#X#X#X#X#X#X#X#X#X#X#X#X#X#X#X#X#X#X#X#X#X",
"#X#X#X#X#X#X#X#X#X#X#X#X#X#X#X#X#X#X#X#X#X#X#X#X#Xs 2.2.4.<.+.:.(.(.(._.E.=.j #X#X#X#X#X#X#X#X#X#X#X#X#X#X#X#X#X#X#X#X#X#X#X#X#X",
"#X#X#X#X#X#X#X#X#X#X#X#X#X#X#X#X#X#X#X#X#X#X#X#X#Xg N 2.H <...#.T.T.T.!.P.T j #X#X#X#X#X#X#X#X#X#X#X#X#X#X#X#X#X#X#X#X#X#X#X#X#X",
"#X#X#X#X#X#X#X#X#X#X#X#X#X#X#X#X#X#X#X#X#X#X#X#X#X7 1 j 6.5.4.<.<.<.2.z.7.4 #X#X#X#X#X#X#X#X#X#X#X#X#X#X#X#X#X#X#X#X#X#X#X#X#X#X",
"#X#X#X#X#X#X#X#X#X#X#X#X#X#X#X#X#X#X#X#X#X#X#X> _ %.r - o % 0 h d t d M h y #X#X#X#X#X#X#X#X#X#X#X#X#X#X#X#X#X#X#X#X#X#X#X#X#X#X",
"#X#X#X#X#X#X#X#X#X#X#X#X#X#X#X#X#X#X#X#X#X#X#Xn $.v.r 6.V.V.q.0 l l l z r t #X#X#X#X#X#X#X#X#X#X#X#X#X#X#X#X#X#X#X#X#X#X#X#X#X#X",
"#X#X#X#X#X#X#X#X#X#X#X#X#X#X#X#X#X#X#X#X#X#Xg v.&.I   '.@X@X'.  ] I I U L 5 #X#X#X#X#X#X#X#X#X#X#X#X#X#X#X#X#X#X#X#X#X#X#X#X#X#X",
"#X#X#X#X#X#X#X#X#X#X#X#X#X#X#X#X#X#X#X#X#X#Xe $.P Z {. XOXOXXX{.A K U v.` , #X#X#X#X#X#X#X#X#X#X#X#X#X#X#X#X#X#X#X#X#X#X#X#X#X#X",
"#X#X#X#X#X#X#X#X#X#X#X#X#X#X#X#X#X#X#X#X#X#Xw P z V oX@XOXOXOXoX1.n I b.' : #X#X#X#X#X#X#X#X#X#X#X#X#X#X#X#X#X#X#X#X#X#X#X#X#X#X",
"#X#X#X#X#X#X#X#X#X#X#X#X#X#X#X#X#X#X#X#X#X#Xs 5 - N XXOXOXOXOX+X9.6 9 c.` : #X#X#X#X#X#X#X#X#X#X#X#X#X#X#X#X#X#X#X#X#X#X#X#X#X#X",
"#X#X#X#X#X#X#X#X#X#X#X#X#X#X#X#X#X#X#X#X#X#X#X#Xr 4.OX@XOX[.[.].M.m.t.n.' : #X#X#X#X#X#X#X#X#X#X#X#X#X#X#X#X#X#X#X#X#X#X#X#X#X#X",
"#X#X#X#X#X#X#X#X#X#X#X#X#X#X#X#X#X#X#X#X#X#X#X#X#XH {.|. XW.W.H.m.m.B.%.` > #X#X#X#X#X#X#X#X#X#X#X#X#X#X#X#X#X#X#X#X#X#X#X#X#X#X",
"#X#X#X#X#X#X#X#X#X#X#X#X#X#X#X#X#X#X#X#X#X#X#X#X#X#X. e.'.~.).^.8 8.M.6 #X#X#X#X#X#X#X#X#X#X#X#X#X#X#X#X#X#X#X#X#X#X#X#X#X#X#X#X",
"#X#X#X#X#X#X#X#X#X#X#X#X#X#X#X#X#X#X#X#X#X#X#X#X#X#X$ F.`.^.(.E.u 8.M.g #X#X#X#X#X#X#X#X#X#X#X#X#X#X#X#X#X#X#X#X#X#X#X#X#X#X#X#X",
"#X#X#X#X#X#X#X#X#X#X#X#X#X#X#X#X#X#X#X#X#X#X#X#X#X#X+ A._.^.(./.r 8.N.f #X#X#X#X#X#X#X#X#X#X#X#X#X#X#X#X#X#X#X#X#X#X#X#X#X#X#X#X",
"#X#X#X#X#X#X#X#X#X#X#X#X#X#X#X#X#X#X#X#X#X#X#X#X#X#X+ A._.^.(.T.u 8.N.f #X#X#X#X#X#X#X#X#X#X#X#X#X#X#X#X#X#X#X#X#X#X#X#X#X#X#X#X",
"#X#X#X#X#X#X#X#X#X#X#X#X#X#X#X#X#X#X#X#X#X#X#X#X#X#X#XJ d.^.E.=.0 ,.0.s #X#X#X#X#X#X#X#X#X#X#X#X#X#X#X#X#X#X#X#X#X#X#X#X#X#X#X#X",
"#X#X#X#X#X#X#X#X#X#X#X#X#X#X#X#X#X#X#X#X#X#X#X#X#X#X#X#X; R.*.Y ~ [ w.s s #X#X#X#X#X#X#X#X#X#X#X#X#X#X#X#X#X#X#X#X#X#X#X#X#X#X#X",
"#X#X#X#X#X#X#X#X#X#X#X#X#X#X#X#X#X#X#X#X#X#X#X#X#X#X#X#Xs @ + t L.U.;.h w g #X#X#X#X#X#X#X#X#X#X#X#X#X#X#X#X#X#X#X#X#X#X#X#X#X#X",
"#X#X#X#X#X#X#X#X#X#X#X#X#X#X#X#X#X#X#X#X#X#X#X#X#X#X#X#Xg S X.K.L.U.K.y 1 y #X#X#X#X#X#X#X#X#X#X#X#X#X#X#X#X#X#X#X#X#X#X#X#X#X#X",
"#X#X#X#X#X#X#X#X#X#X#X#X#X#X#X#X#X#X#X#X#X#X#X#X#X#X#Xe p ! X.*.k.@.X.C i t #X#X#X#X#X#X#X#X#X#X#X#X#X#X#X#X#X#X#X#X#X#X#X#X#X#X",
"#X#X#X#X#X#X#X#X#X#X#X#X#X#X#X#X#X#X#X#X#X#X#X#X#X#Xe w e Q ! S Q i = / A 3 #X#X#X#X#X#X#X#X#X#X#X#X#X#X#X#X#X#X#X#X#X#X#X#X#X#X",
"#X#X#X#X#X#X#X#X#X#X#X#X#X#X#X#X#X#X#X#X#X#X#Xs w y q m Q ! O.K.L.) 1 3.H N s w h #X#X#X#X#X#X#X#X#X#X#X#X#X#X#X#X#X#X#X#X#X#X#X",
"#X#X#X#X#X#X#X#X#X#X#X#X#X#X#X#X#X#X#X#X#X#X#Xw w e 1 x ( A u.S.J.y.- 2.2.2.e w t #X#X#X#X#X#X#X#X#X#X#X#X#X#X#X#X#X#X#X#X#X#X#X",
"#X#X#X#X#X#X#X#X#X#X#X#X#X#X#X#X#X#X#X#X#X#Xs w q w 0 h 4.<.w.l.z.5.0 H 2.H w w w s #X#X#X#X#X#X#X#X#X#X#X#X#X#X#X#X#X#X#X#X#X#X",
"#X#X#X#X#X#X#X#X#X#X#X#X#X#X#X#X#X#X#X#Xy w w w w w q h 5.a.s.z.z.a.p.g w e w w w w w y #X#X#X#X#X#X#X#X#X#X#X#X#X#X#X#X#X#X#X#X",
"#X#X#X#X#X#X#X#X#X#X#X#X#X#X#X#X#X#X#X#Xy e w w w w w h 5.w.i.z.z.z.s.e 0 q w q w w e e #X#X#X#X#X#X#X#X#X#X#X#X#X#X#X#X#X#X#X#X",
"#X#X#X#X#X#X#X#X#X#X#X#X#X#X#X#X#X#X#X#Xh w q w w w q h 2.M w.z.l.z.i.y 0 w w q w 0 w f #X#X#X#X#X#X#X#X#X#X#X#X#X#X#X#X#X#X#X#X",
"#X#X#X#X#X#X#X#X#X#X#X#X#X#X#X#X#X#X#X#X#X#Xa q w w w w y y s h h h i w w w w w w s #X#X#X#X#X#X#X#X#X#X#X#X#X#X#X#X#X#X#X#X#X#X",
"#X#X#X#X#X#X#X#X#X#X#X#X#X#X#X#X#X#X#X#X#X#Xy w q w q w w q q q 1 0 q q w q w w e y #X#X#X#X#X#X#X#X#X#X#X#X#X#X#X#X#X#X#X#X#X#X",
"#X#X#X#X#X#X#X#X#X#X#X#X#X#X#X#X#X#X#X#X#X#X#Xh y y y y y y y y y y y y y y y y h #X#X#X#X#X#X#X#X#X#X#X#X#X#X#X#X#X#X#X#X#X#X#X",
"#X#X#X#X#X#X#X#X#X#X#X#X#X#X#X#X#X#X#X#X#X#X#X#X#X#X#X#X#X#X#X#X#X#X#X#X#X#X#X#X#X#X#X#X#X#X#X#X#X#X#X#X#X#X#X#X#X#X#X#X#X#X#X#X",
"#X#X#X#X#X#X#X#X#X#X#X#X#X#X#X#X#X#X#X#X#X#X#X#X#X#X#X#X#X#X#X#X#X#X#X#X#X#X#X#X#X#X#X#X#X#X#X#X#X#X#X#X#X#X#X#X#X#X#X#X#X#X#X#X",
"#X#X#X#X#X#X#X#X#X#X#X#X#X#X#X#X#X#X#X#X#X#X#X#X#X#X#X#X#X#X#X#X#X#X#X#X#X#X#X#X#X#X#X#X#X#X#X#X#X#X#X#X#X#X#X#X#X#X#X#X#X#X#X#X",
"#X#X#X#X#X#X#X#X#X#X#X#X#X#X#X#X#X#X#X#X#X#X#X#X#X#X#X#X#X#X#X#X#X#X#X#X#X#X#X#X#X#X#X#X#X#X#X#X#X#X#X#X#X#X#X#X#X#X#X#X#X#X#X#X",
"#X#X#X#X#X#X#X#X#X#X#X#X#X#X#X#X#X#X#X#X#X#X#X#X#X#X#X#X#X#X#X#X#X#X#X#X#X#X#X#X#X#X#X#X#X#X#X#X#X#X#X#X#X#X#X#X#X#X#X#X#X#X#X#X",
"#X#X#X#X#X#X#X#X#X#X#X#X#X#X#X#X#X#X#X#X#X#X#X#X#X#X#X#X#X#X#X#X#X#X#X#X#X#X#X#X#X#X#X#X#X#X#X#X#X#X#X#X#X#X#X#X#X#X#X#X#X#X#X#X",
"#X#X#X#X#X#X#X#X#X#X#X#X#X#X#X#X#X#X#X#X#X#X#X#X#X#X#X#X#X#X#X#X#X#X#X#X#X#X#X#X#X#X#X#X#X#X#X#X#X#X#X#X#X#X#X#X#X#X#X#X#X#X#X#X",
"#X#X#X#X#X#X#X#X#X#X#X#X#X#X#X#X#X#X#X#X#X#X#X#X#X#X#X#X#X#X#X#X#X#X#X#X#X#X#X#X#X#X#X#X#X#X#X#X#X#X#X#X#X#X#X#X#X#X#X#X#X#X#X#X",
"#X#X#X#X#X#X#X#X#X#X#X#X#X#X#X#X#X#X#X#X#X#X#X#X#X#X#X#X#X#X#X#X#X#X#X#X#X#X#X#X#X#X#X#X#X#X#X#X#X#X#X#X#X#X#X#X#X#X#X#X#X#X#X#X"
};
