/* XPM */
static char *result[] = {
/* columns rows colors chars-per-pixel */
"64 64 183 2 ",
"   c #00004F",
".  c #000047",
"X  c #000050",
"o  c #280050",
"O  c #020164",
"+  c #1B0366",
"@  c #14006A",
"#  c #1B156A",
"$  c #220C66",
"%  c #210C68",
"&  c #2F1A67",
"*  c #29166A",
"=  c #341E67",
"-  c #351D69",
";  c #391B65",
":  c #06296C",
">  c #1F2C6A",
",  c #19346D",
"<  c #2E246B",
"1  c #3E2266",
"2  c #3C2469",
"3  c #322C6C",
"4  c #3B2A6C",
"5  c #32216A",
"6  c #2E2E76",
"7  c #392171",
"8  c #420054",
"9  c #412567",
"0  c #422669",
"q  c #442A6A",
"w  c #4A2C6C",
"e  c #4C2467",
"r  c #522B6B",
"t  c #54276A",
"y  c #44326D",
"u  c #4B346E",
"i  c #52336C",
"p  c #573A6F",
"a  c #59366B",
"s  c #492C71",
"d  c #412670",
"f  c #522E70",
"g  c #4D3572",
"h  c #4E3974",
"j  c #4F3C78",
"k  c #523572",
"l  c #543B74",
"z  c #553C79",
"x  c #5E3979",
"c  c #5B3974",
"v  c #642F6B",
"b  c #623F6C",
"n  c #623B72",
"m  c #6B3F76",
"M  c #773B73",
"N  c #5B447B",
"B  c #5B4678",
"V  c #47507B",
"C  c #4C4268",
"Z  c #63426D",
"A  c #664373",
"S  c #694A76",
"D  c #744473",
"F  c #7B4476",
"G  c #714B75",
"H  c #7E5477",
"J  c #7A5779",
"K  c #AB0042",
"L  c #87016A",
"P  c #92306E",
"I  c #873571",
"U  c #9F3D75",
"Y  c #8A2969",
"T  c #A8316F",
"R  c #AA3371",
"E  c #B73873",
"W  c #C23E76",
"Q  c #AB614D",
"!  c #BF7956",
"~  c #895361",
"^  c #835363",
"/  c #915D6F",
"(  c #824A76",
")  c #854D78",
"_  c #8B4877",
"`  c #845475",
"'  c #89527A",
"]  c #865A7E",
"[  c #865B77",
"{  c #90577A",
"}  c #935B7A",
"|  c #954779",
" . c #AC4778",
".. c #BE4177",
"X. c #B2497A",
"o. c #8D617B",
"O. c #95667B",
"+. c #9D657C",
"@. c #9E6B7D",
"#. c #977D7C",
"$. c #A1687D",
"%. c #AC727F",
"&. c #AF7A7F",
"*. c #A37179",
"=. c #C37957",
"-. c #C94778",
";. c #DB4E7C",
":. c #DD527E",
">. c #A1857E",
",. c #A9827C",
"<. c #CD875D",
"1. c #C68562",
"2. c #D5A47C",
"3. c #4D3781",
"4. c #3B578E",
"5. c #424B82",
"6. c #564684",
"7. c #445D91",
"8. c #55578A",
"9. c #634D82",
"0. c #675185",
"q. c #695285",
"w. c #745886",
"e. c #6D5D94",
"r. c #4D6193",
"t. c #7A6287",
"y. c #7D6488",
"u. c #696791",
"i. c #7E6393",
"p. c #B24880",
"a. c #83628D",
"s. c #996984",
"d. c #856B9C",
"f. c #886795",
"g. c #9C7599",
"h. c #A67183",
"j. c #B47A81",
"k. c #BA7E82",
"l. c #B37781",
"z. c #A67D9A",
"x. c #8B6FA0",
"c. c #8D71A0",
"v. c #9475A2",
"b. c #D85781",
"n. c #F35E85",
"m. c #AA8A83",
"M. c #BC8282",
"N. c #B99B8B",
"B. c #AA9FB9",
"V. c #B09AB5",
"C. c #A384A6",
"Z. c #ACA0B9",
"A. c #B2A6BE",
"S. c #C38784",
"D. c #C68985",
"F. c #CB8E86",
"G. c #CE9087",
"H. c #CF9088",
"J. c #D19287",
"K. c #D49488",
"L. c #D9978A",
"P. c #C3A596",
"I. c #E9B886",
"U. c #E0BD96",
"Y. c #D7B0BC",
"T. c #EBC395",
"R. c #EBC698",
"E. c #EEC99A",
"W. c #F1CC9B",
"Q. c #FBD39E",
"!. c #FCD5A4",
"~. c #AE9EC9",
"^. c #B9ABC4",
"/. c #CEBEDA",
"(. c #D5AAC2",
"). c #D7C8DF",
"_. c #EFD5E9",
"`. c #EADDF3",
"'. c #F4E6F9",
"]. c #F5E9FB",
"[. c #FCEFFF",
"{. c #FEF3FF",
"}. c None",
/* pixels */
"}.}.}.}.}.}.}.}.}.}.}.}.}.}.}.}.}.}.}.}.}.}.}.}.}.}.}.}.}.}.}.}.}.}.}.}.}.}.}.}.}.}.}.}.}.}.}.}.}.}.}.}.}.}.}.}.}.}.}.}.}.}.}.}.",
"}.}.}.}.}.}.}.}.}.}.}.}.}.}.}.}.}.}.}.}.}.}.}.}.}.}.}.}.}.}.}.}.}.}.}.}.}.}.}.}.}.}.}.}.}.}.}.}.}.}.}.}.}.}.}.}.}.}.}.}.}.}.}.}.",
"}.}.}.}.}.}.}.}.}.}.}.}.}.}.}.}.}.}.}.}.}.}.}.}.}.}.}.}.}.}.}.}.}.}.}.}.}.}.}.}.}.}.}.}.}.}.}.}.}.}.}.}.}.}.}.}.}.}.}.}.}.}.}.}.",
"}.}.}.}.}.}.}.}.}.}.}.}.}.}.}.}.}.}.}.}.}.}.}.}.}.}.}.}.}.}.}.}.}.}.}.}.}.}.}.}.}.}.}.}.}.}.}.}.}.}.}.}.}.}.}.}.}.}.}.}.}.}.}.}.",
"}.}.}.}.}.}.}.}.}.}.}.}.}.}.}.}.}.}.}.}.}.}.}.}.}.}.}.}.}.}.}.}.}.}.}.}.}.}.}.}.}.}.}.}.}.}.}.}.}.}.}.}.}.}.}.}.}.}.}.}.}.}.}.}.",
"}.}.}.}.}.}.}.}.}.}.}.}.}.}.}.}.}.}.}.}.}.}.}.}.}.}.}.}.}.}.}.}.}.}.}.}.}.}.}.}.}.}.}.}.}.}.}.}.}.}.}.}.}.}.}.}.}.}.}.}.}.}.}.}.",
"}.}.}.}.}.}.}.}.}.}.}.}.}.}.}.}.}.}.}.}.}.}.}.}.}.}.}.}.}.}.}.}.}.}.}.}.}.}.}.}.}.}.}.}.}.}.}.}.}.}.}.}.}.}.}.}.}.}.}.}.}.}.}.}.",
"}.}.}.}.}.}.}.}.}.}.}.}.}.}.}.}.}.}.}.}.}.}.}.}.}.}.}.}.}.}.}.}.}.}.}.}.}.}.}.}.}.}.}.}.}.}.}.}.}.}.}.}.}.}.}.}.}.}.}.}.}.}.}.}.",
"}.}.}.}.}.}.}.}.}.}.}.}.}.}.}.}.}.}.}.}.}.}.}.}.}.}.}.}.$ + = 2 4 & + % }.}.}.}.}.}.}.}.}.}.}.}.}.}.}.}.}.}.}.}.}.}.}.}.}.}.}.}.",
"}.}.}.}.}.}.}.}.}.}.}.}.}.}.}.}.}.}.}.}.}.}.}.}.}.}.}.J ] H G c n G ` a.J }.}.}.}.}.}.}.}.}.}.}.}.}.}.}.}.}.}.}.}.}.}.}.}.}.}.}.",
"}.}.}.}.}.}.}.}.}.}.}.}.}.}.}.}.}.}.}.}.}.}.}.}.}.}.5 @.L.J.j._ _ &.J.L.s.% }.}.}.}.}.}.}.}.}.}.}.}.}.}.}.}.}.}.}.}.}.}.}.}.}.}.",
"}.}.}.}.}.}.}.}.}.}.}.}.}.}.}.}.}.}.}.}.}.}.}.}.}.}.# O.J.F.%.M F %.G.G.+.O }.}.}.}.}.}.}.}.}.}.}.}.}.}.}.}.}.}.}.}.}.}.}.}.}.}.",
"}.}.}.}.}.}.}.}.}.}.}.}.}.}.}.}.}.}.}.}.}.}.}.}.}.}.f @.H.F.&.$.$.&.F.J.$.r }.}.}.}.}.}.}.}.}.}.}.}.}.}.}.}.}.}.}.}.}.}.}.}.}.}.",
"}.}.}.}.}.}.}.}.}.}.}.}.}.}.}.}.}.}.}.}.}.}.}.q 0 q F h.G.F.J.J.J.J.F.G.%.F q 0 q }.}.}.}.}.}.}.}.}.}.}.}.}.}.}.}.}.}.}.}.}.}.}.",
"}.}.}.}.}.}.}.}.}.}.}.}.}.}.}.}.}.}.}.}.}.}.3 k.M.k.D.%.{ F.H.F.F.H.D.{ %.S.M.M.j.# }.}.}.}.}.}.}.}.}.}.}.}.}.}.}.}.}.}.}.}.}.}.",
"}.}.}.}.}.}.}.}.}.}.}.}.}.}.}.}.}.}.}.}.}.J +.F.K.H.J.k.$.F.F.F.F.H.F.$.M.J.F.K.S.s.}.}.}.}.}.}.}.}.}.}.}.}.}.}.}.}.}.}.}.}.}.}.",
"}.}.}.}.}.}.}.}.}.}.}.}.}.}.}.}.}.}.}.}.* O.L.F.F.F.F.H.H.F.H.F.F.F.F.J.F.F.F.F.F.L.o.& }.}.}.}.}.}.}.}.}.}.}.}.}.}.}.}.}.}.}.}.",
"}.}.}.}.}.}.}.}.}.}.}.}.}.}.}.}.}.}.}.}.* O.K.F.F.F.F.F.F.F.F.F.H.F.F.F.F.F.F.F.F.L.[ < }.}.}.}.}.}.}.}.}.}.}.}.}.}.}.}.}.}.}.}.",
"}.}.}.}.}.}.}.}.}.}.}.}.}.}.}.}.}.}.}.}.5 ] M.F.F.F.H.F.F.F.F.F.F.F.F.F.F.F.F.F.D.M.H 4 }.}.}.}.}.}.}.}.}.}.}.}.}.}.}.}.}.}.}.}.",
"}.}.}.}.}.}.}.}.}.}.}.}.}.}.}.}.}.}.}.}.y n ) S.F.F.F.F.H.F.F.F.F.F.F.F.F.F.F.F.S.) c u }.}.}.}.}.}.}.}.}.}.}.}.}.}.}.}.}.}.}.}.",
"}.}.}.}.}.}.}.}.}.}.}.}.}.}.}.}.}.}.}.}.}.}.x A A Z Z A A p p p Z c b b b b A A A x }.}.}.}.}.}.}.}.}.}.}.}.}.}.}.}.}.}.}.}.}.}.",
"}.}.}.}.}.}.}.}.}.}.}.}.}.}.}.}.}.}.}.}.}.}.g }.- 2 - * & ^ ~ ^ h g h g g g 2 - }.g }.}.}.}.}.}.}.}.}.}.}.}.}.}.}.}.}.}.}.}.}.}.",
"}.}.}.}.}.}.}.}.}.}.}.}.}.}.}.}.}.}.}.}.}.}.}.}.}.w l S }.1.<.1.w.0.0.0.0.9.g }.}.}.}.}.}.}.}.}.}.}.}.}.}.}.}.}.}.}.}.}.}.}.}.}.",
"}.}.}.}.}.}.}.}.}.}.}.}.}.}.}.}.}.}.}.}.}.}.}.}.}.l U.W.W.R.R.T.E.N.3.0.9.9.s }.}.}.}.}.}.}.}.}.}.}.}.}.}.}.}.}.}.}.}.}.}.}.}.}.",
"}.}.}.}.}.}.}.}.}.}.}.}.}.}.}.}.}.}.}.}.}.}.}.}.}.l 2.T.!.W.W.E.I.m.6.0.0.9.g }.}.}.}.}.}.}.}.}.}.}.}.}.}.}.}.}.}.}.}.}.}.}.}.}.",
"}.}.}.}.}.}.}.}.}.}.}.}.}.}.}.}.}.}.}.}.}.}.}.}.}.i Q 2.E.R.E.T.! / 6.0.9.B f }.}.}.}.}.}.}.}.}.}.}.}.}.}.}.}.}.}.}.}.}.}.}.}.}.",
"}.}.}.}.}.}.}.}.}.}.}.}.}.}.}.}.}.}.}.}.}.}.}.}.}.}.a a.C.t.t.t.w.q.0.q.N 0 : }.}.}.}.}.}.}.}.}.}.}.}.}.}.}.}.}.}.}.}.}.}.}.}.}.",
"}.}.}.}.}.}.}.}.}.}.}.}.}.}.}.}.}.}.}.}.}.}.}.}.}.}.1 B w.j h h j l k l q t X.| }.}.}.}.}.}.}.}.}.}.}.}.}.}.}.}.}.}.}.}.}.}.}.}.",
"}.}.}.}.}.}.}.}.}.}.}.}.}.}.}.}.}.}.}.}.}.}.}.}.}.}.u e e e e w u p B B y v n.p.3 }.}.}.}.}.}.}.}.}.}.}.}.}.}.}.}.}.}.}.}.}.}.}.",
"}.}.}.}.}.}.}.}.}.}.}.}.}.}.}.}.}.}.}.}.}.}.}.}.}.}.3 I E E E ..K (.'.].Z.o -.b.b.y }.}.}.}.}.}.}.}.}.}.}.}.}.}.}.}.}.}.}.}.}.}.",
"}.}.}.}.}.}.}.}.}.}.}.}.}.}.}.}.}.}.}.}.}.}.}.}.}.}.> U ;.W T | Y._.[.{.^.o P -.-.q }.}.}.}.}.}.}.}.}.}.}.}.}.}.}.}.}.}.}.}.}.}.",
"}.}.}.}.}.}.}.}.}.}.}.}.}.}.}.}.}.}.}.}.}.}.}.}.}.}.:  .n.W Y V ].[.'.{.A.X , P R 4 }.}.}.}.}.}.}.}.}.}.}.}.}.}.}.}.}.}.}.}.}.}.",
"}.}.}.}.}.}.}.}.}.}.}.}.}.}.}.}.}.}.}.}.}.}.}.}.}.}.: X.n.-.L 3 ].[.].{.A.  l r f s }.}.}.}.}.}.}.}.}.}.}.}.}.}.}.}.}.}.}.}.}.}.",
"}.}.}.}.}.}.}.}.}.}.}.}.}.}.}.}.}.}.}.}.}.}.}.}.}.}.4 M  .L *.P./.`.{.{.^.  }.}.}.}.}.}.}.}.}.}.}.}.}.}.}.}.}.}.}.}.}.}.}.}.}.}.",
"}.}.}.}.}.}.}.}.}.}.}.}.}.}.}.}.}.}.}.}.}.}.}.}.}.}.u y C 3 N.!.V.).'.'.Z.. }.}.}.}.}.}.}.}.}.}.}.}.}.}.}.}.}.}.}.}.}.}.}.}.}.}.",
"}.}.}.}.}.}.}.}.}.}.}.}.}.}.}.}.}.}.}.}.}.}.}.}.}.}.3 ~ =.T.E.E.W.Y.~.B }.}.}.}.}.}.}.}.}.}.}.}.}.}.}.}.}.}.}.}.}.}.}.}.}.}.}.}.",
"}.}.}.}.}.}.}.}.}.}.}.}.}.}.}.}.}.}.}.}.}.}.}.}.}.}.@ ,.I.E.W.E.Q.P.e.g }.}.}.}.}.}.}.}.}.}.}.}.}.}.}.}.}.}.}.}.}.}.}.}.}.}.}.}.",
"}.}.}.}.}.}.}.}.}.}.}.}.}.}.}.}.}.}.}.}.}.}.}.}.}.}.O m.R.E.W.E.R.>.O k }.}.}.}.}.}.}.}.}.}.}.}.}.}.}.}.}.}.}.}.}.}.}.}.}.}.}.}.",
"}.}.}.}.}.}.}.}.}.}.}.}.}.}.}.}.}.}.}.}.}.}.}.}.}.}.}.}.c E.Q.E.a V r.g }.}.}.}.}.}.}.}.}.}.}.}.}.}.}.}.}.}.}.}.}.}.}.}.}.}.}.}.",
"}.}.}.}.}.}.}.}.}.}.}.}.}.}.}.}.}.}.}.}.}.}.}.}.}.}.}.- w #.>.#.4.4.7.s }.}.}.}.}.}.}.}.}.}.}.}.}.}.}.}.}.}.}.}.}.}.}.}.}.}.}.}.",
"}.}.}.}.}.}.}.}.}.}.}.}.}.}.}.}.}.}.}.}.}.}.}.}.}.}.G A i t t p e.u.8.w }.}.}.}.}.}.}.}.}.}.}.}.}.}.}.}.}.}.}.}.}.}.}.}.}.}.}.}.",
"}.}.}.}.}.}.}.}.}.}.}.}.}.}.}.}.}.}.}.}.}.}.}.}.}.7 F.&.) J.K.F.G.%.M r }.}.}.}.}.}.}.}.}.}.}.}.}.}.}.}.}.}.}.}.}.}.}.}.}.}.}.}.",
"}.}.}.}.}.}.}.}.}.}.}.}.}.}.}.}.}.}.}.}.}.}.}.}.[ k.J.&.( ` &.K.F.S.%.g }.}.}.}.}.}.}.}.}.}.}.}.}.}.}.}.}.}.}.}.}.}.}.}.}.}.}.}.",
"}.}.}.}.}.}.}.}.}.}.}.}.}.}.}.}.}.}.}.}.}.}.}.Z h.F.S.%.F + [ S.D.H.F.n r }.}.}.}.}.}.}.}.}.}.}.}.}.}.}.}.}.}.}.}.}.}.}.}.}.}.}.",
"}.}.}.}.}.}.}.}.}.}.}.}.}.}.}.}.}.}.}.}.g 1 ; F.j.F ' ) ` i 1 i F.G.D.{ n = q }.}.}.}.}.}.}.}.}.}.}.}.}.}.}.}.}.}.}.}.}.}.}.}.}.",
"}.}.}.}.}.}.}.}.}.}.}.}.}.}.}.}.}.}.}.}.q 9.f.z.s.( ' F a w 9 i @.$.+.) F D F A }.}.}.}.}.}.}.}.}.}.}.}.}.}.}.}.}.}.}.}.}.}.}.}.",
"}.}.}.}.}.}.}.}.}.}.}.}.}.}.}.}.}.}.}.}.1 q.v.d.a.( ' Z 5 q q w M ` } O.{ ' ' m 4 }.}.}.}.}.}.}.}.}.}.}.}.}.}.}.}.}.}.}.}.}.}.}.",
"}.}.}.}.}.}.}.}.}.}.}.}.}.}.}.}.}.}.}.}.w N 0.9.0.9.' D 1 e 9 w $ *.L.J.%.F 0.z 0 }.}.}.}.}.}.}.}.}.}.}.}.}.}.}.}.}.}.}.}.}.}.}.",
"}.}.}.}.}.}.}.}.}.}.}.}.}.}.}.}.}.}.}.}.}.}.z 9.0.q.n i 0 q q q 2 Z [ z.z.f.q.l q k }.}.}.}.}.}.}.}.}.}.}.}.}.}.}.}.}.}.}.}.}.}.",
"}.}.}.}.}.}.}.}.}.}.}.}.}.}.}.}.}.}.}.}.}.}.q N B 6.q 9 q q q q w - 2 x.c.d.6.k 0 s }.}.}.}.}.}.}.}.}.}.}.}.}.}.}.}.}.}.}.}.}.}.",
"}.}.}.}.}.}.}.}.}.}.}.}.}.}.}.}.}.}.}.}.u s 0 0 q 9 q q q q q q q 9 p v.i.N q 9 q q s g }.}.}.}.}.}.}.}.}.}.}.}.}.}.}.}.}.}.}.}.",
"}.}.}.}.}.}.}.}.}.}.}.}.}.}.}.}.}.}.}.}.u s q q q q 9 q 0 q 0 q q q q B l u q q q q s k }.}.}.}.}.}.}.}.}.}.}.}.}.}.}.}.}.}.}.}.",
"}.}.}.}.}.}.}.}.}.}.}.}.}.}.}.}.}.}.}.}.}.w q q q q q q q q q q q q 9 1 0 q q 0 q q w }.}.}.}.}.}.}.}.}.}.}.}.}.}.}.}.}.}.}.}.}.",
"}.}.}.}.}.}.}.}.}.}.}.}.}.}.}.}.}.}.}.}.}.}.g w q q q q 0 q q q q q q q q q q q q u }.}.}.}.}.}.}.}.}.}.}.}.}.}.}.}.}.}.}.}.}.}.",
"}.}.}.}.}.}.}.}.}.}.}.}.}.}.}.}.}.}.}.}.}.}.}.q s s s w w s w s s w w s s w w s w }.}.}.}.}.}.}.}.}.}.}.}.}.}.}.}.}.}.}.}.}.}.}.",
"}.}.}.}.}.}.}.}.}.}.}.}.}.}.}.}.}.}.}.}.}.}.}.}.i g g g g g g g g k u g u g g g }.}.}.}.}.}.}.}.}.}.}.}.}.}.}.}.}.}.}.}.}.}.}.}.",
"}.}.}.}.}.}.}.}.}.}.}.}.}.}.}.}.}.}.}.}.}.}.}.}.}.}.}.}.}.}.}.}.}.}.}.}.}.}.}.}.}.}.}.}.}.}.}.}.}.}.}.}.}.}.}.}.}.}.}.}.}.}.}.}.",
"}.}.}.}.}.}.}.}.}.}.}.}.}.}.}.}.}.}.}.}.}.}.}.}.}.}.}.}.}.}.}.}.}.}.}.}.}.}.}.}.}.}.}.}.}.}.}.}.}.}.}.}.}.}.}.}.}.}.}.}.}.}.}.}.",
"}.}.}.}.}.}.}.}.}.}.}.}.}.}.}.}.}.}.}.}.}.}.}.}.}.}.}.}.}.}.}.}.}.}.}.}.}.}.}.}.}.}.}.}.}.}.}.}.}.}.}.}.}.}.}.}.}.}.}.}.}.}.}.}.",
"}.}.}.}.}.}.}.}.}.}.}.}.}.}.}.}.}.}.}.}.}.}.}.}.}.}.}.}.}.}.}.}.}.}.}.}.}.}.}.}.}.}.}.}.}.}.}.}.}.}.}.}.}.}.}.}.}.}.}.}.}.}.}.}.",
"}.}.}.}.}.}.}.}.}.}.}.}.}.}.}.}.}.}.}.}.}.}.}.}.}.}.}.}.}.}.}.}.}.}.}.}.}.}.}.}.}.}.}.}.}.}.}.}.}.}.}.}.}.}.}.}.}.}.}.}.}.}.}.}.",
"}.}.}.}.}.}.}.}.}.}.}.}.}.}.}.}.}.}.}.}.}.}.}.}.}.}.}.}.}.}.}.}.}.}.}.}.}.}.}.}.}.}.}.}.}.}.}.}.}.}.}.}.}.}.}.}.}.}.}.}.}.}.}.}.",
"}.}.}.}.}.}.}.}.}.}.}.}.}.}.}.}.}.}.}.}.}.}.}.}.}.}.}.}.}.}.}.}.}.}.}.}.}.}.}.}.}.}.}.}.}.}.}.}.}.}.}.}.}.}.}.}.}.}.}.}.}.}.}.}.",
"}.}.}.}.}.}.}.}.}.}.}.}.}.}.}.}.}.}.}.}.}.}.}.}.}.}.}.}.}.}.}.}.}.}.}.}.}.}.}.}.}.}.}.}.}.}.}.}.}.}.}.}.}.}.}.}.}.}.}.}.}.}.}.}."
};
