/* XPM */
static char *result[] = {
/* columns rows colors chars-per-pixel */
"64 64 197 2 ",
"   c #2A005A",
".  c #24005D",
"X  c #060066",
"o  c #0B0065",
"O  c #001C65",
"+  c #240169",
"@  c #220E68",
"#  c #270565",
"$  c #241367",
"%  c #251368",
"&  c #2C1A69",
"*  c #2C1769",
"=  c #3A1D64",
"-  c #311D69",
";  c #002C69",
":  c #00356F",
">  c #33236A",
",  c #3F2969",
"<  c #3A256A",
"1  c #352976",
"2  c #28316A",
"3  c #501B5E",
"4  c #61005A",
"5  c #451864",
"6  c #412567",
"7  c #42266A",
"8  c #442A69",
"9  c #482B6E",
"0  c #4E2861",
"q  c #502A60",
"w  c #4A326D",
"e  c #47316C",
"r  c #5C3B6D",
"t  c #56346A",
"y  c #4B2D72",
"u  c #462C71",
"i  c #4C3374",
"p  c #4B387B",
"a  c #543375",
"s  c #543A75",
"d  c #573C78",
"f  c #752E6A",
"g  c #642E75",
"h  c #673B73",
"j  c #693D73",
"k  c #673D78",
"l  c #69326E",
"z  c #464177",
"x  c #4A4178",
"c  c #574278",
"v  c #5C437A",
"b  c #5A4579",
"n  c #62416E",
"m  c #6C4172",
"M  c #644C7D",
"N  c #7B4475",
"B  c #7E4877",
"V  c #7D5775",
"C  c #7A4D64",
"Z  c #B26636",
"A  c #B7692D",
"S  c #8E386E",
"D  c #8E316D",
"F  c #93386F",
"G  c #96336E",
"H  c #8A3471",
"J  c #8E316E",
"K  c #A33671",
"L  c #BC3A74",
"P  c #B43873",
"I  c #C33D75",
"U  c #844958",
"Y  c #8F595E",
"T  c #8F535B",
"R  c #9D5A4E",
"E  c #A15C50",
"W  c #9F645E",
"Q  c #A0655D",
"!  c #B9765B",
"~  c #8E4F60",
"^  c #81516B",
"/  c #864E79",
"(  c #814877",
")  c #825773",
"_  c #855A76",
"`  c #8A5D75",
"'  c #85527B",
"]  c #8B5179",
"[  c #8C5B7D",
"{  c #855A78",
"}  c #93597A",
"|  c #A94475",
" . c #946476",
".. c #9D6B7C",
"X. c #98647A",
"o. c #9A6460",
"O. c #A7766D",
"+. c #A16E7D",
"@. c #AC727F",
"#. c #A5717C",
"$. c #B37565",
"%. c #C37B57",
"&. c #C54879",
"*. c #DA4F7D",
"=. c #AE8174",
"-. c #C7825D",
";. c #CE946B",
":. c #CD9367",
">. c #C99473",
",. c #D09270",
"<. c #E0A97A",
"1. c #432E81",
"2. c #443182",
"3. c #385891",
"4. c #254887",
"5. c #424680",
"6. c #485A91",
"7. c #565081",
"8. c #644D82",
"9. c #6A4F82",
"0. c #665185",
"q. c #695285",
"w. c #6D578A",
"e. c #755B8E",
"r. c #56658D",
"t. c #5D668C",
"y. c #596891",
"u. c #59769D",
"i. c #4D6E9B",
"p. c #6D638D",
"a. c #756180",
"s. c #76658F",
"d. c #7E708F",
"f. c #616C90",
"g. c #7D6694",
"h. c #6F729A",
"j. c #577DA4",
"k. c #627EA3",
"l. c #7D7CA4",
"z. c #866F80",
"x. c #8D7286",
"c. c #846A99",
"v. c #91769E",
"b. c #817A98",
"n. c #AF7580",
"m. c #A37589",
"M. c #B57A81",
"N. c #B17680",
"B. c #876BA3",
"V. c #9475A2",
"C. c #9879A5",
"Z. c #9878A4",
"A. c #EC5C84",
"S. c #F05E85",
"D. c #6E88A7",
"F. c #6E8CAB",
"G. c #6785A6",
"H. c #728EAC",
"J. c #7F8AA8",
"K. c #7291AF",
"L. c #7494B1",
"P. c #7A94B1",
"I. c #A5838C",
"U. c #BD8483",
"Y. c #B8998C",
"T. c #9F94BC",
"R. c #8E89A8",
"E. c #AE90A1",
"W. c #A998BD",
"Q. c #C28584",
"!. c #C58986",
"~. c #CB8D86",
"^. c #CC8F88",
"/. c #C58C88",
"(. c #CE9087",
"). c #CF9288",
"_. c #C39485",
"`. c #D19287",
"'. c #D39388",
"]. c #D8978A",
"[. c #C0A08A",
"{. c #E7B585",
"}. c #E3BF97",
"|. c #D9B6B5",
" X c #E1BEBD",
".X c #F4CE9C",
"XX c #F5D09D",
"oX c #FAD39A",
"OX c #EDC698",
"+X c #FAD4A1",
"@X c #AF9CC1",
"#X c #B7A7CC",
"$X c #E2BFC1",
"%X c #F7E6ED",
"&X c #F7ECFF",
"*X c #F8EDFF",
"=X c None",
/* pixels */
"=X=X=X=X=X=X=X=X=X=X=X=X=X=X=X=X=X=X=X=X=X=X=X=X=X=X=X=X=X=X=X=X=X=X=X=X=X=X=X=X=X=X=X=X=X=X=X=X=X=X=X=X=X=X=X=X=X=X=X=X=X=X=X=X",
"=X=X=X=X=X=X=X=X=X=X=X=X=X=X=X=X=X=X=X=X=X=X=X=X=X=X=X=X=X=X=X=X=X=X=X=X=X=X=X=X=X=X=X=X=X=X=X=X=X=X=X=X=X=X=X=X=X=X=X=X=X=X=X=X",
"=X=X=X=X=X=X=X=X=X=X=X=X=X=X=X=X=X=X=X=X=X=X=X=X=X=X=X=X=X=X=X=X=X=X=X=X=X=X=X=X=X=X=X=X=X=X=X=X=X=X=X=X=X=X=X=X=X=X=X=X=X=X=X=X",
"=X=X=X=X=X=X=X=X=X=X=X=X=X=X=X=X=X=X=X=X=X=X=X=X=X=X=X=X=X=X=X=X=X=X=X=X=X=X=X=X=X=X=X=X=X=X=X=X=X=X=X=X=X=X=X=X=X=X=X=X=X=X=X=X",
"=X=X=X=X=X=X=X=X=X=X=X=X=X=X=X=X=X=X=X=X=X=X=X=X=X=X=X=X=X=X=X=X=X=X=X=X=X=X=X=X=X=X=X=X=X=X=X=X=X=X=X=X=X=X=X=X=X=X=X=X=X=X=X=X",
"=X=X=X=X=X=X=X=X=X=X=X=X=X=X=X=X=X=X=X=X=X=X=X=X=X=X=X=X=X=X=X=X=X=X=X=X=X=X=X=X=X=X=X=X=X=X=X=X=X=X=X=X=X=X=X=X=X=X=X=X=X=X=X=X",
"=X=X=X=X=X=X=X=X=X=X=X=X=X=X=X=X=X=X=X=X=X=X=X=X=X=X=X=X=X=X=X=X=X=X=X=X=X=X=X=X=X=X=X=X=X=X=X=X=X=X=X=X=X=X=X=X=X=X=X=X=X=X=X=X",
"=X=X=X=X=X=X=X=X=X=X=X=X=X=X=X=X=X=X=X=X=X=X=X=X=X=X=X=X=X=X=X=X=X=X=X=X=X=X=X=X=X=X=X=X=X=X=X=X=X=X=X=X=X=X=X=X=X=X=X=X=X=X=X=X",
"=X=X=X=X=X=X=X=X=X=X=X=X=X=X=X=X=X=X=X=X=X=X=X=X=X=X=X=X=X=X=X=X=X=X=X=X=X=X=X=X=X=X=X=X=X=X=X=X=X=X=X=X=X=X=X=X=X=X=X=X=X=X=X=X",
"=X=X=X=X=X=X=X=X=X=X=X=X=X=X=X=X=X=X=X=X=X=X=X=X=X=X=X=X% % > 8 8 > @ % =X=X=X=X=X=X=X=X=X=X=X=X=X=X=X=X=X=X=X=X=X=X=X=X=X=X=X=X",
"=X=X=X=X=X=X=X=X=X=X=X=X=X=X=X=X=X=X=X=X=X=X=X=X=X=X=X) m.X.[ l h { ..+.) =X=X=X=X=X=X=X=X=X=X=X=X=X=X=X=X=X=X=X=X=X=X=X=X=X=X=X",
"=X=X=X=X=X=X=X=X=X=X=X=X=X=X=X=X=X=X=X=X=X=X=X=X=X=X$ +.].].M.] ' M.].]...& =X=X=X=X=X=X=X=X=X=X=X=X=X=X=X=X=X=X=X=X=X=X=X=X=X=X",
"=X=X=X=X=X=X=X=X=X=X=X=X=X=X=X=X=X=X=X=X=X=Xw & $ - o  .(.~.n.j j M.`.(.} o - $ - w =X=X=X=X=X=X=X=X=X=X=X=X=X=X=X=X=X=X=X=X=X=X",
"=X=X=X=X=X=X=X=X=X=X=X=X=X=X=X=X=X=X=X=X=X8 <  .#.+.h +.'.(.Q.n.n.Q.~.`...j #.+.X.- 8 =X=X=X=X=X=X=X=X=X=X=X=X=X=X=X=X=X=X=X=X=X",
"=X=X=X=X=X=X=X=X=X=X=X=X=X=X=X=X=X=X=X=X9 a n !.].(.} @.~.~.(.(.`.`.!.~.@.X.`.].Q.r d 8 =X=X=X=X=X=X=X=X=X=X=X=X=X=X=X=X=X=X=X=X",
"=X=X=X=X=X=X=X=X=X=X=X=X=X=X=X=X=X=X=X=X& ` (.~.~.~.`.@.( !.(.~.~.(.!.( @.(.~.~.~.~.) % =X=X=X=X=X=X=X=X=X=X=X=X=X=X=X=X=X=X=X=X",
"=X=X=X=X=X=X=X=X=X=X=X=X=X=X=X=X=X=X=X=X& ` ].~.~.~.(.Q.M.~.~.(.~.(.(.@.U.(.(.~.~.'.{ % =X=X=X=X=X=X=X=X=X=X=X=X=X=X=X=X=X=X=X=X",
"=X=X=X=X=X=X=X=X=X=X=X=X=X=X=X=X=X=X=X=X& _ !./.~.~.~.(.(.~.~.~.~.~.(.(.(.~.~.~.!.!.V * =X=X=X=X=X=X=X=X=X=X=X=X=X=X=X=X=X=X=X=X",
"=X=X=X=X=X=X=X=X=X=X=X=X=X=X=X=X=X=X=X=X8 k ] !.'.(.).).(.'.(.(.`.`.`.`.).`.`.].!.] k , =X=X=X=X=X=X=X=X=X=X=X=X=X=X=X=X=X=X=X=X",
"=X=X=X=X=X=X=X=X=X=X=X=X=X=X=X=X=X=X=X=X=Xr k ` [ ] z.V ^ ` ` { _ ` ` ^ ) _ ` [ { k r =X=X=X=X=X=X=X=X=X=X=X=X=X=X=X=X=X=X=X=X=X",
"=X=X=X=X=X=X=X=X=X=X=X=X=X=X=X=X=X=X=X=X=X=X, & $ * q 0.p.& 6 t t < - p.M q & % * 8 =X=X=X=X=X=X=X=X=X=X=X=X=X=X=X=X=X=X=X=X=X=X",
"=X=X=X=X=X=X=X=X=X=X=X=X=X=X=X=X=X=X=X=X=X=X=X=X=Xb Z OX*Xb Y -.-.Y b &X|.Z s =X=X=X=X=X=X=X=X=X=X=X=X=X=X=X=X=X=X=X=X=X=X=X=X=X",
"=X=X=X=X=X=X=X=X=X=X=X=X=X=X=X=X=X=X=X=X=X=X=X=X=Xs A $X*X1 U %.%.C p *X|.A i =X=X=X=X=X=X=X=X=X=X=X=X=X=X=X=X=X=X=X=X=X=X=X=X=X",
"=X=X=X=X=X=X=X=X=X=X=X=X=X=X=X=X=X=X=X=X=X=X=X=X=Xx W |.%X .O.;.:.=.x.%X|.E i =X=X=X=X=X=X=X=X=X=X=X=X=X=X=X=X=X=X=X=X=X=X=X=X=X",
"=X=X=X=X=X=X=X=X=X=X=X=X=X=X=X=X=X=X=X=X=X=X=X=X=Xd 2.Y.oX.XXX.XoX.X.XoXY.1 d =X=X=X=X=X=X=X=X=X=X=X=X=X=X=X=X=X=X=X=X=X=X=X=X=X",
"=X=X=X=X=X=X=X=X=X=X=X=X=X=X=X=X=X=X=X=X=X=X=X=X=X=X1 a.I.:._.E.E.>.:.m.a.1 =X=X=X=X=X=X=X=X=X=X=X=X=X=X=X=X=X=X=X=X=X=X=X=X=X=X",
"=X=X=X=X=X=X=X=X=X=X=X=X=X=X=X=X=X=X=X=X=X=X=X=X=X=Xf g p $.m.B.B.m.O.p g f =X=X=X=X=X=X=X=X=X=X=X=X=X=X=X=X=X=X=X=X=X=X=X=X=X=X",
"=X=X=X=X=X=X=X=X=X=X=X=X=X=X=X=X=X=X=X=X=X=X=X=X=Xa L G 2 V.C.C.V.C.V.2 G L p =X=X=X=X=X=X=X=X=X=X=X=X=X=X=X=X=X=X=X=X=X=X=X=X=X",
"=X=X=X=X=X=X=X=X=X=X=X=X=X=X=X=X=X=X=X=X=X=X=X=X=Xa L L K d z x x z b K L P 9 =X=X=X=X=X=X=X=X=X=X=X=X=X=X=X=X=X=X=X=X=X=X=X=X=X",
"=X=X=X=X=X=X=X=X=X=X=X=X=X=X=X=X=X=X=X=X=X=X=X=X=Xt G P L F J J S S J L P G y =X=X=X=X=X=X=X=X=X=X=X=X=X=X=X=X=X=X=X=X=X=X=X=X=X",
"=X=X=X=X=X=X=X=X=X=X=X=X=X=X=X=X=X=X=X=X=X=X=Xe i =X; H I A.A.A.S.S.A.I J O 9 =X=X=X=X=X=X=X=X=X=X=X=X=X=X=X=X=X=X=X=X=X=X=X=X=X",
"=X=X=X=X=X=X=X=X=X=X=X=X=X=X=X=X=X=X=X=X=X=X9 E >..X! ~ l I *.A.A.*.L 4 v.@XW.s.  =X=X=X=X=X=X=X=X=X=X=X=X=X=X=X=X=X=X=X=X=X=X=X",
"=X=X=X=X=X=X=X=X=X=X=X=X=X=X=X=X=X=X=X=X=X=Xu >.{.+X<.O.+ J &.A.A.&.S 7.J.T.#Xb.  =X=X=X=X=X=X=X=X=X=X=X=X=X=X=X=X=X=X=X=X=X=X=X",
"=X=X=X=X=X=X=X=X=X=X=X=X=X=X=X=X=X=X=X=X=X=X7 OXXXOXoXY.+ ; | A.S.| : L.i.6.#Xg.  =X=X=X=X=X=X=X=X=X=X=X=X=X=X=X=X=X=X=X=X=X=X=X",
"=X=X=X=X=X=X=X=X=X=X=X=X=X=X=X=X=X=X=X=X=X=Xp ! {.XX;.W + G.J.R.e.h.D.K.t.r >.[ @ =X=X=X=X=X=X=X=X=X=X=X=X=X=X=X=X=X=X=X=X=X=X=X",
"=X=X=X=X=X=X=X=X=X=X=X=X=X=X=X=X=X=X=X=X=X=Xw T =.[.Q V r.H.F.j.i.G.K.L.r.5 W C =X=X=X=X=X=X=X=X=X=X=X=X=X=X=X=X=X=X=X=X=X=X=X=X",
"=X=X=X=X=X=X=X=X=X=X=X=X=X=X=X=X=X=X=X=X=X=X=X> + X # y.L.K.j.6.K.H.F.K.t.5 - =X=X=X=X=X=X=X=X=X=X=X=X=X=X=X=X=X=X=X=X=X=X=X=X=X",
"=X=X=X=X=X=X=X=X=X=X=X=X=X=X=X=X=X=X=X=X=X=X=X=X=X=X. y.L.F.F.G.i.k.K.L.u.4.i =X=X=X=X=X=X=X=X=X=X=X=X=X=X=X=X=X=X=X=X=X=X=X=X=X",
"=X=X=X=X=X=X=X=X=X=X=X=X=X=X=X=X=X=X=X=X=X=X=X=X=X=X .c.G.F.K.F.5.u.L.j.b.x.y =X=X=X=X=X=X=X=X=X=X=X=X=X=X=X=X=X=X=X=X=X=X=X=X=X",
"=X=X=X=X=X=X=X=X=X=X=X=X=X=X=X=X=X=X=X=X=X=X=X=X=Xa (.I.3.D.K.D.5 f.L.3.M.!.u =X=X=X=X=X=X=X=X=X=X=X=X=X=X=X=X=X=X=X=X=X=X=X=X=X",
"=X=X=X=X=X=X=X=X=X=X=X=X=X=X=X=X=X=X=X=X=X=X=X=X=Xt ~.~./.z.' [ ] ' [ /.(.U.9 =X=X=X=X=X=X=X=X=X=X=X=X=X=X=X=X=X=X=X=X=X=X=X=X=X",
"=X=X=X=X=X=X=X=X=X=X=X=X=X=X=X=X=X=X=X=X=X=X=X=X=Xa n.n.@./ N j j N } ~.`.Q.9 =X=X=X=X=X=X=X=X=X=X=X=X=X=X=X=X=X=X=X=X=X=X=X=X=X",
"=X=X=X=X=X=X=X=X=X=X=X=X=X=X=X=X=X=X=X=X=X=X=X=X=X8 N B H ' m < < j } Q.~.U.y =X=X=X=X=X=X=X=X=X=X=X=X=X=X=X=X=X=X=X=X=X=X=X=X=X",
"=X=X=X=X=X=X=X=X=X=X=X=X=X=X=X=X=X=X=X=X=X=X=X=X=X=X8 v q.0.8.8.6 j ] / ] ( 9 =X=X=X=X=X=X=X=X=X=X=X=X=X=X=X=X=X=X=X=X=X=X=X=X=X",
"=X=X=X=X=X=X=X=X=X=X=X=X=X=X=X=X=X=X=X=X=X=X=X=X=X=X, d 0.8.8.8., j } @.@.@.y =X=X=X=X=X=X=X=X=X=X=X=X=X=X=X=X=X=X=X=X=X=X=X=X=X",
"=X=X=X=X=X=X=X=X=X=X=X=X=X=X=X=X=X=X=X=X=X=X=X=X=X=X7 d 8.8.8.M 8 j [ /.^.Q.y =X=X=X=X=X=X=X=X=X=X=X=X=X=X=X=X=X=X=X=X=X=X=X=X=X",
"=X=X=X=X=X=X=X=X=X=X=X=X=X=X=X=X=X=X=X=X=X=X=X9 8 8 8 8 8 8 8 8 6 c M q.8.v = 7 9 =X=X=X=X=X=X=X=X=X=X=X=X=X=X=X=X=X=X=X=X=X=X=X",
"=X=X=X=X=X=X=X=X=X=X=X=X=X=X=X=X=X=X=X=X=X=Xw 8 8 6 8 8 8 8 8 8 6 c q.b e.c.g.v , w =X=X=X=X=X=X=X=X=X=X=X=X=X=X=X=X=X=X=X=X=X=X",
"=X=X=X=X=X=X=X=X=X=X=X=X=X=X=X=X=X=X=X=X=X=Xy 8 7 8 8 8 8 8 8 8 6 c 9.q.c.C.C.9.= i =X=X=X=X=X=X=X=X=X=X=X=X=X=X=X=X=X=X=X=X=X=X",
"=X=X=X=X=X=X=X=X=X=X=X=X=X=X=X=X=X=X=X=X9 9 8 8 8 8 8 6 8 6 8 8 6 d w.Z.Z.V.C.q.= 8 9 8 =X=X=X=X=X=X=X=X=X=X=X=X=X=X=X=X=X=X=X=X",
"=X=X=X=X=X=X=X=X=X=X=X=X=X=X=X=X=X=X=X=Xw y 8 8 6 8 8 8 8 8 8 6 8 w s M M M M t 7 8 y 9 =X=X=X=X=X=X=X=X=X=X=X=X=X=X=X=X=X=X=X=X",
"=X=X=X=X=X=X=X=X=X=X=X=X=X=X=X=X=X=X=X=Xe 8 8 8 8 8 8 8 8 8 8 8 8 6 7 = = = < 7 8 8 8 9 =X=X=X=X=X=X=X=X=X=X=X=X=X=X=X=X=X=X=X=X",
"=X=X=X=X=X=X=X=X=X=X=X=X=X=X=X=X=X=X=X=X=X=Xi 8 8 8 8 6 8 8 8 8 8 8 8 9 8 9 8 8 8 i =X=X=X=X=X=X=X=X=X=X=X=X=X=X=X=X=X=X=X=X=X=X",
"=X=X=X=X=X=X=X=X=X=X=X=X=X=X=X=X=X=X=X=X=X=X=X8 9 9 9 9 9 9 9 9 y 8 y 9 9 9 9 9 8 =X=X=X=X=X=X=X=X=X=X=X=X=X=X=X=X=X=X=X=X=X=X=X",
"=X=X=X=X=X=X=X=X=X=X=X=X=X=X=X=X=X=X=X=X=X=X=X8 8 8 8 8 8 8 8 8 8 8 6 8 8 7 8 8 8 =X=X=X=X=X=X=X=X=X=X=X=X=X=X=X=X=X=X=X=X=X=X=X",
"=X=X=X=X=X=X=X=X=X=X=X=X=X=X=X=X=X=X=X=X=X=X=X=X=X=X=X=X=X=X=X=X=X=X=X=X=X=X=X=X=X=X=X=X=X=X=X=X=X=X=X=X=X=X=X=X=X=X=X=X=X=X=X=X",
"=X=X=X=X=X=X=X=X=X=X=X=X=X=X=X=X=X=X=X=X=X=X=X=X=X=X=X=X=X=X=X=X=X=X=X=X=X=X=X=X=X=X=X=X=X=X=X=X=X=X=X=X=X=X=X=X=X=X=X=X=X=X=X=X",
"=X=X=X=X=X=X=X=X=X=X=X=X=X=X=X=X=X=X=X=X=X=X=X=X=X=X=X=X=X=X=X=X=X=X=X=X=X=X=X=X=X=X=X=X=X=X=X=X=X=X=X=X=X=X=X=X=X=X=X=X=X=X=X=X",
"=X=X=X=X=X=X=X=X=X=X=X=X=X=X=X=X=X=X=X=X=X=X=X=X=X=X=X=X=X=X=X=X=X=X=X=X=X=X=X=X=X=X=X=X=X=X=X=X=X=X=X=X=X=X=X=X=X=X=X=X=X=X=X=X",
"=X=X=X=X=X=X=X=X=X=X=X=X=X=X=X=X=X=X=X=X=X=X=X=X=X=X=X=X=X=X=X=X=X=X=X=X=X=X=X=X=X=X=X=X=X=X=X=X=X=X=X=X=X=X=X=X=X=X=X=X=X=X=X=X",
"=X=X=X=X=X=X=X=X=X=X=X=X=X=X=X=X=X=X=X=X=X=X=X=X=X=X=X=X=X=X=X=X=X=X=X=X=X=X=X=X=X=X=X=X=X=X=X=X=X=X=X=X=X=X=X=X=X=X=X=X=X=X=X=X",
"=X=X=X=X=X=X=X=X=X=X=X=X=X=X=X=X=X=X=X=X=X=X=X=X=X=X=X=X=X=X=X=X=X=X=X=X=X=X=X=X=X=X=X=X=X=X=X=X=X=X=X=X=X=X=X=X=X=X=X=X=X=X=X=X",
"=X=X=X=X=X=X=X=X=X=X=X=X=X=X=X=X=X=X=X=X=X=X=X=X=X=X=X=X=X=X=X=X=X=X=X=X=X=X=X=X=X=X=X=X=X=X=X=X=X=X=X=X=X=X=X=X=X=X=X=X=X=X=X=X",
"=X=X=X=X=X=X=X=X=X=X=X=X=X=X=X=X=X=X=X=X=X=X=X=X=X=X=X=X=X=X=X=X=X=X=X=X=X=X=X=X=X=X=X=X=X=X=X=X=X=X=X=X=X=X=X=X=X=X=X=X=X=X=X=X"
};
