/* XPM */
static char *result[] = {
/* columns rows colors chars-per-pixel */
"64 64 188 2 ",
"   c #00003A",
".  c #000045",
"X  c #000053",
"o  c #31005F",
"O  c #010067",
"+  c #1E0066",
"@  c #18136A",
"#  c #260464",
"$  c #330062",
"%  c #281669",
"&  c #2D1D6B",
"*  c #261166",
"=  c #331967",
"-  c #381D6C",
";  c #012C6A",
":  c #002669",
">  c #00316D",
",  c #192C6A",
"<  c #2E206B",
"1  c #3D2267",
"2  c #3D246A",
"3  c #3B2B6C",
"4  c #332A6A",
"5  c #2A2C72",
"6  c #293B78",
"7  c #501E5E",
"8  c #461E64",
"9  c #412566",
"0  c #422569",
"q  c #452A6A",
"w  c #492D6D",
"e  c #552B6A",
"r  c #572B68",
"t  c #45316D",
"y  c #4B326D",
"u  c #56326A",
"i  c #4B2E73",
"p  c #4B2C74",
"a  c #4C3272",
"s  c #463971",
"d  c #4C3573",
"f  c #513373",
"g  c #523B73",
"h  c #5B3D72",
"j  c #533B7A",
"k  c #6E2C6A",
"l  c #752368",
"z  c #6B3C74",
"x  c #643971",
"c  c #743C72",
"v  c #7A3270",
"b  c #653A6E",
"n  c #5B457C",
"m  c #5B477A",
"M  c #454877",
"N  c #6C4372",
"B  c #674777",
"V  c #744575",
"C  c #7A4276",
"Z  c #72457A",
"A  c #714A79",
"S  c #724B76",
"D  c #70516B",
"F  c #9F2C6C",
"G  c #8F3171",
"H  c #A83771",
"J  c #B73A74",
"K  c #C33C75",
"L  c #9B5A59",
"P  c #A05B52",
"I  c #9E625E",
"U  c #A16056",
"Y  c #824B76",
"T  c #844C79",
"R  c #804776",
"E  c #855A73",
"W  c #8A5A75",
"Q  c #8C537A",
"!  c #81537F",
"~  c #90557A",
"^  c #9F4778",
"/  c #A84377",
"(  c #B4477B",
")  c #BF4479",
"_  c #8A617B",
"`  c #8B6E7C",
"'  c #94647B",
"]  c #9C657B",
"[  c #9F6D7A",
"{  c #936375",
"}  c #B47561",
"|  c #A36C7D",
" . c #A4717D",
".. c #AB717E",
"X. c #A47979",
"o. c #B0787E",
"O. c #A36C67",
"+. c #C6487B",
"@. c #CF527F",
"#. c #DE507D",
"$. c #BE9178",
"%. c #CB926E",
"&. c #D09267",
"*. c #C99273",
"=. c #DBA373",
"-. c #4A3480",
";. c #304C85",
":. c #5B4883",
">. c #435382",
",. c #634D83",
"<. c #6B4E80",
"1. c #665084",
"2. c #695286",
"3. c #6A5A86",
"4. c #71568C",
"5. c #5C6D93",
"6. c #5D6C9C",
"7. c #416799",
"8. c #766387",
"9. c #7B6293",
"0. c #786699",
"q. c #6E7E9E",
"w. c #757C9D",
"e. c #826988",
"r. c #9D6E87",
"t. c #8C6F9C",
"y. c #866998",
"u. c #8F729F",
"i. c #90729F",
"p. c #9A7C87",
"a. c #A16E80",
"s. c #AE7280",
"d. c #B27780",
"f. c #B47A81",
"g. c #BA7E82",
"h. c #8F74A5",
"j. c #9374A1",
"k. c #CE5782",
"l. c #E75A83",
"z. c #E95A83",
"x. c #F36388",
"c. c #6686A6",
"v. c #718CAD",
"b. c #7290AD",
"n. c #7A90AE",
"m. c #8F819F",
"M. c #90819F",
"N. c #A98D8D",
"B. c #BC8382",
"V. c #B39385",
"C. c #BE8993",
"Z. c #BC9E90",
"A. c #9795AB",
"S. c #B7A6BA",
"D. c #C08583",
"F. c #C58984",
"G. c #CB8D86",
"H. c #CF9087",
"J. c #D19187",
"K. c #D29388",
"L. c #D9978A",
"P. c #DAB794",
"I. c #CAAA8E",
"U. c #E7B888",
"Y. c #C3ABB9",
"T. c #C8BBBB",
"R. c #E5C29C",
"E. c #EAC598",
"W. c #EEC99A",
"Q. c #ECC594",
"!. c #F3CD9B",
"~. c #F7D19B",
"^. c #FBD49D",
"/. c #EDCAA9",
"(. c #B7A8C7",
"). c #BDB2D4",
"_. c #C6B7D9",
"`. c #D2C4DA",
"'. c #D7D5DB",
"]. c #E5D7EC",
"[. c #EBDEF1",
"{. c #FFF8ED",
"}. c #EDE1F3",
"|. c #F7EAFC",
" X c #F9ECFE",
".X c #F1E5F7",
"XX c #FEF3FF",
"oX c None",
/* pixels */
"oXoXoXoXoXoXoXoXoXoXoXoXoXoXoXoXoXoXoXoXoXoXoXoXoXoXoXoXoXoXoXoXoXoXoXoXoXoXoXoXoXoXoXoXoXoXoXoXoXoXoXoXoXoXoXoXoXoXoXoXoXoXoXoX",
"oXoXoXoXoXoXoXoXoXoXoXoXoXoXoXoXoXoXoXoXoXoXoXoXoXoXoXoXoXoXoXoXoXoXoXoXoXoXoXoXoXoXoXoXoXoXoXoXoXoXoXoXoXoXoXoXoXoXoXoXoXoXoXoX",
"oXoXoXoXoXoXoXoXoXoXoXoXoXoXoXoXoXoXoXoXoXoXoXoXoXoXoXoXoXoXoXoXoXoXoXoXoXoXoXoXoXoXoXoXoXoXoXoXoXoXoXoXoXoXoXoXoXoXoXoXoXoXoXoX",
"oXoXoXoXoXoXoXoXoXoXoXoXoXoXoXoXoXoXoXoXoXoXoXoXoXoXoXoXoXoXoXoXoXoXoXoXoXoXoXoXoXoXoXoXoXoXoXoXoXoXoXoXoXoXoXoXoXoXoXoXoXoXoXoX",
"oXoXoXoXoXoXoXoXoXoXoXoXoXoXoXoXoXoXoXoXoXoXoXoXoXoXoXoXoXoXoXoXoXoXoXoXoXoXoXoXoXoXoXoXoXoXoXoXoXoXoXoXoXoXoXoXoXoXoXoXoXoXoXoX",
"oXoXoXoXoXoXoXoXoXoXoXoXoXoXoXoXoXoXoXoXoXoXoXoXoXoXoXoXoXoXoXoXoXoXoXoXoXoXoXoXoXoXoXoXoXoXoXoXoXoXoXoXoXoXoXoXoXoXoXoXoXoXoXoX",
"oXoXoXoXoXoXoXoXoXoXoXoXoXoXoXoXoXoXoXoXoXoXoXoXoXoXoXoXoXoXoXoXoXoXoXoXoXoXoXoXoXoXoXoXoXoXoXoXoXoXoXoXoXoXoXoXoXoXoXoXoXoXoXoX",
"oXoXoXoXoXoXoXoXoXoXoXoXoXoXoXoXoXoXoXoXoXoXoXoXoXoXoXoXoXoXoXoXoXoXoXoXoXoXoXoXoXoXoXoXoXoXoXoXoXoXoXoXoXoXoXoXoXoXoXoXoXoXoXoX",
"oXoXoXoXoXoXoXoXoXoXoXoXoXoXoXoXoXoXoXoXoXoXoXoXoXoXoXoXoXoXoXoXoXoXoXoXoXoXoXoXoXoXoXoXoXoXoXoXoXoXoXoXoXoXoXoXoXoXoXoXoXoXoXoX",
"oXoXoXoXoXoXoXoXoXoXoXoXoXoXoXoXoXoXoXoXoXoXoXoXoXoXoXoX< & 3 t q 3 & < oXoXoXoXoXoXoXoXoXoXoXoXoXoXoXoXoXoXoXoXoXoXoXoXoXoXoXoX",
"oXoXoXoXoXoXoXoXoXoXoXoXoXoXoXoXoXoXoXoXoXoXoXoXoXoXoXE a.| W z x W [ a.W oXoXoXoXoXoXoXoXoXoXoXoXoXoXoXoXoXoXoXoXoXoXoXoXoXoXoX",
"oXoXoXoXoXoXoXoXoXoXoXoXoXoXoXoXoXoXoXoXoXoXoXoXoXoX& [ L.L.f.T T f.L.L.| % oXoXoXoXoXoXoXoXoXoXoXoXoXoXoXoXoXoXoXoXoXoXoXoXoXoX",
"oXoXoXoXoXoXoXoXoXoXoXoXoXoXoXoXoXoXoXoXoXoXoXoXoXoX@ ' J.H.s.C C s.G.J.' O oXoXoXoXoXoXoXoXoXoXoXoXoXoXoXoXoXoXoXoXoXoXoXoXoXoX",
"oXoXoXoXoXoXoXoXoXoXoXoXoXoXoXoXoXoXoXoXoXoXoXoX# 3 x  .J.H.B.f.d.D.H.J.| x 3 # oXoXoXoXoXoXoXoXoXoXoXoXoXoXoXoXoXoXoXoXoXoXoXoX",
"oXoXoXoXoXoXoXoXoXoXoXoXoXoXoXoXoXoXoXoXoXoXoXA A S T d.H.G.H.H.J.G.H.H.s.T S A N oXoXoXoXoXoXoXoXoXoXoXoXoXoXoXoXoXoXoXoXoXoXoX",
"oXoXoXoXoXoXoXoXoXoXoXoXoXoXoXoXoXoXoXoXoXoX- D.J.G.R ..K.G.G.G.G.G.G.K...C G.K.F.2 oXoXoXoXoXoXoXoXoXoXoXoXoXoXoXoXoXoXoXoXoXoX",
"oXoXoXoXoXoXoXoXoXoXoXoXoXoXoXoXoXoXoXoXoX_ f.F.H.G.g.s.| F.H.G.G.H.F.| s.g.G.H.F.f.E oXoXoXoXoXoXoXoXoXoXoXoXoXoXoXoXoXoXoXoXoX",
"oXoXoXoXoXoXoXoXoXoXoXoXoXoXoXoXoXoXoXoX% ' J.G.G.G.J.f.Q G.G.G.G.H.F.Q f.J.G.G.G.G.r.& oXoXoXoXoXoXoXoXoXoXoXoXoXoXoXoXoXoXoXoX",
"oXoXoXoXoXoXoXoXoXoXoXoXoXoXoXoXoXoXoXoXq z Q G.H.G.G.G.G.G.G.G.G.G.G.G.F.G.G.H.F.~ z t oXoXoXoXoXoXoXoXoXoXoXoXoXoXoXoXoXoXoXoX",
"oXoXoXoXoXoXoXoXoXoXoXoXoXoXoXoXoXoXoXoXoXh Z ] g.J.H.H.H.H.H.H.H.H.H.H.H.H.J.B.] Z h oXoXoXoXoXoXoXoXoXoXoXoXoXoXoXoXoXoXoXoXoX",
"oXoXoXoXoXoXoXoXoXoXoXoXoXoXoXoXoXoXoXoXoXoXt z ] B.$.B.B.B.B.B.B.B.B.B.B.B.B.] z w oXoXoXoXoXoXoXoXoXoXoXoXoXoXoXoXoXoXoXoXoXoX",
"oXoXoXoXoXoXoXoXoXoXoXoXoXoXoXoXoXoXoXoXoXoXoXg i 2 q $ X & < - 0 0 1 1 1 1 0 w y oXoXoXoXoXoXoXoXoXoXoXoXoXoXoXoXoXoXoXoXoXoXoX",
"oXoXoXoXoXoXoXoXoXoXoXoXoXoXoXoXoXoXoXoXoXoXoXoXy y X A.'.O.P I j j m m n n w g oXoXoXoXoXoXoXoXoXoXoXoXoXoXoXoXoXoXoXoXoXoXoXoX",
"oXoXoXoXoXoXoXoXoXoXoXoXoXoXoXoXoXoXoXoXoXoXoXoXoXg N T.{.=.&.*.p.8.,.,.1.,.a oXoXoXoXoXoXoXoXoXoXoXoXoXoXoXoXoXoXoXoXoXoXoXoXoX",
"oXoXoXoXoXoXoXoXoXoXoXoXoXoXoXoXoXoXoXoXoXoXoXoXoXh W.!.Q.!.!.W.^.Z.-.1.,.,.i oXoXoXoXoXoXoXoXoXoXoXoXoXoXoXoXoXoXoXoXoXoXoXoXoX",
"oXoXoXoXoXoXoXoXoXoXoXoXoXoXoXoXoXoXoXoXoXoXoXoXoXh *.U.!.!.!.!.=.X.:.1.,.,.a oXoXoXoXoXoXoXoXoXoXoXoXoXoXoXoXoXoXoXoXoXoXoXoXoX",
"oXoXoXoXoXoXoXoXoXoXoXoXoXoXoXoXoXoXoXoXoXoXoXoXoXh P *.R.P.P.P.} W :.1.B m a oXoXoXoXoXoXoXoXoXoXoXoXoXoXoXoXoXoXoXoXoXoXoXoXoX",
"oXoXoXoXoXoXoXoXoXoXoXoXoXoXoXoXoXoXoXoXoXoXoXoXoXoX4 4.j.,.:.:.1.1.3.4.n - 5 oXoXoXoXoXoXoXoXoXoXoXoXoXoXoXoXoXoXoXoXoXoXoXoXoX",
"oXoXoXoXoXoXoXoXoXoXoXoXoXoXoXoXoXoXoXoXoXoXoXoXoXoXw g m s s s g 2 $ $ = e @.^ : oXoXoXoXoXoXoXoXoXoXoXoXoXoXoXoXoXoXoXoXoXoXoX",
"oXoXoXoXoXoXoXoXoXoXoXoXoXoXoXoXoXoXoXoXoXoXoXoXoXoXa r k k k k 1 8.m.M.3.e l.+.v oXoXoXoXoXoXoXoXoXoXoXoXoXoXoXoXoXoXoXoXoXoXoX",
"oXoXoXoXoXoXoXoXoXoXoXoXoXoXoXoXoXoXoXoXoXoXoXoXoXoX5 G K K K )   (.XXXXS.  H #.z.f oXoXoXoXoXoXoXoXoXoXoXoXoXoXoXoXoXoXoXoXoXoX",
"oXoXoXoXoXoXoXoXoXoXoXoXoXoXoXoXoXoXoXoXoXoXoXoXoXoX, / #.K F c `.}. X X[.`.S H +.i oXoXoXoXoXoXoXoXoXoXoXoXoXoXoXoXoXoXoXoXoXoX",
"oXoXoXoXoXoXoXoXoXoXoXoXoXoXoXoXoXoXoXoXoXoXoXoXoXoX: ( x.J v M |.XX X XXX|.M l H t oXoXoXoXoXoXoXoXoXoXoXoXoXoXoXoXoXoXoXoXoXoX",
"oXoXoXoXoXoXoXoXoXoXoXoXoXoXoXoXoXoXoXoXoXoXoXoXoXoX; ( z.0 6 5..X X X X X}.B = 3 a oXoXoXoXoXoXoXoXoXoXoXoXoXoXoXoXoXoXoXoXoXoX",
"oXoXoXoXoXoXoXoXoXoXoXoXoXoXoXoXoXoXoXoXoXoXoXoXoXoX; ( x.w.c.v.)._._. XXXXXB y oXoXoXoXoXoXoXoXoXoXoXoXoXoXoXoXoXoXoXoXoXoXoXoX",
"oXoXoXoXoXoXoXoXoXoXoXoXoXoXoXoXoXoXoXoXoXoXoXoXoXoX> / k.n.c.c.S.Y.Y.].].`.m oXoXoXoXoXoXoXoXoXoXoXoXoXoXoXoXoXoXoXoXoXoXoXoXoX",
"oXoXoXoXoXoXoXoXoXoXoXoXoXoXoXoXoXoXoXoXoXoXoXoXoXoXoXoX5 b.5.7 Q.~.E.(.0.. oXoXoXoXoXoXoXoXoXoXoXoXoXoXoXoXoXoXoXoXoXoXoXoXoXoX",
"oXoXoXoXoXoXoXoXoXoXoXoXoXoXoXoXoXoXoXoXoXoXoXoXoXoXoXoXf b.5.u E.!.W./.N.+ oXoXoXoXoXoXoXoXoXoXoXoXoXoXoXoXoXoXoXoXoXoXoXoXoXoX",
"oXoXoXoXoXoXoXoXoXoXoXoXoXoXoXoXoXoXoXoXoXoXoXoXoXoXoXoXd b.5.u E.!.W.^.V.O oXoXoXoXoXoXoXoXoXoXoXoXoXoXoXoXoXoXoXoXoXoXoXoXoXoX",
"oXoXoXoXoXoXoXoXoXoXoXoXoXoXoXoXoXoXoXoXoXoXoXoXoXoXoXoXy b.5.u R.!.W.^.V.O oXoXoXoXoXoXoXoXoXoXoXoXoXoXoXoXoXoXoXoXoXoXoXoXoXoX",
"oXoXoXoXoXoXoXoXoXoXoXoXoXoXoXoXoXoXoXoXoXoXoXoXoXoXoXoXa 7.;.9 %.=.!.e.D oXoXoXoXoXoXoXoXoXoXoXoXoXoXoXoXoXoXoXoXoXoXoXoXoXoXoX",
"oXoXoXoXoXoXoXoXoXoXoXoXoXoXoXoXoXoXoXoXoXoXoXoXoXoXoXy y 9._ E L $.I.0 oXoXoXoXoXoXoXoXoXoXoXoXoXoXoXoXoXoXoXoXoXoXoXoXoXoXoXoX",
"oXoXoXoXoXoXoXoXoXoXoXoXoXoXoXoXoXoXoXoXoXoXoXoXoXoXd q u F.K.F.t O # i oXoXoXoXoXoXoXoXoXoXoXoXoXoXoXoXoXoXoXoXoXoXoXoXoXoXoXoX",
"oXoXoXoXoXoXoXoXoXoXoXoXoXoXoXoXoXoXoXoXoXoXoXoXoXoXy 1 y H.K.H.F.| C f oXoXoXoXoXoXoXoXoXoXoXoXoXoXoXoXoXoXoXoXoXoXoXoXoXoXoXoX",
"oXoXoXoXoXoXoXoXoXoXoXoXoXoXoXoXoXoXoXoXoXoXoXoXoXoXt f N | d.f.B.| R y w oXoXoXoXoXoXoXoXoXoXoXoXoXoXoXoXoXoXoXoXoXoXoXoXoXoXoX",
"oXoXoXoXoXoXoXoXoXoXoXoXoXoXoXoXoXoXoXoXoXoXoXoXoXoX0 N Q * u T C Y Y w q w oXoXoXoXoXoXoXoXoXoXoXoXoXoXoXoXoXoXoXoXoXoXoXoXoXoX",
"oXoXoXoXoXoXoXoXoXoXoXoXoXoXoXoXoXoXoXoXoXoXoXy 0 w m ,.<.- { G.G...R T b 2 y q d oXoXoXoXoXoXoXoXoXoXoXoXoXoXoXoXoXoXoXoXoXoXoX",
"oXoXoXoXoXoXoXoXoXoXoXoXoXoXoXoXoXoXoXoXoXoXoXy p w ,.1.,.= e.F.C.r.V ! x 2 w w w oXoXoXoXoXoXoXoXoXoXoXoXoXoXoXoXoXoXoXoXoXoXoX",
"oXoXoXoXoXoXoXoXoXoXoXoXoXoXoXoXoXoXoXoXoXoXd 0 q w m 1.,.0 2.j.h.9.:.1.m 9 q q q a oXoXoXoXoXoXoXoXoXoXoXoXoXoXoXoXoXoXoXoXoXoX",
"oXoXoXoXoXoXoXoXoXoXoXoXoXoXoXoXoXoXoXoXy w q q q 0 y t y y.i.i.i.i.u.2.g 1 q q q q q y oXoXoXoXoXoXoXoXoXoXoXoXoXoXoXoXoXoXoXoX",
"oXoXoXoXoXoXoXoXoXoXoXoXoXoXoXoXoXoXoXoXw q 0 q q q q 0 w u.j.i.j.u.9.2.g 1 q q q q p w oXoXoXoXoXoXoXoXoXoXoXoXoXoXoXoXoXoXoXoX",
"oXoXoXoXoXoXoXoXoXoXoXoXoXoXoXoXoXoXoXoXa q w 0 9 q q 0 y u.j.i.u.9.m 1.g 9 w 0 0 q q g oXoXoXoXoXoXoXoXoXoXoXoXoXoXoXoXoXoXoXoX",
"oXoXoXoXoXoXoXoXoXoXoXoXoXoXoXoXoXoXoXoXoXoXa 0 q 9 q q q f g f g y y y w 0 w q q i oXoXoXoXoXoXoXoXoXoXoXoXoXoXoXoXoXoXoXoXoXoX",
"oXoXoXoXoXoXoXoXoXoXoXoXoXoXoXoXoXoXoXoXoXoXy w q q q q q 0 0 0 1 0 q q q 0 0 q q w oXoXoXoXoXoXoXoXoXoXoXoXoXoXoXoXoXoXoXoXoXoX",
"oXoXoXoXoXoXoXoXoXoXoXoXoXoXoXoXoXoXoXoXoXoXoXg w y y y w y y y y y y y y y y y y oXoXoXoXoXoXoXoXoXoXoXoXoXoXoXoXoXoXoXoXoXoXoX",
"oXoXoXoXoXoXoXoXoXoXoXoXoXoXoXoXoXoXoXoXoXoXoXoXoXoXoXoXoXoXoXoXoXoXoXoXoXoXoXoXoXoXoXoXoXoXoXoXoXoXoXoXoXoXoXoXoXoXoXoXoXoXoXoX",
"oXoXoXoXoXoXoXoXoXoXoXoXoXoXoXoXoXoXoXoXoXoXoXoXoXoXoXoXoXoXoXoXoXoXoXoXoXoXoXoXoXoXoXoXoXoXoXoXoXoXoXoXoXoXoXoXoXoXoXoXoXoXoXoX",
"oXoXoXoXoXoXoXoXoXoXoXoXoXoXoXoXoXoXoXoXoXoXoXoXoXoXoXoXoXoXoXoXoXoXoXoXoXoXoXoXoXoXoXoXoXoXoXoXoXoXoXoXoXoXoXoXoXoXoXoXoXoXoXoX",
"oXoXoXoXoXoXoXoXoXoXoXoXoXoXoXoXoXoXoXoXoXoXoXoXoXoXoXoXoXoXoXoXoXoXoXoXoXoXoXoXoXoXoXoXoXoXoXoXoXoXoXoXoXoXoXoXoXoXoXoXoXoXoXoX",
"oXoXoXoXoXoXoXoXoXoXoXoXoXoXoXoXoXoXoXoXoXoXoXoXoXoXoXoXoXoXoXoXoXoXoXoXoXoXoXoXoXoXoXoXoXoXoXoXoXoXoXoXoXoXoXoXoXoXoXoXoXoXoXoX",
"oXoXoXoXoXoXoXoXoXoXoXoXoXoXoXoXoXoXoXoXoXoXoXoXoXoXoXoXoXoXoXoXoXoXoXoXoXoXoXoXoXoXoXoXoXoXoXoXoXoXoXoXoXoXoXoXoXoXoXoXoXoXoXoX",
"oXoXoXoXoXoXoXoXoXoXoXoXoXoXoXoXoXoXoXoXoXoXoXoXoXoXoXoXoXoXoXoXoXoXoXoXoXoXoXoXoXoXoXoXoXoXoXoXoXoXoXoXoXoXoXoXoXoXoXoXoXoXoXoX",
"oXoXoXoXoXoXoXoXoXoXoXoXoXoXoXoXoXoXoXoXoXoXoXoXoXoXoXoXoXoXoXoXoXoXoXoXoXoXoXoXoXoXoXoXoXoXoXoXoXoXoXoXoXoXoXoXoXoXoXoXoXoXoXoX",
"oXoXoXoXoXoXoXoXoXoXoXoXoXoXoXoXoXoXoXoXoXoXoXoXoXoXoXoXoXoXoXoXoXoXoXoXoXoXoXoXoXoXoXoXoXoXoXoXoXoXoXoXoXoXoXoXoXoXoXoXoXoXoXoX"
};
