/* XPM */
static char *result[] = {
/* columns rows colors chars-per-pixel */
"64 64 203 2 ",
"   c #00003E",
".  c #00004A",
"X  c #130055",
"o  c #000064",
"O  c #00006D",
"+  c #1C0966",
"@  c #180466",
"#  c #240468",
"$  c #2E1B69",
"%  c #261668",
"&  c #3B1D64",
"*  c #331C6A",
"=  c #341C67",
"-  c #361E71",
";  c #2A2A69",
":  c #3E2266",
">  c #3C2469",
",  c #392769",
"<  c #3A2B79",
"1  c #2E3A72",
"2  c #591E59",
"3  c #5A205A",
"4  c #703D5A",
"5  c #461F65",
"6  c #412667",
"7  c #42256A",
"8  c #452A6A",
"9  c #4A2D6C",
"0  c #4E2A66",
"q  c #542967",
"w  c #4C346D",
"e  c #47316C",
"r  c #5D3566",
"t  c #55356D",
"y  c #5D376F",
"u  c #422370",
"i  c #4A2D71",
"p  c #4D3372",
"a  c #483475",
"s  c #543C75",
"d  c #593B74",
"f  c #573776",
"g  c #532873",
"h  c #7F2F6D",
"j  c #643C6E",
"k  c #603A63",
"l  c #663D74",
"z  c #743E75",
"x  c #7F326E",
"c  c #73415A",
"v  c #5C447B",
"b  c #5B4377",
"n  c #6F4A6F",
"m  c #67446D",
"M  c #7E5063",
"N  c #654372",
"B  c #6B4371",
"V  c #6D4B72",
"C  c #68457A",
"Z  c #754274",
"A  c #7C4476",
"S  c #754C78",
"D  c #6F507E",
"F  c #B96A2C",
"G  c #8A0A62",
"H  c #98296A",
"J  c #8E366F",
"K  c #A83772",
"L  c #BC3A73",
"P  c #B33973",
"I  c #AD3A6F",
"U  c #8B4F58",
"Y  c #B36B4A",
"T  c #B26C52",
"R  c #844B78",
"E  c #8D5679",
"W  c #875A77",
"Q  c #935B7A",
"!  c #995F7B",
"~  c #975B76",
"^  c #866C79",
"/  c #966579",
"(  c #9C637C",
")  c #98687A",
"_  c #956678",
"`  c #93777B",
"'  c #A46C7D",
"]  c #A66C7E",
"[  c #AC737F",
"{  c #A9747C",
"}  c #B37B7F",
"|  c #C94478",
" . c #D24C7C",
".. c #C8805A",
"X. c #DAAA7D",
"o. c #563D84",
"O. c #166194",
"+. c #45598D",
"@. c #495C91",
"#. c #594D83",
"$. c #684E80",
"%. c #6B568B",
"&. c #67538A",
"*. c #715484",
"=. c #705788",
"-. c #765C8D",
";. c #78588A",
":. c #56638B",
">. c #59668D",
",. c #4D6793",
"<. c #566A97",
"1. c #54729B",
"2. c #5B749D",
"3. c #537094",
"4. c #636490",
"5. c #616C9B",
"6. c #6D6B92",
"7. c #4F75A0",
"8. c #5E7AA1",
"9. c #6779A2",
"0. c #7279A4",
"q. c #845985",
"w. c #B25C8B",
"e. c #866181",
"r. c #8A6382",
"t. c #87628C",
"y. c #8E748C",
"u. c #967B84",
"i. c #826694",
"p. c #876B9A",
"a. c #977499",
"s. c #B07680",
"d. c #B37980",
"f. c #B87D81",
"g. c #AD728A",
"h. c #8267A3",
"j. c #857BA4",
"k. c #9576A2",
"l. c #9A7AA4",
"z. c #9779A5",
"x. c #DF5881",
"c. c #DD5781",
"v. c #EC5C84",
"b. c #E35881",
"n. c #F65B83",
"m. c #5886A9",
"M. c #6C8CAC",
"N. c #6885A7",
"B. c #728EAC",
"V. c #788EAC",
"C. c #6A92AF",
"Z. c #7391AE",
"A. c #7493B0",
"S. c #6C91B0",
"D. c #A78786",
"F. c #BF8483",
"G. c #B29289",
"H. c #BD9C87",
"J. c #B28593",
"K. c #AE9082",
"L. c #8689A6",
"P. c #9790AE",
"I. c #A18BAE",
"U. c #A899B7",
"Y. c #B0A2BC",
"T. c #C28683",
"R. c #C68985",
"E. c #CC8E86",
"W. c #CE9086",
"Q. c #CF9189",
"!. c #D19287",
"~. c #D39388",
"^. c #D8978A",
"/. c #CFAC8D",
"(. c #C6A48B",
"). c #C1A299",
"_. c #DCB593",
"`. c #DCB896",
"'. c #E1B385",
"]. c #E4BE92",
"[. c #E3BB98",
"{. c #D3B2A0",
"}. c #EEC38F",
"|. c #EAC696",
" X c #F4CE9C",
".X c #FED69E",
"XX c #DCC0B8",
"oX c #E4C2B9",
"OX c #FDDAB3",
"+X c #A89ECC",
"@X c #BBACCA",
"#X c #BFB0D2",
"$X c #ACA2CF",
"%X c #CABBD6",
"&X c #D6C6DD",
"*X c #E6C2C2",
"=X c #E8DAEE",
"-X c #EBDDF2",
";X c #EFE2F6",
":X c #FBEEFF",
">X c #F3E6F9",
",X c #FEF2FF",
"<X c None",
/* pixels */
"<X<X<X<X<X<X<X<X<X<X<X<X<X<X<X<X<X<X<X<X<X<X<X<X<X<X<X<X<X<X<X<X<X<X<X<X<X<X<X<X<X<X<X<X<X<X<X<X<X<X<X<X<X<X<X<X<X<X<X<X<X<X<X<X",
"<X<X<X<X<X<X<X<X<X<X<X<X<X<X<X<X<X<X<X<X<X<X<X<X<X<X<X<X<X<X<X<X<X<X<X<X<X<X<X<X<X<X<X<X<X<X<X<X<X<X<X<X<X<X<X<X<X<X<X<X<X<X<X<X",
"<X<X<X<X<X<X<X<X<X<X<X<X<X<X<X<X<X<X<X<X<X<X<X<X<X<X<X<X<X<X<X<X<X<X<X<X<X<X<X<X<X<X<X<X<X<X<X<X<X<X<X<X<X<X<X<X<X<X<X<X<X<X<X<X",
"<X<X<X<X<X<X<X<X<X<X<X<X<X<X<X<X<X<X<X<X<X<X<X<X<X<X<X<X<X<X<X<X<X<X<X<X<X<X<X<X<X<X<X<X<X<X<X<X<X<X<X<X<X<X<X<X<X<X<X<X<X<X<X<X",
"<X<X<X<X<X<X<X<X<X<X<X<X<X<X<X<X<X<X<X<X<X<X<X<X<X<X<X<X<X<X<X<X<X<X<X<X<X<X<X<X<X<X<X<X<X<X<X<X<X<X<X<X<X<X<X<X<X<X<X<X<X<X<X<X",
"<X<X<X<X<X<X<X<X<X<X<X<X<X<X<X<X<X<X<X<X<X<X<X<X<X<X<X<X<X<X<X<X<X<X<X<X<X<X<X<X<X<X<X<X<X<X<X<X<X<X<X<X<X<X<X<X<X<X<X<X<X<X<X<X",
"<X<X<X<X<X<X<X<X<X<X<X<X<X<X<X<X<X<X<X<X<X<X<X<X<X<X<X<X<X<X<X<X<X<X<X<X<X<X<X<X<X<X<X<X<X<X<X<X<X<X<X<X<X<X<X<X<X<X<X<X<X<X<X<X",
"<X<X<X<X<X<X<X<X<X<X<X<X<X<X<X<X<X<X<X<X<X<X<X<X<X<X<X<X<X<X<X<X<X<X<X<X<X<X<X<X<X<X<X<X<X<X<X<X<X<X<X<X<X<X<X<X<X<X<X<X<X<X<X<X",
"<X<X<X<X<X<X<X<X<X<X<X<X<X<X<X<X<X<X<X<X<X<X<X<X<X<X<X<X* * = > > & $ * <X<X<X<X<X<X<X<X<X<X<X<X<X<X<X<X<X<X<X<X<X<X<X<X<X<X<X<X",
"<X<X<X<X<X<X<X<X<X<X<X<X<X<X<X<X<X<X<X<X<X<X<X<X<X<X<XB S V N y f N Z *.V <X<X<X<X<X<X<X<X<X<X<X<X<X<X<X<X<X<X<X<X<X<X<X<X<X<X<X",
"<X<X<X<X<X<X<X<X<X<X<X<X<X<X<X<X<X<X<X<X<X<X<X<X<X<X% ) ~.Q.d.R R [ !.~.) + <X<X<X<X<X<X<X<X<X<X<X<X<X<X<X<X<X<X<X<X<X<X<X<X<X<X",
"<X<X<X<X<X<X<X<X<X<X<X<X<X<X<X<X<X<X<X<X<X<X<X<X<X<X% / ~.Q.s.A A ] !.~.) # <X<X<X<X<X<X<X<X<X<X<X<X<X<X<X<X<X<X<X<X<X<X<X<X<X<X",
"<X<X<X<X<X<X<X<X<X<X<X<X<X<X<X<X<X<X<X<X<X<X<X<X<X<X% / !.E.f.! / d.E.W./ % <X<X<X<X<X<X<X<X<X<X<X<X<X<X<X<X<X<X<X<X<X<X<X<X<X<X",
"<X<X<X<X<X<X<X<X<X<X<X<X<X<X<X<X<X<X<X<X<X<X<X, - > + / Q.E.E.!.W.W.E.Q._ # 7 - * <X<X<X<X<X<X<X<X<X<X<X<X<X<X<X<X<X<X<X<X<X<X<X",
"<X<X<X<X<X<X<X<X<X<X<X<X<X<X<X<X<X<X<X<X<X<X$ { d.} Z ' ^.E.E.E.E.E.E.~.' j [ } { ; <X<X<X<X<X<X<X<X<X<X<X<X<X<X<X<X<X<X<X<X<X<X",
"<X<X<X<X<X<X<X<X<X<X<X<X<X<X<X<X<X<X<X<X<XV W R.~.!.' ] f.E.E.E.E.E.E.T.[ ' W.~.R.W S <X<X<X<X<X<X<X<X<X<X<X<X<X<X<X<X<X<X<X<X<X",
"<X<X<X<X<X<X<X<X<X<X<X<X<X<X<X<X<X<X<X<X+ E ^.E.E.E.!.s.z E.W.E.E.W.T.R [ !.E.E.R.!.r.% <X<X<X<X<X<X<X<X<X<X<X<X<X<X<X<X<X<X<X<X",
"<X<X<X<X<X<X<X<X<X<X<X<X<X<X<X<X<X<X<X<X> C ( R.Q.E.E.R.T.E.E.E.E.E.E.T.T.E.E.!.R.g.A > <X<X<X<X<X<X<X<X<X<X<X<X<X<X<X<X<X<X<X<X",
"<X<X<X<X<X<X<X<X<X<X<X<X<X<X<X<X<X<X<X<X<Xy Z [ T.E.E.Q.E.E.E.E.E.E.E.E.W.E.E.T.s.Z j <X<X<X<X<X<X<X<X<X<X<X<X<X<X<X<X<X<X<X<X<X",
"<X<X<X<X<X<X<X<X<X<X<X<X<X<X<X<X<X<X<X<X<X<Xp z ' E.Q.Q.Q.E.W.W.W.W.Q.!.Q.E.!.g.z p <X<X<X<X<X<X<X<X<X<X<X<X<X<X<X<X<X<X<X<X<X<X",
"<X<X<X<X<X<X<X<X<X<X<X<X<X<X<X<X<X<X<X<X<X<X<Xt l V N r 2 n V B N B n 2 k N n N t <X<X<X<X<X<X<X<X<X<X<X<X<X<X<X<X<X<X<X<X<X<X<X",
"<X<X<X<X<X<X<X<X<X<X<X<X<X<X<X<X<X<X<X<X<X<X<X<X> , 4 y.P.a r U M k , P.y.c 7 > <X<X<X<X<X<X<X<X<X<X<X<X<X<X<X<X<X<X<X<X<X<X<X<X",
"<X<X<X<X<X<X<X<X<X<X<X<X<X<X<X<X<X<X<X<X<X<X<X<X<Xs F *X,X#.U T ..U a ,X*XF b <X<X<X<X<X<X<X<X<X<X<X<X<X<X<X<X<X<X<X<X<X<X<X<X<X",
"<X<X<X<X<X<X<X<X<X<X<X<X<X<X<X<X<X<X<X<X<X<X<X<X<Xs l ).OX[.].].}.|.`.OX).C d <X<X<X<X<X<X<X<X<X<X<X<X<X<X<X<X<X<X<X<X<X<X<X<X<X",
"<X<X<X<X<X<X<X<X<X<X<X<X<X<X<X<X<X<X<X<X<X<X<X<X<Xt < u.(.'.`.{.{._.'./.u.< t <X<X<X<X<X<X<X<X<X<X<X<X<X<X<X<X<X<X<X<X<X<X<X<X<X",
"<X<X<X<X<X<X<X<X<X<X<X<X<X<X<X<X<X<X<X<X<X<X<X<X<X<X0 p o.T { 0.0.g.T o.p 0 <X<X<X<X<X<X<X<X<X<X<X<X<X<X<X<X<X<X<X<X<X<X<X<X<X<X",
"<X<X<X<X<X<X<X<X<X<X<X<X<X<X<X<X<X<X<X<X<X<X<X<X<X8 P J ; k.l.l.k.l.a.1 J L 9 <X<X<X<X<X<X<X<X<X<X<X<X<X<X<X<X<X<X<X<X<X<X<X<X<X",
"<X<X<X<X<X<X<X<X<X<X<X<X<X<X<X<X<X<X<X<X<X<X<X<X<Xu L K J ;.-.-.;.;.;.J K L g <X<X<X<X<X<X<X<X<X<X<X<X<X<X<X<X<X<X<X<X<X<X<X<X<X",
"<X<X<X<X<X<X<X<X<X<X<X<X<X<X<X<X<X<X<X<X<X<X<X<X<Xd K L L q & 5 5 5 q L L P C <X<X<X<X<X<X<X<X<X<X<X<X<X<X<X<X<X<X<X<X<X<X<X<X<X",
"<X<X<X<X<X<X<X<X<X<X<X<X<X<X<X<X<X<X<X<X<X<X<XX P.>Xb G | b.b.x.c.b.c.| G e -XY.. <X<X<X<X<X<X<X<X<X<X<X<X<X<X<X<X<X<X<X<X<X<X<X",
"<X<X<X<X<X<X<X<X<X<X<X<X<X<X<X<X<X<X<X<X<X<X<X. U.,XP.q.H | b.n.v.b. .H q.L.,X@X  <X<X<X<X<X<X<X<X<X<X<X<X<X<X<X<X<X<X<X<X<X<X<X",
"<X<X<X<X<X<X<X<X<X<X<X<X<X<X<X<X<X<X<X<X<X<X<X8 U.:X%Xj.; K | v.v. .K > j.@X:X@X& <X<X<X<X<X<X<X<X<X<X<X<X<X<X<X<X<X<X<X<X<X<X<X",
"<X<X<X<X<X<X<X<X<X<X<X<X<X<X<X<X<X<X<X<X<X<X6 =X,X>X0.1.V.; I n.n.L % V.2.5.>X,X=X9 <X<X<X<X<X<X<X<X<X<X<X<X<X<X<X<X<X<X<X<X<X<X",
"<X<X<X<X<X<X<X<X<X<X<X<X<X<X<X<X<X<X<X<X<X<X8 %X-X>X0.1.Z.3.t.w.g.a.,.Z.1.<.:X-X%Xp <X<X<X<X<X<X<X<X<X<X<X<X<X<X<X<X<X<X<X<X<X<X",
"<X<X<X<X<X<X<X<X<X<X<X<X<X<X<X<X<X<X<X<X<X<Xs P.%X>X9.<.Z.A.m.O.m.S.Z.A.7.<.;X&XI.s <X<X<X<X<X<X<X<X<X<X<X<X<X<X<X<X<X<X<X<X<X<X",
"<X<X<X<X<X<X<X<X<X<X<X<X<X<X<X<X<X<X<X<X<X<XO ].oX$Xb :.A.B.B.Z.@.9.B.A.>.f $X{.|.O <X<X<X<X<X<X<X<X<X<X<X<X<X<X<X<X<X<X<X<X<X<X",
"<X<X<X<X<X<X<X<X<X<X<X<X<X<X<X<X<X<X<X<X<X` Q.|.].J.r :.Z.Z.N.2.8.N.M.A.>.q J.`. X(.` <X<X<X<X<X<X<X<X<X<X<X<X<X<X<X<X<X<X<X<X<X",
"<X<X<X<X<X<X<X<X<X<X<X<X<X<X<X<X<X<X<X<Xo D..X X'.Y r >.Z.Z.2.,.M.B.B.A.>.q Y X. X.XG.o <X<X<X<X<X<X<X<X<X<X<X<X<X<X<X<X<X<X<X<X",
"<X<X<X<X<X<X<X<X<X<X<X<X<X<X<X<X<X<X<X<Xo D..X X/.# +.2.Z.Z.B.M.,.8.Z.A.8.+.# H. X.XG.o <X<X<X<X<X<X<X<X<X<X<X<X<X<X<X<X<X<X<X<X",
"<X<X<X<X<X<X<X<X<X<X<X<X<X<X<X<X<X<X<X<X<X^ K. X/.o D 4.7.M.C.C.1 <.S.7.4.*.o H. XG.^ <X<X<X<X<X<X<X<X<X<X<X<X<X<X<X<X<X<X<X<X<X",
"<X<X<X<X<X<X<X<X<X<X<X<X<X<X<X<X<X<X<X<X<X<Xo _.H.@ ~ r.4.L.L.L.l 6.L.6.e.~ # K._.o <X<X<X<X<X<X<X<X<X<X<X<X<X<X<X<X<X<X<X<X<X<X",
"<X<X<X<X<X<X<X<X<X<X<X<X<X<X<X<X<X<X<X<X<X<X<X> u 8 F.Q.E.W.!.!.~.!.!.E.W.R.t > - <X<X<X<X<X<X<X<X<X<X<X<X<X<X<X<X<X<X<X<X<X<X<X",
"<X<X<X<X<X<X<X<X<X<X<X<X<X<X<X<X<X<X<X<X<X<X<X<Xw 9 T.W.E.] / W W / ] E.W.R.y 8 <X<X<X<X<X<X<X<X<X<X<X<X<X<X<X<X<X<X<X<X<X<X<X<X",
"<X<X<X<X<X<X<X<X<X<X<X<X<X<X<X<X<X<X<X<X<X<X<X<X<Xe F.W.R.( l + @ j ! R.W.R.d <X<X<X<X<X<X<X<X<X<X<X<X<X<X<X<X<X<X<X<X<X<X<X<X<X",
"<X<X<X<X<X<X<X<X<X<X<X<X<X<X<X<X<X<X<X<X<X<X<X<X<Xi R.~.W.^.' = = _ ~.E.!.E.d <X<X<X<X<X<X<X<X<X<X<X<X<X<X<X<X<X<X<X<X<X<X<X<X<X",
"<X<X<X<X<X<X<X<X<X<X<X<X<X<X<X<X<X<X<X<X<X<X<X<X<Xi Q ( / W m 7 6 m W ( ' / p <X<X<X<X<X<X<X<X<X<X<X<X<X<X<X<X<X<X<X<X<X<X<X<X<X",
"<X<X<X<X<X<X<X<X<X<X<X<X<X<X<X<X<X<X<X<X<X<X<X<Xw p E Q E q 7 8 6 6 0 E E E g e <X<X<X<X<X<X<X<X<X<X<X<X<X<X<X<X<X<X<X<X<X<X<X<X",
"<X<X<X<X<X<X<X<X<X<X<X<X<X<X<X<X<X<X<X<X<X<X<Xe 8 6 T.~.W.( B , 6 j Q Q.~.E.t 7 9 <X<X<X<X<X<X<X<X<X<X<X<X<X<X<X<X<X<X<X<X<X<X<X",
"<X<X<X<X<X<X<X<X<X<X<X<X<X<X<X<X<X<X<X<X<X<Xw 8 e v e.r.r.j 9 8 6 9 y e.r.r.v p 6 a <X<X<X<X<X<X<X<X<X<X<X<X<X<X<X<X<X<X<X<X<X<X",
"<X<X<X<X<X<X<X<X<X<X<X<X<X<X<X<X<X<X<X<X<Xw i > d -.%.%.&.s 9 8 8 e s &.%.%.-.v 6 i w <X<X<X<X<X<X<X<X<X<X<X<X<X<X<X<X<X<X<X<X<X",
"<X<X<X<X<X<X<X<X<X<X<X<X<X<X<X<X<X<X<X<X8 i 9 & $.k.k.z.k.=.d > : b %.a.z.k.z.=.& 8 9 9 <X<X<X<X<X<X<X<X<X<X<X<X<X<X<X<X<X<X<X<X",
"<X<X<X<X<X<X<X<X<X<X<X<X<X<X<X<X<X<X<X<X8 i 8 & $.z.z.p.%.d e 8 8 8 s %.p.z.z.=.& 8 i 8 <X<X<X<X<X<X<X<X<X<X<X<X<X<X<X<X<X<X<X<X",
"<X<X<X<X<X<X<X<X<X<X<X<X<X<X<X<X<X<X<X<X<X8 8 : v i.i.=.b 8 6 8 8 6 8 s %.i.i.C & 8 8 9 <X<X<X<X<X<X<X<X<X<X<X<X<X<X<X<X<X<X<X<X",
"<X<X<X<X<X<X<X<X<X<X<X<X<X<X<X<X<X<X<X<X<X<X9 8 > & & > 6 8 8 8 8 8 8 8 6 & & 6 8 p <X<X<X<X<X<X<X<X<X<X<X<X<X<X<X<X<X<X<X<X<X<X",
"<X<X<X<X<X<X<X<X<X<X<X<X<X<X<X<X<X<X<X<X<X<X<X9 i i i i 9 i i i i i 9 i 9 i i i 8 <X<X<X<X<X<X<X<X<X<X<X<X<X<X<X<X<X<X<X<X<X<X<X",
"<X<X<X<X<X<X<X<X<X<X<X<X<X<X<X<X<X<X<X<X<X<X<X8 8 8 8 8 8 6 8 7 8 8 8 > 8 8 8 8 <X<X<X<X<X<X<X<X<X<X<X<X<X<X<X<X<X<X<X<X<X<X<X<X",
"<X<X<X<X<X<X<X<X<X<X<X<X<X<X<X<X<X<X<X<X<X<X<X<X<X<X<X<X<X<X<X<X<X<X<X<X<X<X<X<X<X<X<X<X<X<X<X<X<X<X<X<X<X<X<X<X<X<X<X<X<X<X<X<X",
"<X<X<X<X<X<X<X<X<X<X<X<X<X<X<X<X<X<X<X<X<X<X<X<X<X<X<X<X<X<X<X<X<X<X<X<X<X<X<X<X<X<X<X<X<X<X<X<X<X<X<X<X<X<X<X<X<X<X<X<X<X<X<X<X",
"<X<X<X<X<X<X<X<X<X<X<X<X<X<X<X<X<X<X<X<X<X<X<X<X<X<X<X<X<X<X<X<X<X<X<X<X<X<X<X<X<X<X<X<X<X<X<X<X<X<X<X<X<X<X<X<X<X<X<X<X<X<X<X<X",
"<X<X<X<X<X<X<X<X<X<X<X<X<X<X<X<X<X<X<X<X<X<X<X<X<X<X<X<X<X<X<X<X<X<X<X<X<X<X<X<X<X<X<X<X<X<X<X<X<X<X<X<X<X<X<X<X<X<X<X<X<X<X<X<X",
"<X<X<X<X<X<X<X<X<X<X<X<X<X<X<X<X<X<X<X<X<X<X<X<X<X<X<X<X<X<X<X<X<X<X<X<X<X<X<X<X<X<X<X<X<X<X<X<X<X<X<X<X<X<X<X<X<X<X<X<X<X<X<X<X",
"<X<X<X<X<X<X<X<X<X<X<X<X<X<X<X<X<X<X<X<X<X<X<X<X<X<X<X<X<X<X<X<X<X<X<X<X<X<X<X<X<X<X<X<X<X<X<X<X<X<X<X<X<X<X<X<X<X<X<X<X<X<X<X<X",
"<X<X<X<X<X<X<X<X<X<X<X<X<X<X<X<X<X<X<X<X<X<X<X<X<X<X<X<X<X<X<X<X<X<X<X<X<X<X<X<X<X<X<X<X<X<X<X<X<X<X<X<X<X<X<X<X<X<X<X<X<X<X<X<X",
"<X<X<X<X<X<X<X<X<X<X<X<X<X<X<X<X<X<X<X<X<X<X<X<X<X<X<X<X<X<X<X<X<X<X<X<X<X<X<X<X<X<X<X<X<X<X<X<X<X<X<X<X<X<X<X<X<X<X<X<X<X<X<X<X"
};
