/* XPM */
static char *result[] = {
/* columns rows colors chars-per-pixel */
"64 64 103 2 ",
"   c #000057",
".  c #0C0055",
"X  c #020059",
"o  c #24005B",
"O  c #2C015E",
"+  c #300D5F",
"@  c #000060",
"#  c #2C0060",
"$  c #310162",
"%  c #360D62",
"&  c #34006A",
"*  c #39006D",
"=  c #361662",
"-  c #3A1564",
";  c #371863",
":  c #3A1B64",
">  c #3D1F69",
",  c #3E2266",
"<  c #3F2169",
"1  c #412567",
"2  c #412A67",
"3  c #422669",
"4  c #452A6A",
"5  c #482F6C",
"6  c #47306B",
"7  c #4B336D",
"8  c #4E3A6E",
"9  c #432271",
"0  c #492C71",
"q  c #4E3472",
"w  c #4F3870",
"e  c #513574",
"r  c #523D71",
"t  c #54377A",
"y  c #53387A",
"u  c #554273",
"i  c #594576",
"p  c #5C4877",
"a  c #5C447A",
"s  c #5D4979",
"d  c #60447F",
"f  c #624E7C",
"g  c #65537E",
"h  c #5D4681",
"j  c #674C80",
"k  c #675281",
"l  c #6A5482",
"z  c #6C5A83",
"x  c #715587",
"c  c #715C87",
"v  c #74578A",
"b  c #7B528F",
"n  c #755C8A",
"m  c #795D8D",
"M  c #75648A",
"N  c #7B628E",
"B  c #7A698E",
"V  c #7E6391",
"C  c #7E6D90",
"Z  c #805992",
"A  c #816693",
"S  c #856A96",
"D  c #89679A",
"F  c #876B98",
"G  c #8C6D9C",
"H  c #906F9F",
"J  c #827194",
"K  c #8E719E",
"L  c #8C7B9C",
"P  c #90729F",
"I  c #907E9F",
"U  c #9375A2",
"Y  c #9679A4",
"T  c #997BA6",
"R  c #9C7CAA",
"E  c #9382A2",
"W  c #9D82AA",
"Q  c #9D8CAA",
"!  c #A186AD",
"~  c #A18BAD",
"^  c #A291AE",
"/  c #A58CB0",
"(  c #A695B1",
")  c #AB94B6",
"_  c #AA9AB5",
"`  c #AD96B8",
"'  c #AE9CB9",
"]  c #B29EBC",
"[  c #B4A2BD",
"{  c #B7A4C0",
"}  c #B9A5C2",
"|  c #BDABC5",
" . c #C0AEC7",
".. c #C1AFC8",
"X. c #C5B4CC",
"o. c #C8B7CE",
"O. c #C9B8CF",
"+. c #CBBAD1",
"@. c #D0BFD5",
"#. c #D1C0D6",
"$. c #D4C3DA",
"%. c #D8C7DD",
"&. c None",
/* pixels */
"&.&.&.&.&.&.&.&.&.&.&.&.&.&.&.&.&.&.&.&.&.&.&.&.&.&.&.&.&.&.&.&.&.&.&.&.&.&.&.&.&.&.&.&.&.&.&.&.&.&.&.&.&.&.&.&.&.&.&.&.&.&.&.&.",
"&.&.&.&.&.&.&.&.&.&.&.&.&.&.&.&.&.&.&.&.&.&.&.&.&.&.&.&.&.&.&.&.&.&.&.&.&.&.&.&.&.&.&.&.&.&.&.&.&.&.&.&.&.&.&.&.&.&.&.&.&.&.&.&.",
"&.&.&.&.&.&.&.&.&.&.&.&.&.&.&.&.&.&.&.&.&.&.&.&.&.&.&.&.&.&.&.&.&.&.&.&.&.&.&.&.&.&.&.&.&.&.&.&.&.&.&.&.&.&.&.&.&.&.&.&.&.&.&.&.",
"&.&.&.&.&.&.&.&.&.&.&.&.&.&.&.&.&.&.&.&.&.&.&.&.&.&.&.&.&.&.&.&.&.&.&.&.&.&.&.&.&.&.&.&.&.&.&.&.&.&.&.&.&.&.&.&.&.&.&.&.&.&.&.&.",
"&.&.&.&.&.&.&.&.&.&.&.&.&.&.&.&.&.&.&.&.&.&.&.&.&.&.&.&.&.&.&.&.&.&.&.&.&.&.&.&.&.&.&.&.&.&.&.&.&.&.&.&.&.&.&.&.&.&.&.&.&.&.&.&.",
"&.&.&.&.&.&.&.&.&.&.&.&.&.&.&.&.&.&.&.&.&.&.&.&.&.&.&.&.&.&.&.&.&.&.&.&.&.&.&.&.&.&.&.&.&.&.&.&.&.&.&.&.&.&.&.&.&.&.&.&.&.&.&.&.",
"&.&.&.&.&.&.&.&.&.&.&.&.&.&.&.&.&.&.&.&.&.&.&.&.&.&.&.&.&.&.&.&.a r w u r r r r u &.&.&.&.&.&.&.&.&.&.&.&.&.&.&.&.&.&.&.&.&.&.&.",
"&.&.&.&.&.&.&.&.&.&.&.&.&.&.&.&.&.&.&.&.&.&.&.&.&.&.&.&.&.&.&.&.q e e q e q q q y &.&.&.&.&.&.&.&.&.&.&.&.&.&.&.&.&.&.&.&.&.&.&.",
"&.&.&.&.&.&.&.&.&.&.&.&.&.&.&.&.&.&.&.&.&.&.&.&.&.&.&.2 5 7 1 g | X.| X.| o.| | O.L # w 6 &.&.&.&.&.&.&.&.&.&.&.&.&.&.&.&.&.&.&.",
"&.&.&.&.&.&.&.&.&.&.&.&.&.&.&.&.&.&.&.&.&.&.&.&.&.&.j h u a r c +.#.+.#.+.+.#.#.$.E 0 s h &.&.&.&.&.&.&.&.&.&.&.&.&.&.&.&.&.&.&.",
"&.&.&.&.&.&.&.&.&.&.&.&.&.&.&.&.&.&.&.&.&.&.&.4 < . ' +.X.o.o.o.O.+.+.+.+.+.+.+.+.O.X.o.o.s o : 4 &.&.&.&.&.&.&.&.&.&.&.&.&.&.&.",
"&.&.&.&.&.&.&.&.&.&.&.&.&.&.&.&.&.&.&.&.&.&.k a l z | +.+.+.+.+.+.+.+.+.+.+.O.+.+.+.+.+.+.J z M c &.&.&.&.&.&.&.&.&.&.&.&.&.&.&.",
"&.&.&.&.&.&.&.&.&.&.&.&.&.&.&.&.&.% $ % - o x U [ $.+.+.+.O.+.+.+.+.+.+.+.+.+.O.+.+.+.+.O.+.+.#...$ 4 &.&.&.&.&.&.&.&.&.&.&.&.&.",
"&.&.&.&.&.&.&.&.&.&.&.&.&.&.&.&.&.J B J C B G H [ +.+.+.+.+.+.+.+.O.O.+.O.+.+.+.+.+.+.+.+.+.+.+.X.J J &.&.&.&.&.&.&.&.&.&.&.&.&.",
"&.&.&.&.&.&.&.&.&.&.&.&.&.= &   k #.#.+.+.%.] Z { #.+.+.+.+.+.+.+.+.O.+.+.+.+.+.O.+.+.+.+.+.+.+.+.%.} X # * &.&.&.&.&.&.&.&.&.&.",
"&.&.&.&.&.&.&.&.&.&.&.&.&.E L L Q +.+.+.+.+.} ) ] [ X.+.+.O.+.+.+.+.+.+.+.+.O.+.+.+.+.O.+.+.+.+.+.+.| L I E L &.&.&.&.&.&.&.&.&.",
"&.&.&.&.&.&.&.&.&.&.&.# * o.$.#.+.+.+.+.+.+.+.#.) b } #.o.+.+.+.+.+.+.+.+.+.+.+.+.+.+.+.+.+.+.+.+.+.+.#.#.%.^ X &.&.&.&.&.&.&.&.",
"&.&.&.&.&.&.&.&.&.&.&.E Q X.+.o.+.+.+.o.+.+.+.+.| ] X.+.+.o.+.+.+.+.+.o.+.+.+.+.+.+.+.o.o.+.+.+.+.+.+.O.o.+.[ Q L &.&.&.&.&.&.&.",
"&.&.&.&.&.&.&.&.&.7 @ } %.+.+.+.+.+.+.+.o.+.+.+.+.#.+.+.+.+.+.o.+.o.+.+.+.+.+.+.O.+.+.+.+.+.o.+.+.+.+.+.+.+.+.%.E $ &.&.&.&.&.&.",
"&.&.&.&.&.&.&.&.7 Q ( | +.+.+.+.+.+.+.+.+.+.+.+.+.O.+.+.+.+.+.+.+.+.+.+.+.+.+.+.+.+.+.+.+.+.+.+.+.+.+.+.+.+.o.#.E O &.&.&.&.&.&.",
"&.&.&.&.&.&.&.&.* ] %.+.+.o.+.+.+.+.o.+.+.+.+.+.+.+.O.+.+.+.+.+.+.+.+.+.+.+.+.+.+.+.+.+.+.+.@.+.+.+.+.+.+.+.+.$.E # &.&.&.&.&.&.",
"&.&.&.&.&.&.&.&.# _ +.+.+.+.+.+.+.+.+.+.+.+.o.+.+.+.+.+.O.+.+.O.+.+.+.X.+.| / / / / / / / / ) o.+.o.+.+.+.+.' C k : w a &.&.&.&.",
"&.&.&.&.&.&.&.&.$ ' #.+.+.+.+.+.+.+.+.+.+.+.+.+.O.+.+.+.+.+.+.+.+.+.+.+.+.} D H G G U G G D P o.+.+.+.+.+.#.^ $ 8 1 3 0 &.&.&.&.",
"&.&.&.&.&.&.5 5 ; K ! ..+.+.+.+.o.+.+.+.+.+.+.@.^ x B M B B M B W W W W W R U U Y U U { X...X.+.+.+.+.+.[ M z i w : n G a 7 &.&.",
"&.&.&.&.&.&.t 5 : V H } +.o.o.+.+.+.+.+.o.X.X.+.E , p p p p i g Y U U U U Y T U P U Y X.@.+.+.+.o.o.o.+._ : u i w > A R d 2 &.&.",
"&.&.&.&.2 l Y l O A Y Y T Y W o.+.+.+.$.[ p z g s 4 ' o.o.o.X.o.X.+.o.+.o.X.+.Q - _ +.O.+.+.o.@.X.g g g f i i i u 8 A Y a 4 &.&.",
"&.&.&.&.e v T x + A U U P P U | X.|  .X.^ 4 i r g g [ #.O.+.O.@.+.+.+.+.+.O.#.Q O _ @.+.o.o.X.X.[ u r u u i i u s s F Y a 2 &.&.",
"&.&.2 j U U Y n 8 S Y U U U P f p s s s p i s 6 ( $.O.+.@.O.+.+.+.+.+.+.+.+.$.Q O ' #.+.+.! H f p i i i i i i r V Y K U d 4 &.&.",
"&.&.1 j Y G K z 8 N G K U U P p u i u u u u i 4 ^ X.o.O.O.O.O.O.+.+.+.+.+.X.| E = ^ X. . .! G p u i i i i i i 8 V Y U U a 4 &.&.",
"&.&.1 j R V r i i i r F U U P s i i i p r , 4 ; m P | @.@.@.@.#.+.@.+.+.$._ , p u A P P P P P p u i i u i i r = V Y U U d 4 &.&.",
"&.&.2 a F x u i i s i F U U K s i i i i u 7 8 ; m P ] | } } } [ } | } } | Q 8 p r A Y U P U P f i p p p p p r : j A G Y a 5 &.&.",
"&.&.5 0 u u i 8 5 6 2 S Y U K u w p u i u i r = m Y G H G H H G G G G G H N u p r A Y P U U P p u 6 5 6 5 5 5 4 1 O V R a 4 &.&.",
"&.&.5 7 i p r B E I E I P Y P m l i i u i i w ; m Y U U U U U U Y U U U Y A r a r V Y U U U U s g E E E E E B = 6 1 g A e 5 &.&.",
"&.&.4 7 i p 4 _ %.@.@.~ D P P Y K u i i i p w ; n Y P U U U U U U U U U Y A r i u A Y G G G G 1 z #.#.+.+.%.^ o 7 4 1 : 3 q &.&.",
"&.&.5 7 i p 4 ( @.o.O.} ] T P Y F u i i i i e = m Y P U U U P U U U U G m z u i r A U ) [ ] ] ~ _ +.o.o.o.#.^ o 6 4 4 4 4 q &.&.",
"&.&.7 e p p 4 _ $.O.O.@.@.Y D Y G i i u i i r = m Y P U U P U U U U U A 8 u i i r V G ..#.+.@.$.#.+.+.+.o.#.Q o 7 4 3 4 4 7 &.&.",
"&.&.&.s r r r L )  .+.o.O. .[ Y F u i i i i r = m Y H U U U U U U U U S u i u p 8 Q } X.+.o.o.+.o.O.+.+.o.#.~ o 5 4 4 4 3 7 &.&.",
"&.&.&.&.4 7 r V D  .@.O.O.#.O.Y F u i i u i r = m U U U P U U P U U U F u i i p 6 _ $.+.+.+.+.+.+.+.+.+.+.#.^ o 5 3 4 4 4 e &.&.",
"&.&.&.&.5 e u A U ! ! ..O.O.o.X.] 3 6 6 7 7 5 - n Y U U U U U U U G k f u i i p 5 ( #.+.+.+.o.+.+.+.o.@.[ B g : 4 4 4 4 4 7 &.&.",
"&.&.&.&.4 8 r Z Y H D  .@.O.O.#.| : 4 4 4 1 4 : m Y H U U P U U U G u u i i i p 5 _ #.o.+.+.+.+.+.+.o.#._ ; w 4 3 4 4 4 4 7 &.&.",
"&.&.&.&.0 w r V Y U P R ! R T M g u u u w 4 4 2 w w S U U H U P U G u u u u u u 8 F Q R W X.+.+.O.#.} z z i r 1 4 4 3 4 4 7 &.&.",
"&.&.&.&.4 r r V Y P U P P P H r r p i p r 3 4 4 1 = A Y U Y Y Y Y P f f f g f g p V P K K  .+.o.o.+.[ 5 r i r 2 4 4 4 4 4 7 &.&.",
"&.&.&.&.&.&.1 m Y P P Y P P P p i i i i r 3 4 2 4 1 A H  .o.X.o.o.o.X. .X.X.X.X.o.L w G Y Y T T T E K u i i i i 7 3 4 4 0 5 &.&.",
"&.&.&.&.&.&.> m Y P Y P P Y P f u i u i r 1 4 4 5 ; G ! ..@.+.+.+.+.+.+.+.+.+.+.#.E 2 G Y P P P U U F u i i p s r 4 4 4 7 i &.&.",
"&.&.&.&.&.&.9 m T P P P P P G p r i i i r 3 4 4 6 O [ $.+.+.+.+.+.+.+.+.+.+.+.+.$.E 4 G U P Y P U U G u i i r 7 : O : 7 &.&.&.&.",
"&.&.&.&.&.&.8 m F H P Y P P G f i i i i r 1 4 4 6 % _ ..| ..O.+.o.+.o.+.+.o.+.| | J 6 G Y P U P U U F u p u z J B B i 5 &.&.&.&.",
"&.&.&.&.&.&.&.&.a A ! P T P G p i i i p r 1 4 4 1 % V H H U +.@.#.@.+.@.+.+.$.Q = i u F Y P Y U U U F u i O E $.+.$.F $ &.&.&.&.",
"&.&.&.&.&.&.&.&.f A S P P P G f u u u r 8 3 4 1 t j G Y U Y ] } } [ } } } } | I 8 p u F U P P U P U F u M L ' +.o.+.J 1 &.&.&.&.",
"&.&.&.&.&.&.&.&.&.k h F Y Y U s i s r 1 4 4 5 ; m Y U U U U G G G G G G G G H n u p u G Y U U U U Y G o L $.+.+.+.%.L w &.&.&.&.",
"&.&.&.&.&.&.&.&.&.&.&.N V m v r 7 r 7 5 4 1 5 , m U U U U U U U Y Y U U U U Y m 8 i u n V K U U K N F E _ +.O.+.[ ^ M r &.&.&.&.",
"&.&.&.&.&.&.&.&.&.&.&.s h 1 < 0 4 0 0 0 4 2 2 O n Y P U U U H U U U U U U U Y N u u i u r G U U K 2 J $.$.+.+.%.E o a f &.&.&.&.",
"&.&.&.&.&.&.&.&.&.&.&.&.&.&.&.&.&.&.&.&.a 1 d m F U U U U U U U U U U U U F v g u i i i i G U U G u c _ ) _ ^ E M i &.&.&.&.&.&.",
"&.&.&.&.&.&.&.&.&.&.&.&.&.&.&.&.&.&.&.&.&.4 m R U U U U U U U U U U U K Y V 8 u i i i u i G U Y G u k H G H v , u s &.&.&.&.&.&.",
"&.&.&.&.&.&.&.&.&.&.&.&.&.&.&.&.&.&.&.&.&.&.&.&.Y R U U U H U U U H U U Y A u i u i i i i G U U F u k Y U Y V a M &.&.&.&.&.&.&.",
"&.&.&.&.&.&.&.&.&.&.&.&.&.&.&.&.&.&.&.&.&.&.&.&.&.R Y Y U U U U U U U K U V r i i i i i i G Y U K u l Y U Y A s &.&.&.&.&.&.&.&.",
"&.&.&.&.&.&.&.&.&.&.&.&.&.&.&.&.&.&.&.&.&.&.&.&.&.&.&.&.U R Y U Y U Y Y R A u s s i s &.&.&.&.&.&.&.&.&.&.&.&.&.&.&.&.&.&.&.&.&.",
"&.&.&.&.&.&.&.&.&.&.&.&.&.&.&.&.&.&.&.&.&.&.&.&.&.&.&.&.Y U U U U U U U Y A r i i i i &.&.&.&.&.&.&.&.&.&.&.&.&.&.&.&.&.&.&.&.&.",
"&.&.&.&.&.&.&.&.&.&.&.&.&.&.&.&.&.&.&.&.&.&.&.&.&.&.&.&.&.&.&.&.&.&.&.&.&.&.&.&.&.&.&.&.&.&.&.&.&.&.&.&.&.&.&.&.&.&.&.&.&.&.&.&.",
"&.&.&.&.&.&.&.&.&.&.&.&.&.&.&.&.&.&.&.&.&.&.&.&.&.&.&.&.&.&.&.&.&.&.&.&.&.&.&.&.&.&.&.&.&.&.&.&.&.&.&.&.&.&.&.&.&.&.&.&.&.&.&.&.",
"&.&.&.&.&.&.&.&.&.&.&.&.&.&.&.&.&.&.&.&.&.&.&.&.&.&.&.&.&.&.&.&.&.&.&.&.&.&.&.&.&.&.&.&.&.&.&.&.&.&.&.&.&.&.&.&.&.&.&.&.&.&.&.&.",
"&.&.&.&.&.&.&.&.&.&.&.&.&.&.&.&.&.&.&.&.&.&.&.&.&.&.&.&.&.&.&.&.&.&.&.&.&.&.&.&.&.&.&.&.&.&.&.&.&.&.&.&.&.&.&.&.&.&.&.&.&.&.&.&.",
"&.&.&.&.&.&.&.&.&.&.&.&.&.&.&.&.&.&.&.&.&.&.&.&.&.&.&.&.&.&.&.&.&.&.&.&.&.&.&.&.&.&.&.&.&.&.&.&.&.&.&.&.&.&.&.&.&.&.&.&.&.&.&.&.",
"&.&.&.&.&.&.&.&.&.&.&.&.&.&.&.&.&.&.&.&.&.&.&.&.&.&.&.&.&.&.&.&.&.&.&.&.&.&.&.&.&.&.&.&.&.&.&.&.&.&.&.&.&.&.&.&.&.&.&.&.&.&.&.&.",
"&.&.&.&.&.&.&.&.&.&.&.&.&.&.&.&.&.&.&.&.&.&.&.&.&.&.&.&.&.&.&.&.&.&.&.&.&.&.&.&.&.&.&.&.&.&.&.&.&.&.&.&.&.&.&.&.&.&.&.&.&.&.&.&."
};
